<?xml version="1.0" encoding="UTF-8"?>
<svg xmlns="http://www.w3.org/2000/svg" xmlns:xlink="http://www.w3.org/1999/xlink" version="1.2" >
<font id="Ubuntu Bold Italic">
<font-face  font-family="Ubuntu" units-per-em="1000" ascent="776" descent="-185" font-style="italic" font-weight="700" font-stretch="normal" slope="-13" cap-height="693" x-height="526" underline-position="-123" underline-thickness="120" />
<missing-glyph  horiz-adv-x="500" d="M50 0 L50 750 L450 750 L450 0 L50 0 Z M400 50 L400 700 L100 700 L100 50 L400 50 Z " />
<glyph glyph-name="&amp;#x0;" d="" />
<glyph glyph-name="&amp;#x8;" unicode="&#x8;" d="" />
<glyph glyph-name="&amp;#x1d;" unicode="&#x1d;" d="" />
<glyph glyph-name="&amp;#x9;" unicode="&#x9;" horiz-adv-x="240" d="" />
<glyph glyph-name="&amp;#xd;" unicode="&#xd;" horiz-adv-x="240" d="" />
<glyph glyph-name="space" unicode="&#x20;" horiz-adv-x="240" d="" />
<glyph glyph-name="exclam" unicode="&#x21;" horiz-adv-x="295" d="M348 514 Q328 433 305.5 363 Q283 293 256 221 L142 221 Q150 293 160 363 Q170 433 189 514 L232 693 L391 693 L348 514 Z M180 171 Q215 171 238.5 151 Q262 131 262 90 Q262 67 253.5 48 Q245 29 231 15.5 Q217 2 199 -5.5 Q181 -13 162 -13 Q127 -13 103.5 7 Q80 27 80 68 Q80 91 88.5 110 Q97 129 111 142.5 Q125 156 143 163.5 Q161 171 180 171 Z " />
<glyph glyph-name="quotedbl" unicode="&#x22;" horiz-adv-x="492" d="M374 760 L356 686 Q345 638 323.5 581 Q302 524 279 466 L180 466 Q184 524 191 581 Q198 638 209 687 L227 760 L374 760 Z M592 760 L574 686 Q563 638 541.5 581 Q520 524 497 466 L398 466 Q402 524 409 581 Q416 638 427 687 L445 760 L592 760 Z " />
<glyph glyph-name="numbersign" unicode="&#x23;" horiz-adv-x="660" d="M379 170 L268 170 L197 0 L69 0 L140 170 L71 170 L99 285 L188 285 L239 408 L129 408 L157 523 L287 523 L359 693 L487 693 L415 523 L526 523 L598 693 L726 693 L654 523 L724 523 L696 408 L606 408 L555 285 L666 285 L638 170 L507 170 L436 0 L308 0 L379 170 Z M316 285 L427 285 L478 408 L367 408 L316 285 Z " />
<glyph glyph-name="dollar" unicode="&#x24;" horiz-adv-x="568" d="M282 129 Q303 129 324.5 131.5 Q346 134 363 141.5 Q380 149 390.5 163.5 Q401 178 401 202 Q401 218 394 230 Q387 242 375 252 Q363 262 347.5 270.5 Q332 279 316 287 L290 300 Q226 332 197.5 380 Q169 428 169 480 Q169 513 181 544.5 Q193 576 217.5 602 Q242 628 280.5 645.5 Q319 663 372 669 L399 776 L525 776 L497 666 Q535 658 566.5 644.5 Q598 631 618 618 L558 512 Q532 532 495 542.5 Q458 553 423 553 Q380 553 349 537 Q318 521 318 487 Q318 473 322 462 Q326 451 335.5 441 Q345 431 361 420.5 Q377 410 402 398 Q431 383 457.5 366.5 Q484 350 504.5 328 Q525 306 537.5 278 Q550 250 550 212 Q550 165 535 130 Q520 95 492.5 70 Q465 45 426.5 30.5 Q388 16 341 11 L312 -109 L186 -109 L216 13 Q162 21 124 38 Q86 55 68 68 L129 178 Q140 170 156 161.5 Q172 153 192 146 Q212 139 235 134 Q258 129 282 129 Z " />
<glyph glyph-name="percent" unicode="&#x25;" horiz-adv-x="870" d="M281 417 Q297 417 312 426.5 Q327 436 338.5 454.5 Q350 473 357 499 Q364 525 364 558 Q364 585 350.5 599.5 Q337 614 316 614 Q300 614 284.5 604 Q269 594 257 576 Q245 558 237.5 531.5 Q230 505 230 472 Q230 445 245 431 Q260 417 281 417 Z M712 693 L856 693 L298 0 L154 0 L712 693 Z M324 709 Q357 709 384.5 700 Q412 691 432 672.5 Q452 654 463 626.5 Q474 599 474 562 Q474 505 457 460.5 Q440 416 411.5 385 Q383 354 346 337.5 Q309 321 270 321 Q237 321 209.5 330 Q182 339 162 357.5 Q142 376 131 403.5 Q120 431 120 468 Q120 525 137 569.5 Q154 614 182.5 645 Q211 676 248 692.5 Q285 709 324 709 Z M697 80 Q713 80 728 89.5 Q743 99 754.5 117.5 Q766 136 773 162 Q780 188 780 221 Q780 248 766.5 262.5 Q753 277 732 277 Q716 277 700.5 267 Q685 257 673 239 Q661 221 653.5 194.5 Q646 168 646 135 Q646 108 661 94 Q676 80 697 80 Z M740 372 Q773 372 800.5 363 Q828 354 848 335.5 Q868 317 879 289.5 Q890 262 890 225 Q890 168 873 123.5 Q856 79 827.5 48 Q799 17 762 0.5 Q725 -16 686 -16 Q653 -16 625.5 -7 Q598 2 578 20.5 Q558 39 547 66.5 Q536 94 536 131 Q536 188 553 232.5 Q570 277 598.5 308 Q627 339 664 355.5 Q701 372 740 372 Z " />
<glyph glyph-name="ampersand" unicode="&#x26;" horiz-adv-x="663" d="M80 157 Q80 232 119 286.5 Q158 341 245 380 L262 388 Q242 421 232.5 453.5 Q223 486 223 517 Q223 557 238.5 592.5 Q254 628 283.5 653.5 Q313 679 354.5 694 Q396 709 448 709 Q491 709 524 697.5 Q557 686 578.5 667 Q600 648 611 622.5 Q622 597 622 569 Q622 544 613 517 Q604 490 586.5 464 Q569 438 542 415 Q515 392 479 376 L442 359 L526 247 Q551 288 572 348 L703 331 Q660 222 602 147 Q628 110 648.5 73 Q669 36 686 0 L535 0 Q529 13 521.5 27 Q514 41 506 56 Q411 -9 289 -9 Q236 -9 196.5 5 Q157 19 131 42.5 Q105 66 92.5 95.5 Q80 125 80 157 Z M308 107 Q334 107 368 115.5 Q402 124 440 150 L323 304 L308 297 Q266 278 247 247 Q228 216 228 186 Q228 154 248.5 130.5 Q269 107 308 107 Z M355 513 Q355 485 381 442 L393 447 Q441 469 467.5 494.5 Q494 520 494 555 Q494 574 480 588.5 Q466 603 436 603 Q406 603 380.5 580.5 Q355 558 355 513 Z " />
<glyph glyph-name="quotesingle" unicode="&#x27;" horiz-adv-x="274" d="M374 760 L356 686 Q345 638 323.5 581 Q302 524 279 466 L180 466 Q184 524 191 581 Q198 638 209 687 L227 760 L374 760 Z " />
<glyph glyph-name="parenleft" unicode="&#x28;" horiz-adv-x="356" d="M501 716 Q444 654 397 585.5 Q350 517 316 443 Q282 369 263 290.5 Q244 212 244 131 Q244 68 256 6.5 Q268 -55 294 -118 L184 -185 Q139 -110 118.5 -30 Q98 50 98 135 Q98 225 120.5 314 Q143 403 183.5 486.5 Q224 570 280.5 645.5 Q337 721 405 783 L501 716 Z " />
<glyph glyph-name="parenright" unicode="&#x29;" horiz-adv-x="356" d="M-24 -117 Q33 -56 80.5 12.5 Q128 81 161.5 155.5 Q195 230 214 308.5 Q233 387 233 468 Q233 531 221 592.5 Q209 654 183 717 L293 784 Q338 709 358.5 629 Q379 549 379 464 Q379 374 356.5 285 Q334 196 293.5 112.5 Q253 29 196.5 -46.5 Q140 -122 72 -184 L-24 -117 Z " />
<glyph glyph-name="asterisk" unicode="&#x2a;" horiz-adv-x="502" d="M373 536 Q383 545 398 555.5 Q413 566 428.5 576.5 Q444 587 460 595.5 Q476 604 488 608 L512 616 L552 492 L528 484 Q515 480 498 478 Q481 476 462 475.5 Q443 475 425 475 Q407 475 393 475 Q405 467 419.5 456.5 Q434 446 448.5 434.5 Q463 423 476 411 Q489 399 497 388 L513 367 L407 292 L392 312 Q384 322 376.5 338 Q369 354 362 371.5 Q355 389 350 406 Q345 423 341 437 Q337 423 332 406 Q327 389 320 371.5 Q313 354 305.5 338 Q298 322 290 312 L275 292 L169 367 L185 388 Q193 399 206 411 Q219 423 233.5 434.5 Q248 446 262.5 456.5 Q277 467 289 475 Q275 475 257 475 Q239 475 220 475.5 Q201 476 184 478 Q167 480 154 484 L130 492 L170 616 L194 608 Q206 604 222 595.5 Q238 587 253.5 576.5 Q269 566 283.5 555.5 Q298 545 309 536 Q304 549 298.5 566.5 Q293 584 288 602 Q283 620 279.5 637.5 Q276 655 276 668 L276 693 L406 693 L406 668 Q406 655 402.5 637.5 Q399 620 394 602 Q389 584 383.5 566.5 Q378 549 373 536 Z " />
<glyph glyph-name="plus" unicode="&#x2b;" horiz-adv-x="568" d="M126 361 L293 361 L337 546 L473 546 L429 361 L596 361 L565 236 L398 236 L354 51 L218 51 L262 236 L95 236 L126 361 Z " />
<glyph glyph-name="comma" unicode="&#x2c;" horiz-adv-x="251" d="M241 152 Q238 65 197.5 -13 Q157 -91 99 -163 L-10 -134 Q28 -68 54 3 Q80 74 85 152 L241 152 Z " />
<glyph glyph-name="hyphen" unicode="&#x2d;" horiz-adv-x="343" d="M106 366 L396 366 L363 231 L73 231 L106 366 Z " />
<glyph glyph-name="period" unicode="&#x2e;" horiz-adv-x="252" d="M160 171 Q195 171 218.5 151.5 Q242 132 242 90 Q242 67 233.5 48 Q225 29 211 15.5 Q197 2 179 -5.5 Q161 -13 142 -13 Q107 -13 83.5 6.5 Q60 26 60 68 Q60 91 68.5 110 Q77 129 91 142.5 Q105 156 123 163.5 Q141 171 160 171 Z " />
<glyph glyph-name="slash" unicode="&#x2f;" horiz-adv-x="436" d="M62 -185 L-90 -185 L470 783 L621 783 L62 -185 Z " />
<glyph glyph-name="zero" unicode="0" horiz-adv-x="568" d="M298 114 Q330 114 357 133 Q384 152 404.5 183 Q425 214 440.5 253.5 Q456 293 466 334 Q476 375 481 414 Q486 453 486 483 Q486 534 470.5 558 Q455 582 423 582 Q390 582 363 563 Q336 544 315 513 Q294 482 278.5 442 Q263 402 253 361 Q243 320 238 281 Q233 242 233 212 Q233 160 249 137 Q265 114 298 114 Z M275 -14 Q226 -14 192 3.5 Q158 21 136.5 50 Q115 79 105.5 115.5 Q96 152 96 191 Q96 305 121.5 400 Q147 495 192.5 564 Q238 633 302 671 Q366 709 444 709 Q493 709 527 691.5 Q561 674 582.5 645 Q604 616 613.5 579.5 Q623 543 623 504 Q623 390 597.5 295 Q572 200 526.5 131 Q481 62 417 24 Q353 -14 275 -14 Z " />
<glyph glyph-name="one" unicode="1" horiz-adv-x="568" d="M200 549 Q232 561 267 576.5 Q302 592 336.5 610.5 Q371 629 404 649.5 Q437 670 464 693 L568 693 L401 0 L252 0 L372 499 Q337 479 296 462.5 Q255 446 218 434 L200 549 Z " />
<glyph glyph-name="two" unicode="2" horiz-adv-x="568" d="M435 709 Q475 709 509.5 696 Q544 683 569.5 660.5 Q595 638 609 608 Q623 578 623 544 Q623 506 615 476 Q607 446 588 418 Q569 390 537.5 361 Q506 332 460 296 Q433 275 405.5 256 Q378 237 351.5 217 Q325 197 300 174.5 Q275 152 253 124 L551 124 L521 0 L60 0 Q69 63 91 109 Q113 155 145.5 192.5 Q178 230 219 262.5 Q260 295 308 332 Q353 367 384.5 392.5 Q416 418 435.5 439.5 Q455 461 464 480 Q473 499 473 520 Q473 546 454.5 563.5 Q436 581 407 581 Q366 581 327 563.5 Q288 546 242 511 L191 620 Q251 669 311 689 Q371 709 435 709 Z " />
<glyph glyph-name="three" unicode="3" horiz-adv-x="568" d="M474 368 Q516 348 539 306.5 Q562 265 562 216 Q562 175 545 134 Q528 93 491 60 Q454 27 397 6.5 Q340 -14 260 -14 Q146 -14 55 33 L109 151 Q138 131 181 118.5 Q224 106 269 106 Q297 106 323.5 112 Q350 118 370 132 Q390 146 402 168 Q414 190 414 222 Q414 263 380.5 284 Q347 305 291 305 L227 305 L256 423 L328 423 Q349 423 372 427 Q395 431 414 441.5 Q433 452 445.5 469.5 Q458 487 458 515 Q458 550 434 566.5 Q410 583 371 583 Q340 583 302.5 572 Q265 561 225 540 L187 652 Q236 680 288 694.5 Q340 709 396 709 Q449 709 489 694.5 Q529 680 555.5 656 Q582 632 595 601.5 Q608 571 608 539 Q608 513 599.5 487.5 Q591 462 574.5 439.5 Q558 417 532.5 398.5 Q507 380 474 368 Z " />
<glyph glyph-name="four" unicode="4" horiz-adv-x="568" d="M455 517 Q429 492 400.5 463 Q372 434 343 402.5 Q314 371 286.5 338.5 Q259 306 235 275 L397 275 L455 517 Z M638 693 L537 275 L610 275 L581 155 L507 155 L469 0 L327 0 L364 155 L67 155 L92 265 Q124 309 170 364.5 Q216 420 270 478 Q324 536 382 592 Q440 648 496 693 L638 693 Z " />
<glyph glyph-name="five" unicode="5" horiz-adv-x="568" d="M118 154 Q153 133 193 122 Q233 111 270 111 Q342 111 380 138 Q418 165 418 222 Q418 246 405 265.5 Q392 285 363 298.5 Q334 312 285.5 319.5 Q237 327 167 327 Q200 420 230 514.5 Q260 609 283 693 L653 693 L623 569 L376 569 Q366 533 354.5 496.5 Q343 460 334 435 Q394 430 437.5 412.5 Q481 395 509.5 368 Q538 341 552 306.5 Q566 272 566 233 Q566 177 547.5 131 Q529 85 492 53 Q455 21 400 3.5 Q345 -14 273 -14 Q252 -14 225 -11 Q198 -8 169.5 -2.5 Q141 3 113.5 12 Q86 21 63 33 L118 154 Z " />
<glyph glyph-name="six" unicode="6" horiz-adv-x="568" d="M631 581 Q569 579 515.5 572 Q462 565 417.5 546 Q373 527 339.5 495 Q306 463 284 412 Q310 426 344.5 432.5 Q379 439 409 439 Q446 439 478.5 427.5 Q511 416 535.5 392.5 Q560 369 574 334 Q588 299 588 253 Q588 188 567 138.5 Q546 89 510 55 Q474 21 426 3.5 Q378 -14 325 -14 Q278 -14 238 2 Q198 18 168.5 48.5 Q139 79 122 124.5 Q105 170 105 230 Q105 318 135 402.5 Q165 487 227 553 Q289 619 384 659.5 Q479 700 609 700 Q617 700 627.5 700 Q638 700 649 699 L631 581 Z M446 243 Q446 291 420 309 Q394 327 358 327 Q333 327 307.5 320.5 Q282 314 260 305 Q247 267 247 227 Q247 179 269 144.5 Q291 110 337 110 Q385 110 415.5 145 Q446 180 446 243 Z " />
<glyph glyph-name="seven" unicode="7" horiz-adv-x="568" d="M135 0 Q154 74 190 153.5 Q226 233 271 308.5 Q316 384 366 451 Q416 518 463 567 L162 567 L193 693 L678 693 L652 585 Q614 553 561.5 492 Q509 431 456 352.5 Q403 274 357 183.5 Q311 93 286 0 L135 0 Z " />
<glyph glyph-name="eight" unicode="8" horiz-adv-x="568" d="M93 157 Q93 187 101.5 214.5 Q110 242 128.5 268 Q147 294 176 318.5 Q205 343 246 368 Q222 391 205.5 420.5 Q189 450 189 492 Q189 531 203.5 570 Q218 609 248.5 640 Q279 671 325 690 Q371 709 434 709 Q476 709 512 697 Q548 685 574 663.5 Q600 642 615 611 Q630 580 630 543 Q630 521 625 496.5 Q620 472 605 447.5 Q590 423 562.5 398 Q535 373 490 351 Q507 339 522 325 Q537 311 548 293 Q559 275 565.5 253 Q572 231 572 203 Q572 158 554.5 118.5 Q537 79 503.5 49.5 Q470 20 420 3 Q370 -14 306 -14 Q269 -14 231 -5.5 Q193 3 162.5 23.5 Q132 44 112.5 76.5 Q93 109 93 157 Z M428 199 Q428 219 421 234.5 Q414 250 401.5 263 Q389 276 372.5 286.5 Q356 297 337 307 Q306 292 286.5 275.5 Q267 259 255.5 242 Q244 225 240 208 Q236 191 236 175 Q236 140 260.5 122.5 Q285 105 320 105 Q341 105 360.5 111.5 Q380 118 395 130 Q410 142 419 159.5 Q428 177 428 199 Z M326 501 Q326 469 346 447 Q366 425 394 408 Q452 435 471.5 464.5 Q491 494 491 522 Q491 554 471 572 Q451 590 416 590 Q375 590 350.5 564 Q326 538 326 501 Z " />
<glyph glyph-name="nine" unicode="9" horiz-adv-x="568" d="M95 115 Q157 116 210.5 123.5 Q264 131 308.5 150 Q353 169 386.5 201 Q420 233 442 284 Q416 270 381.5 263.5 Q347 257 317 257 Q280 257 247.5 268.5 Q215 280 190.5 303.5 Q166 327 152 361.5 Q138 396 138 443 Q138 507 159 557 Q180 607 216 641 Q252 675 300 692.5 Q348 710 401 710 Q447 710 487.5 694 Q528 678 557.5 647.5 Q587 617 604 571.5 Q621 526 621 466 Q621 378 591 293.5 Q561 209 499 143 Q437 77 342 36.5 Q247 -4 117 -4 Q109 -4 98.5 -4 Q88 -4 77 -3 L95 115 Z M280 453 Q280 405 306 387 Q332 369 368 369 Q393 369 418.5 375.5 Q444 382 466 391 Q479 429 479 469 Q479 517 457 551.5 Q435 586 389 586 Q341 586 310.5 551 Q280 516 280 453 Z " />
<glyph glyph-name="colon" unicode="&#x3a;" horiz-adv-x="252" d="M235 526 Q270 526 293.5 506.5 Q317 487 317 445 Q317 422 308.5 403 Q300 384 286 370.5 Q272 357 254 349.5 Q236 342 217 342 Q182 342 158.5 361.5 Q135 381 135 423 Q135 446 143.5 465 Q152 484 166 497.5 Q180 511 198 518.5 Q216 526 235 526 Z M160 171 Q195 171 218.5 151.5 Q242 132 242 90 Q242 67 233.5 48 Q225 29 211 15.5 Q197 2 179 -5.5 Q161 -13 142 -13 Q107 -13 83.5 6.5 Q60 26 60 68 Q60 91 68.5 110 Q77 129 91 142.5 Q105 156 123 163.5 Q141 171 160 171 Z " />
<glyph glyph-name="semicolon" unicode="&#x3b;" horiz-adv-x="252" d="M235 526 Q270 526 293.5 506.5 Q317 487 317 445 Q317 422 308.5 403 Q300 384 286 370.5 Q272 357 254 349.5 Q236 342 217 342 Q182 342 158.5 361.5 Q135 381 135 423 Q135 446 143.5 465 Q152 484 166 497.5 Q180 511 198 518.5 Q216 526 235 526 Z M245 152 Q242 65 201.5 -13 Q161 -91 103 -163 L-6 -134 Q32 -68 58 3 Q84 74 89 152 L245 152 Z " />
<glyph glyph-name="less" unicode="&#x3c;" horiz-adv-x="568" d="M121 361 L595 542 L605 418 L259 298 L543 167 L480 56 L94 244 L121 361 Z " />
<glyph glyph-name="equal" unicode="&#x3d;" horiz-adv-x="568" d="M104 251 L574 251 L544 126 L74 126 L104 251 Z M157 470 L627 470 L597 345 L127 345 L157 470 Z " />
<glyph glyph-name="greater" unicode="&#x3e;" horiz-adv-x="568" d="M552 237 L78 56 L68 181 L414 301 L130 432 L193 542 L579 354 L552 237 Z " />
<glyph glyph-name="question" unicode="&#x3f;" horiz-adv-x="430" d="M292 407 Q322 430 343 447 Q364 464 377.5 478.5 Q391 493 397.5 506 Q404 519 404 533 Q404 559 385.5 571 Q367 583 339 583 Q321 583 301 579.5 Q281 576 262 570 Q243 564 226 557 Q209 550 196 543 L177 660 Q216 682 266.5 695.5 Q317 709 368 709 Q404 709 437 700 Q470 691 495 672.5 Q520 654 535 626.5 Q550 599 550 563 Q550 520 536.5 488 Q523 456 502 431 Q481 406 454.5 385.5 Q428 365 402 345 Q364 316 335 287 Q306 258 303 221 L171 221 Q171 252 180.5 278 Q190 304 206.5 326 Q223 348 245 368 Q267 388 292 407 Z M223 171 Q258 171 281.5 151.5 Q305 132 305 90 Q305 67 296.5 48 Q288 29 274 15.5 Q260 2 242 -5.5 Q224 -13 205 -13 Q170 -13 146.5 6.5 Q123 26 123 68 Q123 91 131.5 110 Q140 129 154 142.5 Q168 156 186 163.5 Q204 171 223 171 Z " />
<glyph glyph-name="at" unicode="&#x40;" horiz-adv-x="941" d="M647 -146 Q605 -154 560.5 -159 Q516 -164 478 -164 Q390 -164 320 -140 Q250 -116 201 -71.5 Q152 -27 126 36.5 Q100 100 100 178 Q100 308 144.5 409 Q189 510 263 578.5 Q337 647 432 682.5 Q527 718 629 718 Q698 718 761 698.5 Q824 679 872.5 639 Q921 599 950 538 Q979 477 979 393 Q979 326 962.5 260.5 Q946 195 911 143.5 Q876 92 822 60 Q768 28 694 28 Q668 28 645 38 Q622 48 607 67 Q572 47 538.5 37.5 Q505 28 467 28 Q388 28 344 80 Q300 132 300 217 Q300 266 320 319 Q340 372 379 415.5 Q418 459 476.5 487 Q535 515 613 515 Q673 515 712 504.5 Q751 494 778 483 L707 187 Q705 182 705 178 Q705 174 705 170 Q705 153 716 145.5 Q727 138 744 138 Q770 138 792 156.5 Q814 175 830 207.5 Q846 240 855 284.5 Q864 329 864 381 Q864 444 844.5 489.5 Q825 535 791 563.5 Q757 592 712 605.5 Q667 619 615 619 Q543 619 471.5 591.5 Q400 564 343.5 509.5 Q287 455 252 372.5 Q217 290 217 181 Q217 110 239.5 63 Q262 16 300 -12 Q338 -40 388.5 -52 Q439 -64 496 -64 Q531 -64 574 -59 Q617 -54 653 -47 L647 -146 Z M572 157 Q573 165 575 175 Q577 185 580 199 L629 405 Q612 409 588 409 Q547 409 518 392 Q489 375 469.5 348.5 Q450 322 441 290 Q432 258 432 229 Q432 184 448 160.5 Q464 137 502 137 Q532 137 572 157 Z " />
<glyph glyph-name="A" unicode="A" horiz-adv-x="714" d="M532 0 Q530 39 527.5 76.5 Q525 114 522 151 L262 151 Q242 114 220 76.5 Q198 39 178 0 L15 0 Q80 112 136.5 207 Q193 302 245.5 386 Q298 470 348 545.5 Q398 621 450 693 L589 693 Q605 621 619.5 533.5 Q634 446 646.5 354.5 Q659 263 669.5 171.5 Q680 80 689 0 L532 0 Z M486 541 Q444 474 403.5 408 Q363 342 325 273 L512 273 Q507 334 501.5 403 Q496 472 486 541 Z " />
<glyph glyph-name="B" unicode="B" horiz-adv-x="658" d="M312 -9 Q252 -9 189 -4 Q126 1 75 12 L235 682 Q292 693 354.5 697 Q417 701 469 701 Q529 701 572.5 688.5 Q616 676 643.5 655 Q671 634 684.5 605.5 Q698 577 698 545 Q698 523 693.5 499 Q689 475 675.5 451.5 Q662 428 638.5 407 Q615 386 577 369 Q622 349 643 314.5 Q664 280 664 238 Q664 190 645 145.5 Q626 101 584 66.5 Q542 32 475 11.5 Q408 -9 312 -9 Z M298 303 L255 123 Q271 120 295.5 118.5 Q320 117 341 117 Q371 117 400.5 121.5 Q430 126 453.5 138 Q477 150 492 171 Q507 192 507 225 Q507 239 501.5 253 Q496 267 484 278 Q472 289 452.5 296 Q433 303 406 303 L298 303 Z M327 420 L425 420 Q485 420 514.5 446 Q544 472 544 508 Q544 527 535.5 540.5 Q527 554 513 562 Q499 570 481 573.5 Q463 577 444 577 Q423 577 399 575.5 Q375 574 363 572 L327 420 Z " />
<glyph glyph-name="C" unicode="C" horiz-adv-x="638" d="M614 30 Q573 10 523 -2 Q473 -14 401 -14 Q339 -14 287.5 6.5 Q236 27 199.5 65 Q163 103 143 157.5 Q123 212 123 280 Q123 358 150.5 435 Q178 512 231.5 572.5 Q285 633 362.5 671 Q440 709 541 709 Q589 709 635.5 698 Q682 687 733 659 L677 538 Q635 560 602 568 Q569 576 531 576 Q474 576 428.5 553 Q383 530 350.5 490.5 Q318 451 301 399 Q284 347 284 289 Q284 201 322.5 161 Q361 121 433 121 Q481 121 521.5 131 Q562 141 597 157 L614 30 Z " />
<glyph glyph-name="D" unicode="D" horiz-adv-x="718" d="M257 125 Q268 124 279.5 123.5 Q291 123 311 123 Q376 123 428.5 143 Q481 163 517.5 200.5 Q554 238 574 292.5 Q594 347 594 415 Q594 450 585 478.5 Q576 507 555.5 527.5 Q535 548 502.5 559 Q470 570 424 570 Q394 570 363 567 L257 125 Z M754 423 Q754 322 721 242 Q688 162 626.5 106.5 Q565 51 477 21 Q389 -9 278 -9 Q236 -9 181 -4 Q126 1 75 12 L236 681 Q293 692 345.5 696.5 Q398 701 440 701 Q514 701 572.5 681 Q631 661 671.5 624 Q712 587 733 536 Q754 485 754 423 Z " />
<glyph glyph-name="E" unicode="E" horiz-adv-x="594" d="M75 0 L241 693 L694 693 L662 565 L365 565 L333 425 L595 425 L564 299 L302 299 L262 129 L582 129 L550 0 L75 0 Z " />
<glyph glyph-name="F" unicode="F" horiz-adv-x="575" d="M75 0 L241 693 L690 693 L658 564 L365 564 L330 416 L589 416 L558 287 L299 287 L230 0 L75 0 Z " />
<glyph glyph-name="G" unicode="G" horiz-adv-x="688" d="M429 120 Q449 120 465 121.5 Q481 123 494 125 L552 366 L708 366 L624 19 Q596 8 543 -2.5 Q490 -13 408 -13 Q338 -13 284.5 7.5 Q231 28 195 66 Q159 104 141 158 Q123 212 123 280 Q123 358 150.5 435 Q178 512 232 572.5 Q286 633 366 671 Q446 709 550 709 Q598 709 651.5 695 Q705 681 748 653 L692 532 Q657 554 617.5 565 Q578 576 540 576 Q479 576 431.5 553 Q384 530 351 490.5 Q318 451 301 399 Q284 347 284 289 Q284 201 320.5 160.5 Q357 120 429 120 Z " />
<glyph glyph-name="H" unicode="H" horiz-adv-x="714" d="M643 693 L799 693 L632 0 L476 0 L547 295 L301 295 L230 0 L75 0 L241 693 L397 693 L333 427 L579 427 L643 693 Z " />
<glyph glyph-name="I" unicode="I" horiz-adv-x="312" d="M241 693 L397 693 L230 0 L75 0 L241 693 Z " />
<glyph glyph-name="J" unicode="J" horiz-adv-x="516" d="M485 210 Q473 159 453 117.5 Q433 76 401 46.5 Q369 17 322 1.5 Q275 -14 208 -14 Q154 -14 105.5 2.5 Q57 19 20 47 L89 163 Q113 146 141.5 133 Q170 120 209 120 Q237 120 257.5 126.5 Q278 133 293 147.5 Q308 162 318.5 185 Q329 208 337 241 L445 693 L601 693 L485 210 Z " />
<glyph glyph-name="K" unicode="K" horiz-adv-x="662" d="M483 0 Q469 34 449.5 73 Q430 112 406.5 151 Q383 190 356 226 Q329 262 301 290 L230 0 L75 0 L241 693 L397 693 L336 443 Q414 510 483 571.5 Q552 633 612 693 L797 693 Q706 608 616.5 524.5 Q527 441 428 362 Q491 293 549 204 Q607 115 653 0 L483 0 Z " />
<glyph glyph-name="L" unicode="L" horiz-adv-x="564" d="M569 132 L537 0 L75 0 L241 693 L397 693 L262 132 L569 132 Z " />
<glyph glyph-name="M" unicode="M" horiz-adv-x="878" d="M416 693 Q422 666 431.5 616.5 Q441 567 451.5 507.5 Q462 448 473 385.5 Q484 323 493 271 Q527 323 567 383 Q607 443 646 501 Q685 559 720 609.5 Q755 660 780 693 L918 693 Q911 624 899.5 538 Q888 452 873.5 360 Q859 268 843 175 Q827 82 811 0 L659 0 Q680 102 703.5 220.5 Q727 339 747 460 Q721 419 689 368.5 Q657 318 625 266.5 Q593 215 563 168 Q533 121 511 88 L397 88 Q392 118 385 164 Q378 210 369.5 261.5 Q361 313 352 365.5 Q343 418 335 460 Q296 339 264.5 220.5 Q233 102 206 0 L55 0 Q78 82 105.5 175 Q133 268 162.5 360.5 Q192 453 221 539 Q250 625 276 693 L416 693 Z " />
<glyph glyph-name="N" unicode="N" horiz-adv-x="742" d="M543 0 Q501 118 449.5 236 Q398 354 338 459 L228 0 L75 0 L241 693 L360 693 Q383 658 409.5 610.5 Q436 563 464 508 Q492 453 520 393.5 Q548 334 573 276 L672 693 L827 693 L660 0 L543 0 Z " />
<glyph glyph-name="O" unicode="O" horiz-adv-x="757" d="M500 575 Q454 575 414.5 551 Q375 527 345.5 487 Q316 447 299.5 395 Q283 343 283 288 Q283 213 314.5 166.5 Q346 120 417 120 Q463 120 502.5 144 Q542 168 571.5 208 Q601 248 617.5 299.5 Q634 351 634 407 Q634 482 602.5 528.5 Q571 575 500 575 Z M401 -14 Q340 -14 289 6 Q238 26 201 63.5 Q164 101 143.5 155 Q123 209 123 277 Q123 355 150 432 Q177 509 227.5 570.5 Q278 632 351 670.5 Q424 709 516 709 Q577 709 628 689 Q679 669 716 631.5 Q753 594 773.5 540 Q794 486 794 418 Q794 340 767.5 262.5 Q741 185 690.5 123.5 Q640 62 567 24 Q494 -14 401 -14 Z " />
<glyph glyph-name="P" unicode="P" horiz-adv-x="639" d="M432 701 Q495 701 545.5 687.5 Q596 674 631 648.5 Q666 623 685 586 Q704 549 704 503 Q704 428 675 376 Q646 324 595 292 Q544 260 475 246 Q406 232 325 232 L286 232 L230 0 L75 0 L238 683 Q292 693 340.5 697 Q389 701 432 701 Z M419 570 Q402 570 390 569 Q378 568 366 567 L318 363 L357 363 Q399 363 433.5 369.5 Q468 376 492.5 391 Q517 406 530.5 429.5 Q544 453 544 487 Q544 532 511.5 551 Q479 570 419 570 Z " />
<glyph glyph-name="Q" unicode="Q" horiz-adv-x="756" d="M610 -187 Q531 -184 478 -171 Q425 -158 392.5 -136.5 Q360 -115 346 -84 Q332 -53 332 -14 L332 -7 Q236 13 179.5 86 Q123 159 123 277 Q123 355 150 432 Q177 509 227.5 570.5 Q278 632 351 670.5 Q424 709 516 709 Q577 709 628 689 Q679 669 716 631.5 Q753 594 773.5 540 Q794 486 794 418 Q794 349 773 279.5 Q752 210 711.5 151.5 Q671 93 612.5 51 Q554 9 479 -6 L479 -9 Q479 -31 493.5 -44 Q508 -57 532.5 -64 Q557 -71 589 -74 Q621 -77 656 -79 L610 -187 Z M500 575 Q454 575 414.5 551 Q375 527 345.5 487 Q316 447 299.5 395 Q283 343 283 288 Q283 213 314.5 166.5 Q346 120 417 120 Q463 120 502.5 144 Q542 168 571.5 208 Q601 248 617.5 299.5 Q634 351 634 407 Q634 482 602.5 528.5 Q571 575 500 575 Z " />
<glyph glyph-name="R" unicode="R" horiz-adv-x="656" d="M436 701 Q503 701 553 685 Q603 669 636 642 Q669 615 685 578.5 Q701 542 701 502 Q701 469 693.5 437 Q686 405 665.5 376 Q645 347 610.5 322.5 Q576 298 522 281 Q550 229 579.5 155 Q609 81 635 0 L468 0 Q445 69 421.5 136.5 Q398 204 369 253 L291 253 L230 0 L75 0 L238 683 Q292 693 343 697 Q394 701 436 701 Z M431 569 Q414 569 396 568 Q378 567 366 566 L321 376 L374 376 Q422 376 455 385 Q488 394 508 409 Q528 424 536.5 443.5 Q545 463 545 483 Q545 500 540 515.5 Q535 531 522 543 Q509 555 487 562 Q465 569 431 569 Z " />
<glyph glyph-name="S" unicode="S" horiz-adv-x="559" d="M269 116 Q292 116 315 119.5 Q338 123 356 132 Q374 141 385.5 157.5 Q397 174 397 200 Q397 220 386 234.5 Q375 249 358 261 Q341 273 320 283 Q299 293 278 305 Q251 321 227 339 Q203 357 186 379.5 Q169 402 159 429.5 Q149 457 149 493 Q149 539 166.5 578.5 Q184 618 218.5 647 Q253 676 305 692.5 Q357 709 427 709 Q459 709 489 703.5 Q519 698 545 690 Q571 682 592.5 671.5 Q614 661 629 651 L564 536 Q539 555 503 568 Q467 581 425 581 Q402 581 381 577 Q360 573 344 563.5 Q328 554 318.5 539 Q309 524 309 502 Q309 482 316.5 468.5 Q324 455 336 445 Q348 435 364 427 Q380 419 398 410 Q429 394 458 376 Q487 358 509 334.5 Q531 311 544 281 Q557 251 557 210 Q557 153 536 111 Q515 69 477 41 Q439 13 386.5 -0.5 Q334 -14 270 -14 Q228 -14 191.5 -7 Q155 0 125.5 9.5 Q96 19 74.5 30 Q53 41 40 50 L106 169 Q118 161 135 152 Q152 143 173.5 135 Q195 127 219 121.5 Q243 116 269 116 Z " />
<glyph glyph-name="T" unicode="T" horiz-adv-x="594" d="M739 693 L707 562 L504 562 L369 0 L213 0 L348 562 L145 562 L177 693 L739 693 Z " />
<glyph glyph-name="U" unicode="U" horiz-adv-x="683" d="M668 252 Q634 111 557.5 48.5 Q481 -14 355 -14 Q290 -14 245.5 1.5 Q201 17 173 44.5 Q145 72 132.5 110.5 Q120 149 120 194 Q120 246 135 305 L228 693 L384 693 L286 283 Q276 247 276 210 Q276 190 280.5 174 Q285 158 296.5 146 Q308 134 327.5 127.5 Q347 121 376 121 Q436 121 467 158.5 Q498 196 515 265 L617 693 L773 693 L668 252 Z " />
<glyph glyph-name="V" unicode="V" horiz-adv-x="688" d="M268 0 Q252 85 237.5 176 Q223 267 210 357 Q197 447 187 532.5 Q177 618 170 693 L337 693 Q340 636 344.5 570.5 Q349 505 355 438.5 Q361 372 367.5 306.5 Q374 241 381 184 Q412 236 447.5 298 Q483 360 519.5 427 Q556 494 591.5 562 Q627 630 657 693 L823 693 Q785 621 740 538 Q695 455 643.5 366 Q592 277 534.5 184.5 Q477 92 414 0 L268 0 Z " />
<glyph glyph-name="W" unicode="W" horiz-adv-x="936" d="M667 619 Q669 578 672.5 526 Q676 474 680.5 418.5 Q685 363 690 308 Q695 253 700 206 Q726 257 753 316 Q780 375 807 438 Q834 501 860.5 566 Q887 631 911 693 L1076 693 Q998 503 917 331.5 Q836 160 743 0 L597 0 Q589 55 582.5 105.5 Q576 156 570.5 205 Q565 254 560.5 304 Q556 354 552 408 Q495 302 439.5 200.5 Q384 99 321 0 L175 0 Q167 93 163.5 184 Q160 275 160 369 Q160 450 163 530.5 Q166 611 171 693 L328 693 Q323 605 318.5 520.5 Q314 436 314 345 Q314 311 314 276 Q314 241 316 206 Q344 255 375 310 Q406 365 436 420 Q466 475 493 526.5 Q520 578 539 619 L667 619 Z " />
<glyph glyph-name="X" unicode="X" horiz-adv-x="669" d="M487 0 Q473 43 461.5 76 Q450 109 439.5 137.5 Q429 166 418 191.5 Q407 217 394 245 L193 0 L15 0 L330 377 L189 693 L361 693 L444 479 Q489 533 531 588.5 Q573 644 608 693 L779 693 Q750 652 717.5 608.5 Q685 565 650.5 521.5 Q616 478 581 436.5 Q546 395 513 358 Q534 311 552.5 269 Q571 227 588 184.5 Q605 142 621 97 Q637 52 654 0 L487 0 Z " />
<glyph glyph-name="Y" unicode="Y" horiz-adv-x="652" d="M413 408 Q442 445 468.5 479.5 Q495 514 520 548.5 Q545 583 569.5 618.5 Q594 654 620 693 L792 693 Q750 634 711 581 Q672 528 633 477.5 Q594 427 553 377 Q512 327 466 274 L400 0 L244 0 L310 274 Q268 380 234 481 Q200 582 170 693 L336 693 Q352 621 371 552 Q390 483 413 408 Z " />
<glyph glyph-name="Z" unicode="Z" horiz-adv-x="638" d="M712 585 Q672 551 616 498.5 Q560 446 499 384.5 Q438 323 377 257 Q316 191 266 131 L614 131 L582 0 L45 0 L68 93 Q108 146 162 208.5 Q216 271 274.5 334 Q333 397 392 456 Q451 515 501 562 L195 562 L227 693 L738 693 L712 585 Z " />
<glyph glyph-name="bracketleft" unicode="&#x5b;" horiz-adv-x="373" d="M262 783 L533 783 L504 664 L375 664 L200 -66 L329 -66 L300 -185 L30 -185 L262 783 Z " />
<glyph glyph-name="backslash" unicode="&#x5c;" horiz-adv-x="406" d="M150 783 L293 783 L396 -185 L253 -185 L150 783 Z " />
<glyph glyph-name="bracketright" unicode="&#x5d;" horiz-adv-x="373" d="M232 -185 L-38 -185 L-9 -66 L119 -66 L294 664 L165 664 L194 783 L465 783 L232 -185 Z " />
<glyph glyph-name="asciicircum" unicode="&#x5e;" horiz-adv-x="568" d="M620 347 L490 292 L412 539 L210 296 L104 361 L385 697 L503 697 L620 347 Z " />
<glyph glyph-name="underscore" unicode="&#x5f;" horiz-adv-x="503" d="M-2 -61 L498 -61 L469 -185 L-30 -185 L-2 -61 Z " />
<glyph glyph-name="grave" unicode="&#x60;" horiz-adv-x="247" d="M246 799 L381 634 L317 576 L154 720 L246 799 Z " />
<glyph glyph-name="a" unicode="a" horiz-adv-x="588" d="M563 227 Q549 170 555 112.5 Q561 55 578 10 L445 -9 Q439 3 434 14 Q429 25 424 39 Q396 16 362 1 Q328 -14 286 -14 Q236 -14 200.5 3.5 Q165 21 142.5 50.5 Q120 80 110 119.5 Q100 159 100 204 Q100 273 124.5 334 Q149 395 192.5 440.5 Q236 486 295 512 Q354 538 423 538 Q432 538 454.5 537 Q477 536 506 532.5 Q535 529 567 521 Q599 513 628 499 L563 227 Z M459 411 Q446 413 435.5 414 Q425 415 410 415 Q376 415 346.5 398 Q317 381 295 353.5 Q273 326 260.5 290 Q248 254 248 215 Q248 167 264 139 Q280 111 323 111 Q346 111 364.5 120 Q383 129 404 150 Q406 175 410.5 202.5 Q415 230 420 253 L459 411 Z " />
<glyph glyph-name="b" unicode="b" horiz-adv-x="575" d="M419 537 Q467 537 502 520 Q537 503 560 474 Q583 445 594 406 Q605 367 605 322 Q605 253 579.5 191.5 Q554 130 510 84.5 Q466 39 406 12.5 Q346 -14 276 -14 Q267 -14 244.5 -13.5 Q222 -13 193 -9 Q164 -5 131.5 3 Q99 11 70 25 L243 752 L398 776 L336 518 Q356 527 376 532 Q396 537 419 537 Z M289 109 Q324 109 355 126 Q386 143 408.5 171.5 Q431 200 444 236 Q457 272 457 311 Q457 359 441 386 Q425 413 382 413 Q368 413 345.5 408 Q323 403 305 387 L239 113 Q245 112 249.5 111 Q254 110 259 109.5 Q264 109 271 109 Q278 109 289 109 Z " />
<glyph glyph-name="c" unicode="c" horiz-adv-x="480" d="M100 210 Q100 278 122 338 Q144 398 185 443 Q226 488 284.5 514 Q343 540 415 540 Q460 540 495.5 531.5 Q531 523 560 509 L509 393 Q489 401 467.5 407.5 Q446 414 415 414 Q340 414 297 363.5 Q254 313 254 226 Q254 175 276 143.5 Q298 112 357 112 Q386 112 413 118 Q440 124 461 133 L472 14 Q444 3 410.5 -5.5 Q377 -14 329 -14 Q267 -14 224 4 Q181 22 153 52.5 Q125 83 112.5 124 Q100 165 100 210 Z " />
<glyph glyph-name="d" unicode="d" horiz-adv-x="590" d="M287 -14 Q237 -14 201.5 3 Q166 20 143.5 49.5 Q121 79 110.5 118.5 Q100 158 100 203 Q100 271 124.5 331.5 Q149 392 192 437 Q235 482 294 508 Q353 534 423 534 Q441 534 456.5 532 Q472 530 488 526 L542 752 L697 776 L565 227 Q551 170 557 112.5 Q563 55 580 10 L447 -9 Q441 3 436 14 Q431 25 426 39 Q398 16 363.5 1 Q329 -14 287 -14 Z M459 407 Q453 408 448.5 409 Q444 410 439.5 410.5 Q435 411 428 411 Q421 411 410 411 Q375 411 345 394.5 Q315 378 293.5 350 Q272 322 260 286.5 Q248 251 248 214 Q248 166 264.5 138.5 Q281 111 324 111 Q347 111 366 120 Q385 129 406 150 Q408 175 412.5 202.5 Q417 230 422 253 L459 407 Z " />
<glyph glyph-name="e" unicode="e" horiz-adv-x="530" d="M100 206 Q100 270 122.5 330 Q145 390 186 436.5 Q227 483 285.5 511.5 Q344 540 415 540 Q450 540 480 530 Q510 520 532.5 501 Q555 482 567.5 454.5 Q580 427 580 392 Q580 336 555 297 Q530 258 485.5 233.5 Q441 209 380 198 Q319 187 247 187 Q254 145 277.5 127.5 Q301 110 352 110 Q384 110 417 115.5 Q450 121 479 132 L490 15 Q462 4 418.5 -5 Q375 -14 324 -14 Q262 -14 219.5 3.5 Q177 21 150.5 51 Q124 81 112 121 Q100 161 100 206 Z M391 422 Q340 422 301.5 385.5 Q263 349 251 289 Q313 291 351 299.5 Q389 308 410 320 Q431 332 438 346 Q445 360 445 374 Q445 422 391 422 Z " />
<glyph glyph-name="f" unicode="f" horiz-adv-x="438" d="M479 776 Q524 776 557.5 766.5 Q591 757 608 749 L558 632 Q540 641 516.5 645.5 Q493 650 473 650 Q418 650 391.5 622 Q365 594 355 552 L349 526 L525 526 L495 404 L320 404 L259 149 Q225 6 185 -73.5 Q145 -153 97 -189 L-36 -170 Q-10 -146 12 -111 Q34 -76 51.5 -37 Q69 2 81.5 42.5 Q94 83 102 118 L206 554 Q231 660 296 718 Q361 776 479 776 Z " />
<glyph glyph-name="g" unicode="g" horiz-adv-x="567" d="M524 66 Q509 1 484.5 -46.5 Q460 -94 423.5 -125.5 Q387 -157 336 -172.5 Q285 -188 217 -188 Q154 -188 111 -176.5 Q68 -165 33 -148 L83 -30 Q114 -44 147.5 -54 Q181 -64 230 -64 Q294 -64 326.5 -35.5 Q359 -7 369 38 L373 57 Q353 47 330.5 41 Q308 35 283 35 Q236 35 202 49.5 Q168 64 146.5 90 Q125 116 114.5 151.5 Q104 187 104 229 Q104 305 132 363.5 Q160 422 206.5 461 Q253 500 313.5 520 Q374 540 440 540 Q488 540 535 530 Q582 520 627 499 L524 66 Z M458 411 Q441 415 416 415 Q378 415 348 401.5 Q318 388 296.5 365 Q275 342 263.5 309.5 Q252 277 252 240 Q252 222 255 206.5 Q258 191 266 179.5 Q274 168 288 161 Q302 154 323 154 Q337 154 360.5 159 Q384 164 403 182 L458 411 Z " />
<glyph glyph-name="h" unicode="h" horiz-adv-x="565" d="M425 535 Q468 535 499 522.5 Q530 510 550 487.5 Q570 465 580 434 Q590 403 590 367 Q590 325 580 284 L512 0 L363 0 L429 278 Q433 295 436.5 314 Q440 333 440 350 Q440 376 426.5 394.5 Q413 413 375 413 Q359 413 344.5 411 Q330 409 316 406 L219 0 L70 0 L250 752 L405 776 L344 525 Q364 529 384.5 532 Q405 535 425 535 Z " />
<glyph glyph-name="i" unicode="i" horiz-adv-x="283" d="M218 0 L70 0 L195 526 L344 526 L218 0 Z M290 590 Q259 590 234 608.5 Q209 627 209 665 Q209 686 217.5 704.5 Q226 723 240 736.5 Q254 750 272.5 758 Q291 766 312 766 Q343 766 368 747.5 Q393 729 393 691 Q393 670 384.5 651.5 Q376 633 362 619.5 Q348 606 329.5 598 Q311 590 290 590 Z " />
<glyph glyph-name="j" unicode="j" horiz-adv-x="290" d="M15 -185 Q-13 -185 -40.5 -179.5 Q-68 -174 -90 -166 L-52 -48 Q-38 -53 -24.5 -56 Q-11 -59 6 -59 Q41 -59 60 -38 Q79 -17 87 23 L208 526 L357 526 L235 19 Q211 -85 160 -135 Q109 -185 15 -185 Z M303 590 Q272 590 247 608.5 Q222 627 222 665 Q222 686 230.5 704.5 Q239 723 253 736.5 Q267 750 285.5 758 Q304 766 325 766 Q356 766 381 747.5 Q406 729 406 691 Q406 670 397.5 651.5 Q389 633 375 619.5 Q361 606 342.5 598 Q324 590 303 590 Z " />
<glyph glyph-name="k" unicode="k" horiz-adv-x="561" d="M299 336 Q359 384 412 434 Q465 484 503 526 L671 526 Q615 464 554.5 404.5 Q494 345 416 278 Q437 252 458.5 218 Q480 184 499.5 147 Q519 110 535.5 72 Q552 34 563 0 L397 0 Q388 26 374.5 57 Q361 88 344.5 118.5 Q328 149 310 178 Q292 207 274 230 L218 0 L70 0 L250 752 L405 776 L299 336 Z " />
<glyph glyph-name="l" unicode="l" horiz-adv-x="315" d="M288 -10 Q217 -10 176.5 8.5 Q136 27 118.5 59 Q101 91 101.5 132.5 Q102 174 113 221 L240 752 L395 776 L256 200 Q252 182 251.5 167 Q251 152 257 140.5 Q263 129 277.5 122 Q292 115 318 113 L288 -10 Z " />
<glyph glyph-name="m" unicode="m" horiz-adv-x="846" d="M191 502 Q208 507 227.5 513.5 Q247 520 271.5 525.5 Q296 531 326.5 534.5 Q357 538 397 538 Q445 538 476.5 526 Q508 514 534 490 Q571 511 607.5 524.5 Q644 538 693 538 Q740 538 773.5 525.5 Q807 513 829 489.5 Q851 466 861 433.5 Q871 401 871 362 Q871 344 868.5 324 Q866 304 861 284 L793 0 L644 0 L710 278 Q713 292 716.5 309.5 Q720 327 720 344 Q720 372 707 392.5 Q694 413 656 413 Q635 413 616 405.5 Q597 398 582 390 Q584 382 584 375 Q584 368 584 362 Q584 344 581.5 324 Q579 304 574 284 L506 0 L357 0 L423 278 Q426 292 429.5 309.5 Q433 327 433 344 Q433 372 420 392.5 Q407 413 369 413 Q353 413 342 411.5 Q331 410 316 407 L219 0 L70 0 L191 502 Z " />
<glyph glyph-name="n" unicode="n" horiz-adv-x="567" d="M191 502 Q208 507 228.5 513.5 Q249 520 274.5 525.5 Q300 531 331.5 534.5 Q363 538 403 538 Q521 538 565 470 Q609 402 580 284 L512 0 L363 0 L429 278 Q435 304 438.5 328.5 Q442 353 438 371.5 Q434 390 419.5 401.5 Q405 413 375 413 Q346 413 316 407 L219 0 L70 0 L191 502 Z " />
<glyph glyph-name="o" unicode="o" horiz-adv-x="574" d="M308 -14 Q255 -14 216 2 Q177 18 151.5 47 Q126 76 113 115.5 Q100 155 100 203 Q100 263 119.5 323 Q139 383 177 431 Q215 479 270 509.5 Q325 540 396 540 Q448 540 487.5 524 Q527 508 552.5 479 Q578 450 591 410.5 Q604 371 604 323 Q604 263 585 203 Q566 143 529 95 Q492 47 436.5 16.5 Q381 -14 308 -14 Z M382 414 Q349 414 324 395 Q299 376 282 347 Q265 318 256.5 283.5 Q248 249 248 218 Q248 167 264 139.5 Q280 112 322 112 Q355 112 380 131 Q405 150 422 179 Q439 208 447.5 242.5 Q456 277 456 308 Q456 359 440 386.5 Q424 414 382 414 Z " />
<glyph glyph-name="p" unicode="p" horiz-adv-x="578" d="M245 116 Q262 112 287 112 Q326 112 358 126.5 Q390 141 412.5 167 Q435 193 447.5 229.5 Q460 266 460 310 Q460 353 441 383 Q422 413 375 413 Q343 413 315 407 L245 116 Z M608 321 Q608 248 584 187.5 Q560 127 517.5 83 Q475 39 415.5 14.5 Q356 -10 286 -10 Q252 -10 218 -4 L173 -185 L25 -185 L191 507 Q231 519 282.5 528.5 Q334 538 394 538 Q450 538 490.5 521 Q531 504 557 474.5 Q583 445 595.5 405.5 Q608 366 608 321 Z " />
<glyph glyph-name="q" unicode="q" horiz-adv-x="573" d="M100 204 Q100 282 126.5 344 Q153 406 199.5 449 Q246 492 308 515 Q370 538 442 538 Q535 538 633 499 L470 -185 L321 -185 L367 9 Q323 -10 277 -10 Q239 -10 206.5 4.5 Q174 19 150.5 46.5 Q127 74 113.5 114 Q100 154 100 204 Z M464 411 Q454 413 443 414 Q432 415 421 415 Q380 415 348 399 Q316 383 293.5 355.5 Q271 328 259.5 291.5 Q248 255 248 215 Q248 158 267 136 Q286 114 319 114 Q338 114 356.5 119.5 Q375 125 398 139 L464 411 Z " />
<glyph glyph-name="r" unicode="r" horiz-adv-x="426" d="M472 398 Q452 403 432.5 407.5 Q413 412 375 412 Q361 412 344 409.5 Q327 407 316 404 L219 0 L70 0 L190 498 Q233 512 286.5 524.5 Q340 537 407 537 Q432 537 462.5 532.5 Q493 528 516 518 L472 398 Z " />
<glyph glyph-name="s" unicode="s" horiz-adv-x="483" d="M241 106 Q292 106 311 120.5 Q330 135 330 152 Q330 163 326.5 171 Q323 179 315 186 Q307 193 293 200.5 Q279 208 257 218 Q232 229 210 241.5 Q188 254 171.5 271.5 Q155 289 145.5 311.5 Q136 334 136 365 Q136 446 195.5 493 Q255 540 369 540 Q423 540 465 528 Q507 516 533 502 L482 391 Q461 402 428 412 Q395 422 363 422 Q349 422 335.5 420.5 Q322 419 310.5 414 Q299 409 292 400 Q285 391 285 376 Q285 356 300.5 346 Q316 336 344 322 Q383 303 409 287 Q435 271 450.5 253 Q466 235 473 212 Q480 189 480 158 Q480 126 466.5 95 Q453 64 424 40 Q395 16 350 1 Q305 -14 242 -14 Q203 -14 171.5 -9 Q140 -4 116 3.5 Q92 11 75.5 19 Q59 27 50 32 L101 146 Q118 136 154 121 Q190 106 241 106 Z " />
<glyph glyph-name="t" unicode="t" horiz-adv-x="416" d="M213 657 L368 681 L330 526 L496 526 L466 404 L301 404 L257 220 Q251 197 249.5 177 Q248 157 254.5 142.5 Q261 128 277 120 Q293 112 321 112 Q345 112 367.5 116.5 Q390 121 413 129 L424 15 Q394 4 359 -4 Q324 -12 276 -12 Q207 -12 169 8.5 Q131 29 115 64.5 Q99 100 101 146 Q103 192 115 243 L213 657 Z " />
<glyph glyph-name="u" unicode="u" horiz-adv-x="581" d="M621 526 L550 227 Q536 170 542 112.5 Q548 55 565 10 L432 -9 Q421 13 411 40 Q383 18 348 3 Q313 -12 270 -12 Q211 -12 174.5 9.5 Q138 31 120 66.5 Q102 102 100.5 148 Q99 194 111 242 L179 526 L328 526 L261 244 Q256 222 252.5 199 Q249 176 252 156.5 Q255 137 267.5 124.5 Q280 112 307 112 Q330 112 349.5 120.5 Q369 129 391 150 Q393 175 397.5 202.5 Q402 230 407 253 L472 526 L621 526 Z " />
<glyph glyph-name="v" unicode="v" horiz-adv-x="546" d="M201 0 Q175 100 154 233.5 Q133 367 125 526 L279 526 Q280 487 282 440.5 Q284 394 287 347 Q290 300 294 255.5 Q298 211 303 175 Q325 205 352.5 249 Q380 293 406 341 Q432 389 454 437.5 Q476 486 488 526 L646 526 Q620 455 581.5 380 Q543 305 499 235 Q455 165 409.5 104 Q364 43 325 0 L201 0 Z " />
<glyph glyph-name="w" unicode="w" horiz-adv-x="816" d="M482 308 Q463 267 439.5 224.5 Q416 182 391.5 141.5 Q367 101 344 64.5 Q321 28 303 0 L187 0 Q179 42 170.5 100 Q162 158 154 226.5 Q146 295 139.5 371.5 Q133 448 130 526 L276 526 Q276 490 276.5 448 Q277 406 278.5 361 Q280 316 283 269 Q286 222 291 176 Q316 218 340.5 263.5 Q365 309 387.5 354.5 Q410 400 429.5 444 Q449 488 464 526 L588 526 Q588 454 590.5 365 Q593 276 603 176 Q630 221 653 268.5 Q676 316 695.5 362 Q715 408 730.5 450 Q746 492 758 526 L916 526 Q896 476 868.5 413.5 Q841 351 805 282 Q769 213 724 141 Q679 69 624 0 L508 0 Q496 82 490 157 Q484 232 482 308 Z " />
<glyph glyph-name="x" unicode="x" horiz-adv-x="549" d="M281 526 L357 362 Q391 404 421.5 444 Q452 484 480 526 L629 526 Q587 466 537 401.5 Q487 337 421 267 Q461 192 489 128.5 Q517 65 539 0 L392 0 Q374 49 356 90 Q338 131 321 166 L176 0 L20 0 L259 268 L130 526 L281 526 Z " />
<glyph glyph-name="y" unicode="y" horiz-adv-x="532" d="M632 526 Q604 450 575.5 384 Q547 318 516 258.5 Q485 199 452 145 Q419 91 382 38 Q355 -1 326 -41 Q297 -81 261.5 -113 Q226 -145 182.5 -165 Q139 -185 82 -185 Q47 -185 22 -178.5 Q-3 -172 -25 -161 L20 -44 Q40 -52 56 -56.5 Q72 -61 95 -61 Q130 -61 161.5 -38.5 Q193 -16 214 22 Q188 122 166.5 246 Q145 370 137 526 L290 526 Q291 487 294 440 Q297 393 301 345.5 Q305 298 310 253 Q315 208 321 172 Q369 244 405.5 332 Q442 420 474 526 L632 526 Z " />
<glyph glyph-name="z" unicode="z" horiz-adv-x="526" d="M582 427 Q559 407 522 372.5 Q485 338 442 296.5 Q399 255 354 209.5 Q309 164 270 122 L514 122 L484 0 L60 0 L81 87 Q110 123 147.5 165 Q185 207 225.5 250 Q266 293 306.5 332.5 Q347 372 382 404 L168 404 L198 526 L606 526 L582 427 Z " />
<glyph glyph-name="braceleft" unicode="&#x7b;" horiz-adv-x="371" d="M109 358 Q140 358 162 365 Q184 372 199 384.5 Q214 397 222.5 414 Q231 431 236 452 L272 603 Q283 648 302 682 Q321 716 352 738.5 Q383 761 428.5 772 Q474 783 537 783 L557 783 L528 664 L503 664 Q479 664 462.5 658.5 Q446 653 435 642.5 Q424 632 417.5 617 Q411 602 407 582 L376 449 Q370 423 362 401 Q354 379 340 360 Q326 341 304.5 326 Q283 311 250 299 Q285 283 298 260.5 Q311 238 311 209 Q311 186 303 149 L272 16 Q266 -8 266 -24 Q266 -47 280 -56.5 Q294 -66 328 -66 L353 -66 L324 -185 L304 -185 Q216 -185 169.5 -157.5 Q123 -130 123 -57 Q123 -27 134 22 L163 146 Q173 194 155 217 Q137 240 80 240 L109 358 Z " />
<glyph glyph-name="bar" unicode="&#x7c;" horiz-adv-x="304" d="M262 783 L404 783 L171 -185 L30 -185 L262 783 Z " />
<glyph glyph-name="braceright" unicode="&#x7d;" horiz-adv-x="371" d="M397 240 Q366 240 344 233 Q322 226 307 213.5 Q292 201 283.5 184 Q275 167 270 146 L234 -5 Q223 -50 204 -84 Q185 -118 154 -140.5 Q123 -163 77.5 -174 Q32 -185 -31 -185 L-51 -185 L-22 -66 L3 -66 Q28 -66 44 -61 Q60 -56 70.5 -45.5 Q81 -35 87.5 -19.5 Q94 -4 99 16 L130 149 Q136 175 144 197 Q152 219 166 238 Q180 257 201.5 272 Q223 287 256 299 Q221 315 208 337.5 Q195 360 195 389 Q195 412 203 449 L234 582 Q240 606 240 622 Q240 645 226 654.5 Q212 664 178 664 L153 664 L182 783 L202 783 Q290 783 336.5 755.5 Q383 728 383 655 Q383 625 372 576 L343 452 Q333 404 351 381 Q369 358 426 358 L397 240 Z " />
<glyph glyph-name="asciitilde" unicode="&#x7e;" horiz-adv-x="568" d="M428 196 Q395 196 370.5 208 Q346 220 326 234 Q306 248 287.5 260 Q269 272 247 272 Q238 272 230.5 270 Q223 268 215 260.5 Q207 253 198 238.5 Q189 224 177 199 L82 227 Q93 261 109.5 293 Q126 325 149.5 349.5 Q173 374 203.5 388.5 Q234 403 273 403 Q306 403 330.5 391 Q355 379 375 365 Q395 351 413.5 339 Q432 327 454 327 Q463 327 470.5 329 Q478 331 486 338.5 Q494 346 503 360.5 Q512 375 524 400 L619 372 Q605 334 588 302 Q571 270 548.5 246.5 Q526 223 496.5 209.5 Q467 196 428 196 Z " />
<glyph glyph-name="Euro" unicode="&#x20ac;" horiz-adv-x="568" d="M314 218 Q319 156 350 133 Q381 110 428 110 Q458 110 492.5 117 Q527 124 562 135 L568 18 Q526 3 485 -5.5 Q444 -14 402 -14 Q355 -14 313.5 -1.5 Q272 11 240 38.5 Q208 66 188.5 110.5 Q169 155 167 218 L85 218 L108 317 L172 317 Q174 334 177.5 350 Q181 366 185 382 L122 382 L146 481 L214 481 Q236 532 266.5 573.5 Q297 615 339 644.5 Q381 674 436.5 690 Q492 706 564 706 Q630 706 699 683 L640 567 Q590 584 542 584 Q472 584 431 556.5 Q390 529 364 481 L599 481 L556 382 L330 382 Q323 350 318 317 L528 317 L486 218 L314 218 Z " />
<glyph glyph-name="quotesinglbase" unicode="&#x201a;" horiz-adv-x="237" d="M232 154 Q231 140 228.5 125 Q226 110 224 103 Q208 36 169.5 -24.5 Q131 -85 86 -127 L-3 -90 Q32 -36 55.5 25.5 Q79 87 87 154 L232 154 Z " />
<glyph glyph-name="florin" unicode="&#x192;" horiz-adv-x="438" d="M8 -185 Q-20 -185 -47.5 -179.5 Q-75 -174 -97 -166 L-59 -48 Q-45 -53 -31.5 -56 Q-18 -59 -1 -59 Q34 -59 52 -38 Q70 -17 80 23 L206 554 Q231 660 296 718 Q361 776 479 776 Q524 776 557.5 766.5 Q591 757 608 749 L558 632 Q540 641 516.5 645.5 Q493 650 473 650 Q418 650 391.5 622 Q365 594 355 552 L349 526 L525 526 L495 404 L320 404 L228 19 Q203 -85 152.5 -135 Q102 -185 8 -185 Z " />
<glyph glyph-name="quotedblbase" unicode="&#x201e;" horiz-adv-x="453" d="M232 154 Q231 140 228.5 125 Q226 110 224 103 Q208 36 169.5 -24.5 Q131 -85 86 -127 L-3 -90 Q32 -36 55.5 25.5 Q79 87 87 154 L232 154 Z M447 154 Q446 140 443.5 125 Q441 110 439 103 Q423 36 384.5 -24.5 Q346 -85 301 -127 L212 -90 Q247 -36 270.5 25.5 Q294 87 302 154 L447 154 Z " />
<glyph glyph-name="ellipsis" unicode="&#x2026;" horiz-adv-x="946" d="M160 171 Q195 171 218.5 151.5 Q242 132 242 90 Q242 67 233.5 48 Q225 29 211 15.5 Q197 2 179 -5.5 Q161 -13 142 -13 Q107 -13 83.5 6.5 Q60 26 60 68 Q60 91 68.5 110 Q77 129 91 142.5 Q105 156 123 163.5 Q141 171 160 171 Z M507 171 Q542 171 565.5 151.5 Q589 132 589 90 Q589 67 580.5 48 Q572 29 558 15.5 Q544 2 526 -5.5 Q508 -13 489 -13 Q454 -13 430.5 6.5 Q407 26 407 68 Q407 91 415.5 110 Q424 129 438 142.5 Q452 156 470 163.5 Q488 171 507 171 Z M854 171 Q889 171 912.5 151.5 Q936 132 936 90 Q936 67 927.5 48 Q919 29 905 15.5 Q891 2 873 -5.5 Q855 -13 836 -13 Q801 -13 777.5 6.5 Q754 26 754 68 Q754 91 762.5 110 Q771 129 785 142.5 Q799 156 817 163.5 Q835 171 854 171 Z " />
<glyph glyph-name="dagger" unicode="&#x2020;" horiz-adv-x="487" d="M388 376 L333 148 Q313 67 292 -2.5 Q271 -72 243 -145 L160 -145 Q168 -72 179.5 -2.5 Q191 67 210 148 L265 376 L123 376 L153 491 L293 491 L341 693 L464 693 L416 491 L557 491 L527 376 L388 376 Z " />
<glyph glyph-name="daggerdbl" unicode="&#x2021;" horiz-adv-x="487" d="M324 110 Q306 41 287 -19 Q268 -79 243 -145 L160 -145 Q166 -81 175.5 -20 Q185 41 201 110 L60 110 L89 225 L229 225 L265 376 L123 376 L153 491 L293 491 L341 693 L464 693 L416 491 L557 491 L527 376 L388 376 L352 225 L493 225 L463 110 L324 110 Z " />
<glyph glyph-name="circumflex" unicode="&#x2c6;" horiz-adv-x="398" d="M499 629 L439 576 L356 654 L243 578 L197 639 L376 784 L499 629 Z " />
<glyph glyph-name="perthousand" unicode="&#x2030;" horiz-adv-x="1263" d="M281 417 Q297 417 312 426.5 Q327 436 338.5 454.5 Q350 473 357 499 Q364 525 364 558 Q364 585 350.5 599.5 Q337 614 316 614 Q300 614 284.5 604 Q269 594 257 576 Q245 558 237.5 531.5 Q230 505 230 472 Q230 445 245 431 Q260 417 281 417 Z M712 693 L856 693 L298 0 L154 0 L712 693 Z M324 709 Q390 709 432 673 Q474 637 474 562 Q474 505 457 460.5 Q440 416 411.5 385 Q383 354 346 337.5 Q309 321 270 321 Q204 321 162 357 Q120 393 120 468 Q120 525 137 569.5 Q154 614 182.5 645 Q211 676 248 692.5 Q285 709 324 709 Z M697 80 Q713 80 728 89.5 Q743 99 754.5 117.5 Q766 136 773 162 Q780 188 780 221 Q780 248 766.5 262.5 Q753 277 732 277 Q716 277 700.5 267 Q685 257 673 239 Q661 221 653.5 194.5 Q646 168 646 135 Q646 108 661 94 Q676 80 697 80 Z M740 372 Q806 372 848 336 Q890 300 890 225 Q890 168 873 123.5 Q856 79 827.5 48 Q799 17 762 0.5 Q725 -16 686 -16 Q620 -16 578 20 Q536 56 536 131 Q536 188 553 232.5 Q570 277 598.5 308 Q627 339 664 355.5 Q701 372 740 372 Z M1133 372 Q1199 372 1241 336 Q1283 300 1283 225 Q1283 168 1266 123.5 Q1249 79 1220.5 48 Q1192 17 1155 0.5 Q1118 -16 1079 -16 Q1013 -16 971 20 Q929 56 929 131 Q929 188 946 232.5 Q963 277 991.5 308 Q1020 339 1057 355.5 Q1094 372 1133 372 Z M1125 277 Q1109 277 1093.5 267 Q1078 257 1066 239 Q1054 221 1046.5 194.5 Q1039 168 1039 135 Q1039 108 1054 94 Q1069 80 1090 80 Q1106 80 1121 89.5 Q1136 99 1147.5 117.5 Q1159 136 1166 162 Q1173 188 1173 221 Q1173 248 1159.5 262.5 Q1146 277 1125 277 Z " />
<glyph glyph-name="Scaron" unicode="&#x160;" horiz-adv-x="559" d="M269 116 Q292 116 315 119.5 Q338 123 356 132 Q374 141 385.5 157.5 Q397 174 397 200 Q397 220 386 234.5 Q375 249 358 261 Q341 273 320 283 Q299 293 278 305 Q251 321 227 339 Q203 357 186 379.5 Q169 402 159 429.5 Q149 457 149 493 Q149 539 166.5 578.5 Q184 618 218.5 647 Q253 676 305 692.5 Q357 709 427 709 Q459 709 489 703.5 Q519 698 545 690 Q571 682 592.5 671.5 Q614 661 629 651 L564 536 Q539 555 503 568 Q467 581 425 581 Q402 581 381 577 Q360 573 344 563.5 Q328 554 318.5 539 Q309 524 309 502 Q309 482 316.5 468.5 Q324 455 336 445 Q348 435 364 427 Q380 419 398 410 Q429 394 458 376 Q487 358 509 334.5 Q531 311 544 281 Q557 251 557 210 Q557 153 536 111 Q515 69 477 41 Q439 13 386.5 -0.5 Q334 -14 270 -14 Q228 -14 191.5 -7 Q155 0 125.5 9.5 Q96 19 74.5 30 Q53 41 40 50 L106 169 Q118 161 135 152 Q152 143 173.5 135 Q195 127 219 121.5 Q243 116 269 116 Z M310 901 L370 954 L453 876 L566 952 L612 891 L433 746 L310 901 Z " />
<glyph glyph-name="guilsinglleft" unicode="&#x2039;" horiz-adv-x="343" d="M256 271 L328 90 L229 44 L100 290 L319 524 L413 468 L256 271 Z " />
<glyph glyph-name="OE" unicode="&#x152;" horiz-adv-x="985" d="M546 0 Q520 -4 492.5 -6 Q465 -8 437 -8 Q378 -8 322 4.5 Q266 17 221.5 48.5 Q177 80 150 134.5 Q123 189 123 274 Q123 376 157.5 455.5 Q192 535 254 589.5 Q316 644 400.5 672 Q485 700 586 700 Q612 700 643.5 698.5 Q675 697 702 693 L1085 693 L1053 562 L768 562 L736 426 L986 426 L955 298 L705 298 L665 131 L973 131 L941 0 L546 0 Z M558 570 Q487 570 435 543.5 Q383 517 348.5 476 Q314 435 297.5 384 Q281 333 281 285 Q281 252 290.5 222 Q300 192 320 169.5 Q340 147 371 134 Q402 121 445 121 Q477 121 513 127 L618 566 Q602 568 587 569 Q572 570 558 570 Z " />
<glyph glyph-name="quoteleft" unicode="&#x2018;" horiz-adv-x="237" d="M130 495 Q131 509 133.5 524 Q136 539 138 546 Q154 613 192.5 673.5 Q231 734 276 776 L368 741 Q333 687 308 625.5 Q283 564 275 495 L130 495 Z " />
<glyph glyph-name="quoteright" unicode="&#x2019;" horiz-adv-x="237" d="M355 767 Q354 753 351.5 738 Q349 723 347 716 Q331 649 292.5 588.5 Q254 528 209 486 L120 523 Q155 577 178.5 638.5 Q202 700 210 767 L355 767 Z " />
<glyph glyph-name="quotedblleft" unicode="&#x201c;" horiz-adv-x="453" d="M130 495 Q131 509 133.5 524 Q136 539 138 546 Q154 613 192.5 673.5 Q231 734 276 776 L368 741 Q333 687 308 625.5 Q283 564 275 495 L130 495 Z M347 495 Q348 509 350.5 524 Q353 539 355 546 Q371 613 409.5 673.5 Q448 734 493 776 L585 741 Q550 687 525 625.5 Q500 564 492 495 L347 495 Z " />
<glyph glyph-name="quotedblright" unicode="&#x201d;" horiz-adv-x="453" d="M355 767 Q354 753 351.5 738 Q349 723 347 716 Q331 649 292.5 588.5 Q254 528 209 486 L120 523 Q155 577 178.5 638.5 Q202 700 210 767 L355 767 Z M571 767 Q570 753 567.5 738 Q565 723 563 716 Q547 649 508.5 588.5 Q470 528 425 486 L336 523 Q371 577 394.5 638.5 Q418 700 426 767 L571 767 Z " />
<glyph glyph-name="bullet" unicode="&#x2022;" horiz-adv-x="388" d="M408 353 Q408 324 398 298.5 Q388 273 369 253.5 Q350 234 323.5 222.5 Q297 211 264 211 Q231 211 204.5 222.5 Q178 234 159 253.5 Q140 273 130 298.5 Q120 324 120 353 Q120 381 130 407 Q140 433 159 452.5 Q178 472 204.5 483.5 Q231 495 264 495 Q297 495 323.5 483.5 Q350 472 369 452.5 Q388 433 398 407 Q408 381 408 353 Z " />
<glyph glyph-name="endash" unicode="&#x2013;" horiz-adv-x="508" d="M88 361 L588 361 L559 237 L60 237 L88 361 Z " />
<glyph glyph-name="emdash" unicode="&#x2014;" horiz-adv-x="1008" d="M88 361 L1088 361 L1059 237 L60 237 L88 361 Z " />
<glyph glyph-name="tilde" unicode="&#x2dc;" horiz-adv-x="373" d="M396 607 Q377 607 362 612.5 Q347 618 334 624.5 Q321 631 309 636.5 Q297 642 285 642 Q271 642 259.5 634 Q248 626 231 601 L164 642 Q187 696 219 722.5 Q251 749 297 749 Q316 749 331 743.5 Q346 738 359 731.5 Q372 725 384 719.5 Q396 714 408 714 Q422 714 433.5 722 Q445 730 462 755 L529 714 Q506 660 474 633.5 Q442 607 396 607 Z " />
<glyph glyph-name="trademark" unicode="&#x2122;" horiz-adv-x="854" d="M442 693 L442 590 L340 590 L340 341 L222 341 L222 590 L120 590 L120 693 L442 693 Z M881 693 Q891 634 898.5 549.5 Q906 465 914 341 L799 341 L795 528 L736 378 L657 378 L598 527 Q598 495 597.5 463.5 Q597 432 596.5 406 Q596 380 595.5 362 Q595 344 595 341 L481 341 Q488 465 496 549.5 Q504 634 512 693 L618 693 Q639 648 658 601.5 Q677 555 697 510 Q717 555 737.5 605 Q758 655 774 693 L881 693 Z " />
<glyph glyph-name="scaron" unicode="&#x161;" horiz-adv-x="483" d="M241 106 Q292 106 311 120.5 Q330 135 330 152 Q330 163 326.5 171 Q323 179 315 186 Q307 193 293 200.5 Q279 208 257 218 Q232 229 210 241.5 Q188 254 171.5 271.5 Q155 289 145.5 311.5 Q136 334 136 365 Q136 446 195.5 493 Q255 540 369 540 Q423 540 465 528 Q507 516 533 502 L482 391 Q461 402 428 412 Q395 422 363 422 Q349 422 335.5 420.5 Q322 419 310.5 414 Q299 409 292 400 Q285 391 285 376 Q285 356 300.5 346 Q316 336 344 322 Q383 303 409 287 Q435 271 450.5 253 Q466 235 473 212 Q480 189 480 158 Q480 126 466.5 95 Q453 64 424 40 Q395 16 350 1 Q305 -14 242 -14 Q203 -14 171.5 -9 Q140 -4 116 3.5 Q92 11 75.5 19 Q59 27 50 32 L101 146 Q118 136 154 121 Q190 106 241 106 Z M257 740 L317 793 L400 715 L513 791 L559 730 L380 585 L257 740 Z " />
<glyph glyph-name="guilsinglright" unicode="&#x203a;" horiz-adv-x="344" d="M218 297 L146 478 L245 524 L374 278 L155 44 L61 100 L218 297 Z " />
<glyph glyph-name="oe" unicode="&#x153;" horiz-adv-x="869" d="M308 -14 Q256 -14 217 2 Q178 18 152 46.5 Q126 75 113 114 Q100 153 100 200 Q100 260 119.5 320.5 Q139 381 177 430 Q215 479 270.5 509.5 Q326 540 398 540 Q449 540 492 518.5 Q535 497 560 454 Q600 496 648 518 Q696 540 754 540 Q789 540 819 530 Q849 520 871.5 501 Q894 482 906.5 454.5 Q919 427 919 392 Q919 336 894 297 Q869 258 824.5 233.5 Q780 209 719 198 Q658 187 586 187 Q593 145 616.5 127.5 Q640 110 691 110 Q723 110 756 115.5 Q789 121 818 132 L829 15 Q801 4 757.5 -5 Q714 -14 663 -14 Q600 -14 557 9.5 Q514 33 488 68 Q458 33 411.5 9.5 Q365 -14 308 -14 Z M382 414 Q349 414 324 395 Q299 376 282 347 Q265 318 256.5 283.5 Q248 249 248 218 Q248 167 264 139.5 Q280 112 322 112 Q355 112 380 131 Q405 150 422 179 Q439 208 447.5 242.5 Q456 277 456 308 Q456 359 440 386.5 Q424 414 382 414 Z M730 422 Q679 422 640.5 385.5 Q602 349 590 289 Q652 291 690 299.5 Q728 308 749 320 Q770 332 777 346 Q784 360 784 374 Q784 422 730 422 Z " />
<glyph glyph-name="Ydieresis" unicode="&#x178;" horiz-adv-x="652" d="M413 408 Q442 445 468.5 479.5 Q495 514 520 548.5 Q545 583 569.5 618.5 Q594 654 620 693 L792 693 Q750 634 711 581 Q672 528 633 477.5 Q594 427 553 377 Q512 327 466 274 L400 0 L244 0 L310 274 Q268 380 234 481 Q200 582 170 693 L336 693 Q352 621 371 552 Q390 483 413 408 Z M371 762 Q342 762 323 780 Q304 798 304 828 Q304 847 311 863 Q318 879 329.5 890 Q341 901 355.5 907.5 Q370 914 385 914 Q413 914 433 895.5 Q453 877 453 846 Q453 828 445.5 812.5 Q438 797 426 785.5 Q414 774 399.5 768 Q385 762 371 762 Z M593 762 Q564 762 545 780 Q526 798 526 828 Q526 847 533 863 Q540 879 551.5 890 Q563 901 577.5 907.5 Q592 914 607 914 Q635 914 655 895.5 Q675 877 675 846 Q675 828 667.5 812.5 Q660 797 648 785.5 Q636 774 621.5 768 Q607 762 593 762 Z " />
<glyph glyph-name="uni00A0" unicode="&#xa0;" horiz-adv-x="240" d="" />
<glyph glyph-name="exclamdown" unicode="&#xa1;" horiz-adv-x="295" d="M75 4 Q95 85 117.5 155 Q140 225 167 297 L281 297 Q273 225 263 155 Q253 85 234 4 L191 -175 L32 -175 L75 4 Z M243 347 Q208 347 184.5 366.5 Q161 386 161 428 Q161 451 169.5 470 Q178 489 192 502.5 Q206 516 224 523.5 Q242 531 261 531 Q296 531 319.5 511.5 Q343 492 343 450 Q343 427 334.5 408 Q326 389 312 375.5 Q298 362 280 354.5 Q262 347 243 347 Z " />
<glyph glyph-name="cent" unicode="&#xa2;" horiz-adv-x="568" d="M517 59 Q488 47 457 39.5 Q426 32 396 29 L363 -109 L221 -109 L258 45 Q207 66 176.5 111 Q146 156 146 234 Q146 298 164 350.5 Q182 403 213.5 443 Q245 483 287 510 Q329 537 377 549 L412 693 L554 693 L520 553 Q564 544 603 522 L553 407 Q529 421 504 427 Q479 433 456 433 Q422 433 393.5 420 Q365 407 344 382.5 Q323 358 311.5 321.5 Q300 285 300 239 Q300 189 325.5 170.5 Q351 152 387 152 Q416 152 448 160 Q480 168 506 178 L517 59 Z " />
<glyph glyph-name="sterling" unicode="&#xa3;" horiz-adv-x="568" d="M374 394 L550 394 L521 272 L345 272 Q336 237 323 197.5 Q310 158 297 125 L568 125 L538 0 L104 0 Q140 81 162.5 148 Q185 215 200 272 L113 272 L142 394 L229 394 L254 490 Q270 550 297.5 591.5 Q325 633 360 658.5 Q395 684 435.5 695 Q476 706 520 706 Q565 706 603.5 696 Q642 686 674 669 L614 559 Q563 582 519 582 Q498 582 478.5 577 Q459 572 442.5 558.5 Q426 545 412.5 521 Q399 497 390 459 L374 394 Z " />
<glyph glyph-name="currency" unicode="&#xa4;" horiz-adv-x="568" d="M354 544 Q379 544 401.5 540 Q424 536 446 526 L520 597 L613 506 L541 437 Q562 398 562 347 Q562 296 541 257 L613 188 L519 96 L445 168 Q424 158 402 154 Q380 150 354 150 Q329 150 306.5 154 Q284 158 262 168 L188 97 L95 188 L167 257 Q146 296 146 347 Q146 398 167 437 L95 506 L189 598 L263 526 Q284 536 306 540 Q328 544 354 544 Z M436 347 Q436 390 412 412 Q388 434 354 434 Q320 434 296 412 Q272 390 272 347 Q272 304 296 282 Q320 260 354 260 Q388 260 412 282 Q436 304 436 347 Z " />
<glyph glyph-name="yen" unicode="&#xa5;" horiz-adv-x="568" d="M385 431 Q436 497 481 557.5 Q526 618 574 693 L736 693 Q680 609 620 531 Q560 453 492 370 L593 370 L570 275 L424 275 L408 206 L554 206 L531 111 L385 111 L358 0 L202 0 L229 111 L84 111 L107 206 L252 206 L268 275 L123 275 L146 370 L261 370 Q245 411 229.5 453.5 Q214 496 200 538 Q186 580 174.5 619.5 Q163 659 155 693 L311 693 Q318 657 326 625.5 Q334 594 343 563 Q352 532 362.5 499.5 Q373 467 385 431 Z " />
<glyph glyph-name="brokenbar" unicode="&#xa6;" horiz-adv-x="302" d="M119 212 L261 212 L165 -185 L24 -185 L119 212 Z M256 783 L398 783 L302 386 L160 386 L256 783 Z " />
<glyph glyph-name="section" unicode="&#xa7;" horiz-adv-x="515" d="M111 287 Q111 335 143.5 382.5 Q176 430 230 462 Q202 496 202 543 Q202 574 217 604 Q232 634 261 657 Q290 680 334 694.5 Q378 709 436 709 Q481 709 523.5 699 Q566 689 600 669 L549 563 Q518 579 489 586 Q460 593 434 593 Q392 593 367.5 578 Q343 563 343 540 Q343 529 351 518.5 Q359 508 379 498 L454 460 Q505 434 526.5 400.5 Q548 367 548 330 Q548 282 518 237 Q488 192 440 163 L427 155 Q457 114 457 71 Q457 38 442.5 5.5 Q428 -27 398 -52.5 Q368 -78 321.5 -94 Q275 -110 212 -110 Q164 -110 116 -99 Q68 -88 36 -66 L87 40 Q148 6 210 6 Q267 6 291.5 25 Q316 44 316 67 Q316 83 306.5 97.5 Q297 112 280 120 L205 158 Q154 183 132.5 216.5 Q111 250 111 287 Z M243 311 Q243 291 257.5 271.5 Q272 252 307 235 L350 214 Q380 234 398 257 Q416 280 416 305 Q416 327 399 348 Q382 369 344 387 L309 403 Q280 384 261.5 360 Q243 336 243 311 Z " />
<glyph glyph-name="dieresis" unicode="&#xa8;" horiz-adv-x="536" d="M298 602 Q269 602 250 620 Q231 638 231 668 Q231 687 238 703 Q245 719 256.5 730 Q268 741 282.5 747.5 Q297 754 312 754 Q340 754 360 735.5 Q380 717 380 686 Q380 668 372.5 652.5 Q365 637 353 625.5 Q341 614 326.5 608 Q312 602 298 602 Z M520 602 Q491 602 472 620 Q453 638 453 668 Q453 687 460 703 Q467 719 478.5 730 Q490 741 504.5 747.5 Q519 754 534 754 Q562 754 582 735.5 Q602 717 602 686 Q602 668 594.5 652.5 Q587 637 575 625.5 Q563 614 548.5 608 Q534 602 520 602 Z " />
<glyph glyph-name="copyright" unicode="&#xa9;" horiz-adv-x="796" d="M816 347 Q816 261 787.5 194 Q759 127 711 80.5 Q663 34 600 9.5 Q537 -15 468 -15 Q399 -15 336 9.5 Q273 34 225 80.5 Q177 127 148.5 194 Q120 261 120 347 Q120 432 148.5 499.5 Q177 567 225 613.5 Q273 660 336 684.5 Q399 709 468 709 Q537 709 600 684.5 Q663 660 711 613.5 Q759 567 787.5 499.5 Q816 432 816 347 Z M714 347 Q714 407 696 456 Q678 505 645.5 540 Q613 575 567.5 594 Q522 613 468 613 Q414 613 368.5 594 Q323 575 290.5 540 Q258 505 240 456 Q222 407 222 347 Q222 287 240 238 Q258 189 290.5 154 Q323 119 368.5 100 Q414 81 468 81 Q522 81 567.5 100 Q613 119 645.5 154 Q678 189 696 238 Q714 287 714 347 Z M484 160 Q394 160 347.5 209 Q301 258 301 349 Q301 440 350.5 488.5 Q400 537 481 537 Q529 537 558.5 524 Q588 511 599 505 L567 417 Q553 425 535.5 430.5 Q518 436 490 436 Q457 436 437 415 Q417 394 417 354 Q417 336 420 319.5 Q423 303 431 290.5 Q439 278 453 270 Q467 262 490 262 Q520 262 540 269 Q560 276 576 282 L604 191 Q591 184 560 172 Q529 160 484 160 Z " />
<glyph glyph-name="ordfeminine" unicode="&#xaa;" horiz-adv-x="472" d="M415 607 Q408 608 401.5 608.5 Q395 609 389 609 Q362 609 338 600 Q314 591 295.5 573.5 Q277 556 266.5 532 Q256 508 256 478 Q256 448 271.5 426.5 Q287 405 319 405 Q333 405 348 410 Q363 415 379 427 Q378 430 378 441 Q378 456 381 472 Q384 488 388 503 L415 607 Z M498 504 Q488 470 485 424.5 Q482 379 504 322 L410 309 L397 340 Q344 305 292 305 Q257 305 230.5 318 Q204 331 186 353.5 Q168 376 159 405.5 Q150 435 150 467 Q150 509 166 552 Q182 595 214.5 629.5 Q247 664 296.5 686 Q346 708 414 708 Q443 708 475 704 Q507 700 542 690 L498 504 Z " />
<glyph glyph-name="guillemotleft" unicode="&#xab;" horiz-adv-x="613" d="M256 271 L328 90 L229 44 L100 290 L319 524 L413 468 L256 271 Z M526 271 L598 90 L499 44 L370 290 L589 524 L683 468 L526 271 Z " />
<glyph glyph-name="logicalnot" unicode="&#xac;" horiz-adv-x="568" d="M514 51 L378 51 L435 285 L101 285 L131 410 L601 410 L514 51 Z " />
<glyph glyph-name="uni00AD" unicode="&#xad;" horiz-adv-x="343" d="M106 366 L396 366 L363 231 L73 231 L106 366 Z " />
<glyph glyph-name="registered" unicode="&#xae;" horiz-adv-x="796" d="M816 347 Q816 261 787.5 194 Q759 127 711 80.5 Q663 34 600 9.5 Q537 -15 468 -15 Q399 -15 336 9.5 Q273 34 225 80.5 Q177 127 148.5 194 Q120 261 120 347 Q120 432 148.5 499.5 Q177 567 225 613.5 Q273 660 336 684.5 Q399 709 468 709 Q537 709 600 684.5 Q663 660 711 613.5 Q759 567 787.5 499.5 Q816 432 816 347 Z M714 347 Q714 407 696 456 Q678 505 645.5 540 Q613 575 567.5 594 Q522 613 468 613 Q414 613 368.5 594 Q323 575 290.5 540 Q258 505 240 456 Q222 407 222 347 Q222 287 240 238 Q258 189 290.5 154 Q323 119 368.5 100 Q414 81 468 81 Q522 81 567.5 100 Q613 119 645.5 154 Q678 189 696 238 Q714 287 714 347 Z M529 177 Q512 215 500 243.5 Q488 272 473 295 L433 295 L433 177 L336 177 L336 519 Q370 527 399.5 530.5 Q429 534 451 534 Q612 534 612 413 Q612 351 558 322 Q569 305 577.5 289.5 Q586 274 594.5 257.5 Q603 241 611.5 221.5 Q620 202 631 177 L529 177 Z M433 373 L451 373 Q483 373 499 381.5 Q515 390 515 414 Q515 434 501 442 Q487 450 460 450 Q453 450 445.5 449.5 Q438 449 433 448 L433 373 Z " />
<glyph glyph-name="macron" unicode="&#xaf;" horiz-adv-x="376" d="M196 725 L518 725 L493 623 L171 623 L196 725 Z " />
<glyph glyph-name="degree" unicode="&#xb0;" horiz-adv-x="382" d="M321 781 Q353 781 382.5 770.5 Q412 760 434 739.5 Q456 719 469 690.5 Q482 662 482 626 Q482 590 469 561.5 Q456 533 434 512.5 Q412 492 382.5 481.5 Q353 471 321 471 Q289 471 259.5 481.5 Q230 492 208 512.5 Q186 533 173 561.5 Q160 590 160 626 Q160 662 173 690.5 Q186 719 208 739.5 Q230 760 259.5 770.5 Q289 781 321 781 Z M321 569 Q342 569 359 584.5 Q376 600 376 626 Q376 652 359 667.5 Q342 683 321 683 Q300 683 283 667.5 Q266 652 266 626 Q266 600 283 584.5 Q300 569 321 569 Z " />
<glyph glyph-name="plusminus" unicode="&#xb1;" horiz-adv-x="568" d="M153 455 L320 455 L361 625 L497 625 L456 455 L623 455 L593 330 L426 330 L385 160 L249 160 L290 330 L123 330 L153 455 Z M73 125 L543 125 L513 0 L44 0 L73 125 Z " />
<glyph glyph-name="twosuperior" unicode="&#xb2;" horiz-adv-x="363" d="M411 393 L391 302 L104 302 Q104 333 110 359.5 Q116 386 131 410 Q146 434 172.5 456.5 Q199 479 241 502 Q270 518 287 529.5 Q304 541 313 550.5 Q322 560 324.5 568.5 Q327 577 327 587 Q327 600 317 608 Q307 616 290 616 Q271 616 245.5 605 Q220 594 188 568 L151 647 Q219 709 310 709 Q335 709 357.5 703 Q380 697 397 684.5 Q414 672 424 652 Q434 632 434 605 Q434 559 410 524.5 Q386 490 332 456 Q318 447 304 438.5 Q290 430 277.5 421.5 Q265 413 256 406 Q247 399 244 393 L411 393 Z " />
<glyph glyph-name="threesuperior" unicode="&#xb3;" horiz-adv-x="363" d="M132 410 Q151 398 180 390.5 Q209 383 238 383 Q270 383 294 394 Q318 405 318 431 Q318 448 303 457.5 Q288 467 255 467 L204 467 L224 544 L269 544 Q301 544 318.5 559 Q336 574 336 591 Q336 603 325 612 Q314 621 290 621 Q265 621 239 613 Q213 605 193 595 L172 675 Q197 688 236.5 698.5 Q276 709 316 709 Q340 709 361.5 704.5 Q383 700 399.5 688.5 Q416 677 425.5 658.5 Q435 640 435 613 Q435 584 418 556 Q401 528 369 514 Q391 503 404 480.5 Q417 458 417 431 Q417 393 401 367 Q385 341 359 324.5 Q333 308 299.5 300.5 Q266 293 232 293 Q192 293 155 301.5 Q118 310 92 326 L132 410 Z " />
<glyph glyph-name="acute" unicode="&#xb4;" horiz-adv-x="286" d="M414 712 L237 576 L177 638 L337 799 L414 712 Z " />
<glyph glyph-name="mu" unicode="&#xb5;" horiz-adv-x="632" d="M652 526 L581 227 Q576 207 572.5 190.5 Q569 174 569 161 Q569 138 582 126.5 Q595 115 630 113 L581 -11 Q518 -10 486 4.5 Q454 19 440 40 Q407 16 370.5 2 Q334 -12 299 -12 Q277 -12 256 -5.5 Q235 1 217 15 Q217 -8 214 -30 Q211 -52 202 -89 L183 -166 L35 -166 L200 526 L349 526 L282 244 Q278 227 274.5 208.5 Q271 190 270 173 Q270 147 283.5 129.5 Q297 112 338 112 Q351 112 372 118.5 Q393 125 422 151 Q424 176 428.5 203.5 Q433 231 438 253 L503 526 L652 526 Z " />
<glyph glyph-name="paragraph" unicode="&#xb6;" horiz-adv-x="710" d="M309 258 Q237 269 196 314 Q155 359 155 437 Q155 501 185 550.5 Q215 600 269.5 633 Q324 666 401.5 683 Q479 700 575 700 Q621 700 669 696 Q717 692 771 683 L563 -185 L421 -185 L605 582 Q591 584 571 585 Q551 586 529 586 L344 -185 L202 -185 L309 258 Z " />
<glyph glyph-name="periodcentered" unicode="&#xb7;" horiz-adv-x="242" d="M198 387 Q233 387 256.5 367.5 Q280 348 280 306 Q280 283 271.5 264 Q263 245 249 231.5 Q235 218 217 210.5 Q199 203 180 203 Q145 203 121.5 222.5 Q98 242 98 284 Q98 307 106.5 326 Q115 345 129 358.5 Q143 372 161 379.5 Q179 387 198 387 Z " />
<glyph glyph-name="cedilla" unicode="&#xb8;" horiz-adv-x="326" d="M194 -44 Q216 -55 227 -73 Q238 -91 238 -111 Q238 -140 226.5 -161 Q215 -182 195.5 -195.5 Q176 -209 151 -215 Q126 -221 100 -221 Q73 -221 46.5 -215 Q20 -209 -1 -198 L35 -116 Q48 -122 64.5 -126 Q81 -130 96 -130 Q136 -130 136 -106 Q136 -95 129 -88 Q122 -81 106 -74 L86 -65 Q92 -55 101 -42.5 Q110 -30 118.5 -17.5 Q127 -5 134.5 5 Q142 15 145 20 L239 20 Q235 15 229 6.5 Q223 -2 216.5 -11 Q210 -20 204 -29 Q198 -38 194 -44 Z " />
<glyph glyph-name="onesuperior" unicode="&#xb9;" horiz-adv-x="363" d="M156 618 Q204 635 247.5 656.5 Q291 678 326 701 L413 701 L318 302 L204 302 L268 572 Q246 561 222.5 551.5 Q199 542 167 531 L156 618 Z " />
<glyph glyph-name="ordmasculine" unicode="&#xba;" horiz-adv-x="439" d="M244 456 Q244 437 249 425.5 Q254 414 262 407.5 Q270 401 280.5 398.5 Q291 396 302 396 Q324 396 344.5 408.5 Q365 421 380.5 443 Q396 465 405.5 494.5 Q415 524 415 559 Q415 577 410 589 Q405 601 397 607.5 Q389 614 378.5 616.5 Q368 619 357 619 Q335 619 314.5 606.5 Q294 594 278.5 572 Q263 550 253.5 520 Q244 490 244 456 Z M140 448 Q140 498 154.5 545 Q169 592 197.5 628.5 Q226 665 269 687 Q312 709 368 709 Q446 709 482.5 671 Q519 633 519 567 Q519 517 504.5 470 Q490 423 461.5 386.5 Q433 350 390 328 Q347 306 291 306 Q213 306 176.5 344 Q140 382 140 448 Z " />
<glyph glyph-name="guillemotright" unicode="&#xbb;" horiz-adv-x="613" d="M218 297 L146 478 L245 524 L374 278 L155 44 L61 100 L218 297 Z M487 297 L415 478 L514 524 L643 278 L424 44 L330 100 L487 297 Z " />
<glyph glyph-name="onequarter" unicode="&#xbc;" horiz-adv-x="878" d="M137 618 Q185 635 228.5 656.5 Q272 678 307 701 L394 701 L299 302 L185 302 L249 572 Q227 561 203.5 551.5 Q180 542 148 531 L137 618 Z M831 693 L310 0 L172 0 L695 693 L831 693 Z M874 401 L818 170 L864 170 L845 90 L799 90 L777 1 L683 1 L705 90 L515 90 L530 159 Q585 230 645.5 289.5 Q706 349 781 401 L874 401 Z M755 297 Q724 270 691.5 237.5 Q659 205 633 170 L724 170 L755 297 Z " />
<glyph glyph-name="onehalf" unicode="&#xbd;" horiz-adv-x="878" d="M147 618 Q195 635 238.5 656.5 Q282 678 317 701 L404 701 L309 302 L195 302 L259 572 Q237 561 213.5 551.5 Q190 542 158 531 L147 618 Z M813 693 L292 0 L154 0 L677 693 L813 693 Z M875 93 L855 2 L568 2 Q568 33 574 59.5 Q580 86 595 110 Q610 134 636.5 156.5 Q663 179 705 202 Q734 218 751 229.5 Q768 241 777 250.5 Q786 260 788.5 268.5 Q791 277 791 287 Q791 300 781 308 Q771 316 754 316 Q735 316 709.5 305 Q684 294 652 268 L615 347 Q683 409 774 409 Q799 409 821.5 403 Q844 397 861 384.5 Q878 372 888 352 Q898 332 898 305 Q898 259 874 224.5 Q850 190 796 156 Q782 147 768 138.5 Q754 130 741.5 121.5 Q729 113 720 106 Q711 99 708 93 L875 93 Z " />
<glyph glyph-name="threequarters" unicode="&#xbe;" horiz-adv-x="878" d="M123 410 Q142 398 171 390.5 Q200 383 229 383 Q261 383 285 394 Q309 405 309 431 Q309 448 294 457.5 Q279 467 246 467 L195 467 L215 544 L260 544 Q292 544 309.5 559 Q327 574 327 591 Q327 603 316 612 Q305 621 281 621 Q256 621 230 613 Q204 605 184 595 L163 675 Q188 688 227.5 698.5 Q267 709 307 709 Q331 709 352.5 704.5 Q374 700 390.5 688.5 Q407 677 416.5 658.5 Q426 640 426 613 Q426 584 409 556 Q392 528 360 514 Q382 503 395 480.5 Q408 458 408 431 Q408 393 392 367 Q376 341 350 324.5 Q324 308 290.5 300.5 Q257 293 223 293 Q183 293 146 301.5 Q109 310 83 326 L123 410 Z M851 693 L330 0 L192 0 L715 693 L851 693 Z M894 401 L838 170 L884 170 L865 90 L819 90 L797 1 L703 1 L725 90 L535 90 L550 159 Q605 230 665.5 289.5 Q726 349 801 401 L894 401 Z M775 297 Q744 270 711.5 237.5 Q679 205 653 170 L744 170 L775 297 Z " />
<glyph glyph-name="questiondown" unicode="&#xbf;" horiz-adv-x="430" d="M298 106 Q268 83 246.5 66 Q225 49 211.5 34.5 Q198 20 192 7.5 Q186 -5 186 -20 Q186 -46 204.5 -58 Q223 -70 251 -70 Q269 -70 289 -66.5 Q309 -63 328 -57.5 Q347 -52 364 -45 Q381 -38 394 -30 L413 -147 Q374 -169 323.5 -182.5 Q273 -196 222 -196 Q186 -196 153 -187 Q120 -178 95 -159.5 Q70 -141 55 -113.5 Q40 -86 40 -50 Q40 -7 53.5 25 Q67 57 88 82 Q109 107 135.5 127.5 Q162 148 188 168 Q226 196 254.5 225 Q283 254 287 292 L419 292 Q419 260 409.5 234.5 Q400 209 383.5 186.5 Q367 164 345 144.5 Q323 125 298 106 Z M367 342 Q332 342 308.5 361.5 Q285 381 285 423 Q285 446 293.5 465 Q302 484 316 497.5 Q330 511 348 518.5 Q366 526 385 526 Q420 526 443.5 506.5 Q467 487 467 445 Q467 422 458.5 403 Q450 384 436 370.5 Q422 357 404 349.5 Q386 342 367 342 Z " />
<glyph glyph-name="Agrave" unicode="&#xc0;" horiz-adv-x="714" d="M532 0 Q530 39 527.5 76.5 Q525 114 522 151 L262 151 Q242 114 220 76.5 Q198 39 178 0 L15 0 Q80 112 136.5 207 Q193 302 245.5 386 Q298 470 348 545.5 Q398 621 450 693 L589 693 Q605 621 619.5 533.5 Q634 446 646.5 354.5 Q659 263 669.5 171.5 Q680 80 689 0 L532 0 Z M486 541 Q444 474 403.5 408 Q363 342 325 273 L512 273 Q507 334 501.5 403 Q496 472 486 541 Z M464 959 L599 794 L535 736 L372 880 L464 959 Z " />
<glyph glyph-name="Aacute" unicode="&#xc1;" horiz-adv-x="714" d="M532 0 Q530 39 527.5 76.5 Q525 114 522 151 L262 151 Q242 114 220 76.5 Q198 39 178 0 L15 0 Q80 112 136.5 207 Q193 302 245.5 386 Q298 470 348 545.5 Q398 621 450 693 L589 693 Q605 621 619.5 533.5 Q634 446 646.5 354.5 Q659 263 669.5 171.5 Q680 80 689 0 L532 0 Z M486 541 Q444 474 403.5 408 Q363 342 325 273 L512 273 Q507 334 501.5 403 Q496 472 486 541 Z M653 872 L476 736 L416 798 L576 959 L653 872 Z " />
<glyph glyph-name="Acircumflex" unicode="&#xc2;" horiz-adv-x="714" d="M532 0 Q530 39 527.5 76.5 Q525 114 522 151 L262 151 Q242 114 220 76.5 Q198 39 178 0 L15 0 Q80 112 136.5 207 Q193 302 245.5 386 Q298 470 348 545.5 Q398 621 450 693 L589 693 Q605 621 619.5 533.5 Q634 446 646.5 354.5 Q659 263 669.5 171.5 Q680 80 689 0 L532 0 Z M486 541 Q444 474 403.5 408 Q363 342 325 273 L512 273 Q507 334 501.5 403 Q496 472 486 541 Z M689 795 L629 742 L546 820 L433 744 L387 805 L566 950 L689 795 Z " />
<glyph glyph-name="Atilde" unicode="&#xc3;" horiz-adv-x="714" d="M532 0 Q530 39 527.5 76.5 Q525 114 522 151 L262 151 Q242 114 220 76.5 Q198 39 178 0 L15 0 Q80 112 136.5 207 Q193 302 245.5 386 Q298 470 348 545.5 Q398 621 450 693 L589 693 Q605 621 619.5 533.5 Q634 446 646.5 354.5 Q659 263 669.5 171.5 Q680 80 689 0 L532 0 Z M486 541 Q444 474 403.5 408 Q363 342 325 273 L512 273 Q507 334 501.5 403 Q496 472 486 541 Z M596 770 Q577 770 562 775.5 Q547 781 534 787.5 Q521 794 509 799.5 Q497 805 485 805 Q471 805 459.5 797 Q448 789 431 764 L364 805 Q387 859 419 885.5 Q451 912 497 912 Q516 912 531 906.5 Q546 901 559 894.5 Q572 888 584 882.5 Q596 877 608 877 Q622 877 633.5 885 Q645 893 662 918 L729 877 Q706 823 674 796.5 Q642 770 596 770 Z " />
<glyph glyph-name="Adieresis" unicode="&#xc4;" horiz-adv-x="714" d="M532 0 Q530 39 527.5 76.5 Q525 114 522 151 L262 151 Q242 114 220 76.5 Q198 39 178 0 L15 0 Q80 112 136.5 207 Q193 302 245.5 386 Q298 470 348 545.5 Q398 621 450 693 L589 693 Q605 621 619.5 533.5 Q634 446 646.5 354.5 Q659 263 669.5 171.5 Q680 80 689 0 L532 0 Z M486 541 Q444 474 403.5 408 Q363 342 325 273 L512 273 Q507 334 501.5 403 Q496 472 486 541 Z M432 762 Q403 762 384 780 Q365 798 365 828 Q365 847 372 863 Q379 879 390.5 890 Q402 901 416.5 907.5 Q431 914 446 914 Q474 914 494 895.5 Q514 877 514 846 Q514 828 506.5 812.5 Q499 797 487 785.5 Q475 774 460.5 768 Q446 762 432 762 Z M654 762 Q625 762 606 780 Q587 798 587 828 Q587 847 594 863 Q601 879 612.5 890 Q624 901 638.5 907.5 Q653 914 668 914 Q696 914 716 895.5 Q736 877 736 846 Q736 828 728.5 812.5 Q721 797 709 785.5 Q697 774 682.5 768 Q668 762 654 762 Z " />
<glyph glyph-name="Aring" unicode="&#xc5;" horiz-adv-x="714" d="M532 0 Q530 39 527.5 76.5 Q525 114 522 151 L262 151 Q242 114 220 76.5 Q198 39 178 0 L15 0 Q79 110 135 204 Q191 298 242.5 381.5 Q294 465 343.5 539.5 Q393 614 444 685 Q430 700 421.5 720.5 Q413 741 413 767 Q413 795 422.5 816.5 Q432 838 448.5 852.5 Q465 867 486 874.5 Q507 882 530 882 Q554 882 575.5 874.5 Q597 867 613.5 852.5 Q630 838 639.5 816.5 Q649 795 649 767 Q649 732 633.5 707 Q618 682 594 668 Q609 596 623 511.5 Q637 427 649 339 Q661 251 671 164 Q681 77 689 0 L532 0 Z M486 541 Q444 474 403.5 408 Q363 342 325 273 L512 273 Q507 334 501.5 403 Q496 472 486 541 Z M576 767 Q576 790 562 802 Q548 814 530 814 Q513 814 499 802 Q485 790 485 767 Q485 744 499 732 Q513 720 530 720 Q548 720 562 732 Q576 744 576 767 Z " />
<glyph glyph-name="AE" unicode="&#xc6;" horiz-adv-x="977" d="M508 164 L284 164 Q253 126 220 82 Q187 38 160 0 L0 0 Q84 108 156 200 Q228 292 297 374.5 Q366 457 435.5 535 Q505 613 582 693 L1077 693 L1045 562 L749 562 L717 426 L978 426 L947 298 L686 298 L646 131 L965 131 L933 0 L468 0 L508 164 Z M599 546 Q578 523 549.5 490.5 Q521 458 490.5 422.5 Q460 387 430 351.5 Q400 316 376 288 L537 288 L599 546 Z " />
<glyph glyph-name="Ccedilla" unicode="&#xc7;" horiz-adv-x="638" d="M614 30 Q573 10 524.5 -1.5 Q476 -13 405 -14 Q399 -22 394 -30 Q389 -38 385 -44 Q407 -55 418 -73 Q429 -91 429 -111 Q429 -140 417.5 -161 Q406 -182 386.5 -195.5 Q367 -209 342 -215 Q317 -221 291 -221 Q264 -221 237.5 -215 Q211 -209 190 -198 L226 -116 Q239 -122 255.5 -126 Q272 -130 287 -130 Q327 -130 327 -106 Q327 -95 320 -88 Q313 -81 297 -74 L277 -65 L318 -4 Q227 19 175 93.5 Q123 168 123 280 Q123 358 150.5 435 Q178 512 231.5 572.5 Q285 633 362.5 671 Q440 709 541 709 Q589 709 635.5 698 Q682 687 733 659 L677 538 Q635 560 602 568 Q569 576 531 576 Q474 576 428.5 553 Q383 530 350.5 490.5 Q318 451 301 399 Q284 347 284 289 Q284 201 322.5 161 Q361 121 433 121 Q481 121 521.5 131 Q562 141 597 157 L614 30 Z " />
<glyph glyph-name="Egrave" unicode="&#xc8;" horiz-adv-x="594" d="M75 0 L241 693 L694 693 L662 565 L365 565 L333 425 L595 425 L564 299 L302 299 L262 129 L582 129 L550 0 L75 0 Z M434 959 L569 794 L505 736 L342 880 L434 959 Z " />
<glyph glyph-name="Eacute" unicode="&#xc9;" horiz-adv-x="594" d="M75 0 L241 693 L694 693 L662 565 L365 565 L333 425 L595 425 L564 299 L302 299 L262 129 L582 129 L550 0 L75 0 Z M645 872 L468 736 L408 798 L568 959 L645 872 Z " />
<glyph glyph-name="Ecircumflex" unicode="&#xca;" horiz-adv-x="594" d="M75 0 L241 693 L694 693 L662 565 L365 565 L333 425 L595 425 L564 299 L302 299 L262 129 L582 129 L550 0 L75 0 Z M654 795 L594 742 L511 820 L398 744 L352 805 L531 950 L654 795 Z " />
<glyph glyph-name="Edieresis" unicode="&#xcb;" horiz-adv-x="594" d="M75 0 L241 693 L694 693 L662 565 L365 565 L333 425 L595 425 L564 299 L302 299 L262 129 L582 129 L550 0 L75 0 Z M372 762 Q343 762 324 780 Q305 798 305 828 Q305 847 312 863 Q319 879 330.5 890 Q342 901 356.5 907.5 Q371 914 386 914 Q414 914 434 895.5 Q454 877 454 846 Q454 828 446.5 812.5 Q439 797 427 785.5 Q415 774 400.5 768 Q386 762 372 762 Z M594 762 Q565 762 546 780 Q527 798 527 828 Q527 847 534 863 Q541 879 552.5 890 Q564 901 578.5 907.5 Q593 914 608 914 Q636 914 656 895.5 Q676 877 676 846 Q676 828 668.5 812.5 Q661 797 649 785.5 Q637 774 622.5 768 Q608 762 594 762 Z " />
<glyph glyph-name="Igrave" unicode="&#xcc;" horiz-adv-x="312" d="M241 693 L397 693 L230 0 L75 0 L241 693 Z M262 959 L397 794 L333 736 L170 880 L262 959 Z " />
<glyph glyph-name="Iacute" unicode="&#xcd;" horiz-adv-x="312" d="M241 693 L397 693 L230 0 L75 0 L241 693 Z M488 872 L311 736 L251 798 L411 959 L488 872 Z " />
<glyph glyph-name="Icircumflex" unicode="&#xce;" horiz-adv-x="312" d="M241 693 L397 693 L230 0 L75 0 L241 693 Z M500 795 L440 742 L357 820 L244 744 L198 805 L377 950 L500 795 Z " />
<glyph glyph-name="Idieresis" unicode="&#xcf;" horiz-adv-x="312" d="M241 693 L397 693 L230 0 L75 0 L241 693 Z M234 762 Q205 762 186 780 Q167 798 167 828 Q167 847 174 863 Q181 879 192.5 890 Q204 901 218.5 907.5 Q233 914 248 914 Q276 914 296 895.5 Q316 877 316 846 Q316 828 308.5 812.5 Q301 797 289 785.5 Q277 774 262.5 768 Q248 762 234 762 Z M456 762 Q427 762 408 780 Q389 798 389 828 Q389 847 396 863 Q403 879 414.5 890 Q426 901 440.5 907.5 Q455 914 470 914 Q498 914 518 895.5 Q538 877 538 846 Q538 828 530.5 812.5 Q523 797 511 785.5 Q499 774 484.5 768 Q470 762 456 762 Z " />
<glyph glyph-name="Eth" unicode="&#xd0;" horiz-adv-x="718" d="M257 125 Q268 124 279.5 123.5 Q291 123 311 123 Q376 123 428.5 143 Q481 163 517.5 200.5 Q554 238 574 292.5 Q594 347 594 415 Q594 450 585 478.5 Q576 507 555.5 527.5 Q535 548 502.5 559 Q470 570 424 570 Q394 570 363 567 L327 417 L454 417 L427 302 L299 302 L257 125 Z M754 423 Q754 322 721 242 Q688 162 626.5 106.5 Q565 51 477 21 Q389 -9 278 -9 Q236 -9 181 -4 Q126 1 75 12 L145 302 L65 302 L91 417 L172 417 L236 681 Q293 692 345.5 696.5 Q398 701 440 701 Q514 701 572.5 681 Q631 661 671.5 624 Q712 587 733 536 Q754 485 754 423 Z " />
<glyph glyph-name="Ntilde" unicode="&#xd1;" horiz-adv-x="742" d="M543 0 Q501 118 449.5 236 Q398 354 338 459 L228 0 L75 0 L241 693 L360 693 Q383 658 409.5 610.5 Q436 563 464 508 Q492 453 520 393.5 Q548 334 573 276 L672 693 L827 693 L660 0 L543 0 Z M611 770 Q592 770 577 775.5 Q562 781 549 787.5 Q536 794 524 799.5 Q512 805 500 805 Q486 805 474.5 797 Q463 789 446 764 L379 805 Q402 859 434 885.5 Q466 912 512 912 Q531 912 546 906.5 Q561 901 574 894.5 Q587 888 599 882.5 Q611 877 623 877 Q637 877 648.5 885 Q660 893 677 918 L744 877 Q721 823 689 796.5 Q657 770 611 770 Z " />
<glyph glyph-name="Ograve" unicode="&#xd2;" horiz-adv-x="757" d="M500 575 Q454 575 414.5 551 Q375 527 345.5 487 Q316 447 299.5 395 Q283 343 283 288 Q283 213 314.5 166.5 Q346 120 417 120 Q463 120 502.5 144 Q542 168 571.5 208 Q601 248 617.5 299.5 Q634 351 634 407 Q634 482 602.5 528.5 Q571 575 500 575 Z M401 -14 Q340 -14 289 6 Q238 26 201 63.5 Q164 101 143.5 155 Q123 209 123 277 Q123 355 150 432 Q177 509 227.5 570.5 Q278 632 351 670.5 Q424 709 516 709 Q577 709 628 689 Q679 669 716 631.5 Q753 594 773.5 540 Q794 486 794 418 Q794 340 767.5 262.5 Q741 185 690.5 123.5 Q640 62 567 24 Q494 -14 401 -14 Z M530 959 L665 794 L601 736 L438 880 L530 959 Z " />
<glyph glyph-name="Oacute" unicode="&#xd3;" horiz-adv-x="757" d="M500 575 Q454 575 414.5 551 Q375 527 345.5 487 Q316 447 299.5 395 Q283 343 283 288 Q283 213 314.5 166.5 Q346 120 417 120 Q463 120 502.5 144 Q542 168 571.5 208 Q601 248 617.5 299.5 Q634 351 634 407 Q634 482 602.5 528.5 Q571 575 500 575 Z M401 -14 Q340 -14 289 6 Q238 26 201 63.5 Q164 101 143.5 155 Q123 209 123 277 Q123 355 150 432 Q177 509 227.5 570.5 Q278 632 351 670.5 Q424 709 516 709 Q577 709 628 689 Q679 669 716 631.5 Q753 594 773.5 540 Q794 486 794 418 Q794 340 767.5 262.5 Q741 185 690.5 123.5 Q640 62 567 24 Q494 -14 401 -14 Z M652 872 L475 736 L415 798 L575 959 L652 872 Z " />
<glyph glyph-name="Ocircumflex" unicode="&#xd4;" horiz-adv-x="757" d="M500 575 Q454 575 414.5 551 Q375 527 345.5 487 Q316 447 299.5 395 Q283 343 283 288 Q283 213 314.5 166.5 Q346 120 417 120 Q463 120 502.5 144 Q542 168 571.5 208 Q601 248 617.5 299.5 Q634 351 634 407 Q634 482 602.5 528.5 Q571 575 500 575 Z M401 -14 Q340 -14 289 6 Q238 26 201 63.5 Q164 101 143.5 155 Q123 209 123 277 Q123 355 150 432 Q177 509 227.5 570.5 Q278 632 351 670.5 Q424 709 516 709 Q577 709 628 689 Q679 669 716 631.5 Q753 594 773.5 540 Q794 486 794 418 Q794 340 767.5 262.5 Q741 185 690.5 123.5 Q640 62 567 24 Q494 -14 401 -14 Z M688 795 L628 742 L545 820 L432 744 L386 805 L565 950 L688 795 Z " />
<glyph glyph-name="Otilde" unicode="&#xd5;" horiz-adv-x="757" d="M500 575 Q454 575 414.5 551 Q375 527 345.5 487 Q316 447 299.5 395 Q283 343 283 288 Q283 213 314.5 166.5 Q346 120 417 120 Q463 120 502.5 144 Q542 168 571.5 208 Q601 248 617.5 299.5 Q634 351 634 407 Q634 482 602.5 528.5 Q571 575 500 575 Z M401 -14 Q340 -14 289 6 Q238 26 201 63.5 Q164 101 143.5 155 Q123 209 123 277 Q123 355 150 432 Q177 509 227.5 570.5 Q278 632 351 670.5 Q424 709 516 709 Q577 709 628 689 Q679 669 716 631.5 Q753 594 773.5 540 Q794 486 794 418 Q794 340 767.5 262.5 Q741 185 690.5 123.5 Q640 62 567 24 Q494 -14 401 -14 Z M590 770 Q571 770 556 775.5 Q541 781 528 787.5 Q515 794 503 799.5 Q491 805 479 805 Q465 805 453.5 797 Q442 789 425 764 L358 805 Q381 859 413 885.5 Q445 912 491 912 Q510 912 525 906.5 Q540 901 553 894.5 Q566 888 578 882.5 Q590 877 602 877 Q616 877 627.5 885 Q639 893 656 918 L723 877 Q700 823 668 796.5 Q636 770 590 770 Z " />
<glyph glyph-name="Odieresis" unicode="&#xd6;" horiz-adv-x="757" d="M500 575 Q454 575 414.5 551 Q375 527 345.5 487 Q316 447 299.5 395 Q283 343 283 288 Q283 213 314.5 166.5 Q346 120 417 120 Q463 120 502.5 144 Q542 168 571.5 208 Q601 248 617.5 299.5 Q634 351 634 407 Q634 482 602.5 528.5 Q571 575 500 575 Z M401 -14 Q340 -14 289 6 Q238 26 201 63.5 Q164 101 143.5 155 Q123 209 123 277 Q123 355 150 432 Q177 509 227.5 570.5 Q278 632 351 670.5 Q424 709 516 709 Q577 709 628 689 Q679 669 716 631.5 Q753 594 773.5 540 Q794 486 794 418 Q794 340 767.5 262.5 Q741 185 690.5 123.5 Q640 62 567 24 Q494 -14 401 -14 Z M426 762 Q397 762 378 780 Q359 798 359 828 Q359 847 366 863 Q373 879 384.5 890 Q396 901 410.5 907.5 Q425 914 440 914 Q468 914 488 895.5 Q508 877 508 846 Q508 828 500.5 812.5 Q493 797 481 785.5 Q469 774 454.5 768 Q440 762 426 762 Z M648 762 Q619 762 600 780 Q581 798 581 828 Q581 847 588 863 Q595 879 606.5 890 Q618 901 632.5 907.5 Q647 914 662 914 Q690 914 710 895.5 Q730 877 730 846 Q730 828 722.5 812.5 Q715 797 703 785.5 Q691 774 676.5 768 Q662 762 648 762 Z " />
<glyph glyph-name="multiply" unicode="&#xd7;" horiz-adv-x="568" d="M89 166 L260 304 L158 439 L260 521 L361 386 L533 525 L603 433 L432 295 L534 160 L432 78 L331 213 L159 74 L89 166 Z " />
<glyph glyph-name="Oslash" unicode="&#xd8;" horiz-adv-x="757" d="M401 -14 Q309 -14 243 28 L179 -45 L101 18 L172 99 Q123 169 123 277 Q123 355 150 432 Q177 509 227.5 570.5 Q278 632 351 670.5 Q424 709 516 709 Q606 709 672 667 L734 738 L812 675 L744 597 Q768 562 781 517 Q794 472 794 418 Q794 340 767.5 262.5 Q741 185 690.5 123.5 Q640 62 567 24 Q494 -14 401 -14 Z M639 412 Q639 444 633 471 L336 135 Q365 115 411 115 Q457 115 498.5 140.5 Q540 166 571 208 Q602 250 620.5 303 Q639 356 639 412 Z M505 580 Q458 580 417 554 Q376 528 345 486 Q314 444 296 390.5 Q278 337 278 282 Q278 266 279 252 Q280 238 283 225 L578 560 Q549 580 505 580 Z " />
<glyph glyph-name="Ugrave" unicode="&#xd9;" horiz-adv-x="683" d="M668 252 Q634 111 557.5 48.5 Q481 -14 355 -14 Q290 -14 245.5 1.5 Q201 17 173 44.5 Q145 72 132.5 110.5 Q120 149 120 194 Q120 246 135 305 L228 693 L384 693 L286 283 Q276 247 276 210 Q276 190 280.5 174 Q285 158 296.5 146 Q308 134 327.5 127.5 Q347 121 376 121 Q436 121 467 158.5 Q498 196 515 265 L617 693 L773 693 L668 252 Z M443 959 L578 794 L514 736 L351 880 L443 959 Z " />
<glyph glyph-name="Uacute" unicode="&#xda;" horiz-adv-x="683" d="M668 252 Q634 111 557.5 48.5 Q481 -14 355 -14 Q290 -14 245.5 1.5 Q201 17 173 44.5 Q145 72 132.5 110.5 Q120 149 120 194 Q120 246 135 305 L228 693 L384 693 L286 283 Q276 247 276 210 Q276 190 280.5 174 Q285 158 296.5 146 Q308 134 327.5 127.5 Q347 121 376 121 Q436 121 467 158.5 Q498 196 515 265 L617 693 L773 693 L668 252 Z M641 872 L464 736 L404 798 L564 959 L641 872 Z " />
<glyph glyph-name="Ucircumflex" unicode="&#xdb;" horiz-adv-x="683" d="M668 252 Q634 111 557.5 48.5 Q481 -14 355 -14 Q290 -14 245.5 1.5 Q201 17 173 44.5 Q145 72 132.5 110.5 Q120 149 120 194 Q120 246 135 305 L228 693 L384 693 L286 283 Q276 247 276 210 Q276 190 280.5 174 Q285 158 296.5 146 Q308 134 327.5 127.5 Q347 121 376 121 Q436 121 467 158.5 Q498 196 515 265 L617 693 L773 693 L668 252 Z M671 795 L611 742 L528 820 L415 744 L369 805 L548 950 L671 795 Z " />
<glyph glyph-name="Udieresis" unicode="&#xdc;" horiz-adv-x="683" d="M668 252 Q634 111 557.5 48.5 Q481 -14 355 -14 Q290 -14 245.5 1.5 Q201 17 173 44.5 Q145 72 132.5 110.5 Q120 149 120 194 Q120 246 135 305 L228 693 L384 693 L286 283 Q276 247 276 210 Q276 190 280.5 174 Q285 158 296.5 146 Q308 134 327.5 127.5 Q347 121 376 121 Q436 121 467 158.5 Q498 196 515 265 L617 693 L773 693 L668 252 Z M402 762 Q373 762 354 780 Q335 798 335 828 Q335 847 342 863 Q349 879 360.5 890 Q372 901 386.5 907.5 Q401 914 416 914 Q444 914 464 895.5 Q484 877 484 846 Q484 828 476.5 812.5 Q469 797 457 785.5 Q445 774 430.5 768 Q416 762 402 762 Z M624 762 Q595 762 576 780 Q557 798 557 828 Q557 847 564 863 Q571 879 582.5 890 Q594 901 608.5 907.5 Q623 914 638 914 Q666 914 686 895.5 Q706 877 706 846 Q706 828 698.5 812.5 Q691 797 679 785.5 Q667 774 652.5 768 Q638 762 624 762 Z " />
<glyph glyph-name="Yacute" unicode="&#xdd;" horiz-adv-x="652" d="M413 408 Q442 445 468.5 479.5 Q495 514 520 548.5 Q545 583 569.5 618.5 Q594 654 620 693 L792 693 Q750 634 711 581 Q672 528 633 477.5 Q594 427 553 377 Q512 327 466 274 L400 0 L244 0 L310 274 Q268 380 234 481 Q200 582 170 693 L336 693 Q352 621 371 552 Q390 483 413 408 Z M624 872 L447 736 L387 798 L547 959 L624 872 Z " />
<glyph glyph-name="Thorn" unicode="&#xde;" horiz-adv-x="643" d="M453 596 Q516 596 561 580 Q606 564 635.5 537 Q665 510 679 475 Q693 440 693 402 Q693 356 673.5 307.5 Q654 259 610.5 219 Q567 179 497.5 153.5 Q428 128 329 128 L260 128 L229 0 L74 0 L240 693 L396 693 L372 593 Q379 594 390.5 594.5 Q402 595 414 595.5 Q426 596 436.5 596 Q447 596 453 596 Z M403 464 Q386 464 369 463 Q352 462 340 461 L292 261 L341 261 Q383 261 418 267.5 Q453 274 478.5 289 Q504 304 518 329 Q532 354 532 392 Q532 433 497 448.5 Q462 464 403 464 Z " />
<glyph glyph-name="germandbls" unicode="&#xdf;" horiz-adv-x="637" d="M209 568 Q222 625 248.5 664.5 Q275 704 310 729 Q345 754 386.5 765 Q428 776 471 776 Q511 776 548.5 765.5 Q586 755 614.5 736 Q643 717 660 689.5 Q677 662 677 628 Q677 594 661.5 560 Q646 526 613 495 Q598 481 583.5 468 Q569 455 557.5 442 Q546 429 538.5 415 Q531 401 531 386 Q531 365 550 349.5 Q569 334 593 316 L613 301 Q640 281 654 250 Q668 219 668 184 Q668 134 648 97 Q628 60 595 36 Q562 12 519.5 0 Q477 -12 432 -12 Q392 -12 353.5 -3 Q315 6 282 24 L335 141 Q364 124 390 117 Q416 110 438 110 Q475 110 497 126.5 Q519 143 519 168 Q519 181 511 194.5 Q503 208 486 221 L441 254 Q402 283 390 310 Q378 337 378 366 Q378 396 389.5 420 Q401 444 418.5 464 Q436 484 456.5 500.5 Q477 517 494.5 533.5 Q512 550 523.5 567 Q535 584 535 605 Q535 628 513 639 Q491 650 462 650 Q426 650 395 627 Q364 604 350 548 L255 149 Q221 6 181 -73.5 Q141 -153 93 -189 L-36 -170 Q-10 -146 12 -111 Q34 -76 51.5 -37 Q69 2 81.5 42.5 Q94 83 102 118 L209 568 Z " />
<glyph glyph-name="agrave" unicode="&#xe0;" horiz-adv-x="588" d="M563 227 Q549 170 555 112.5 Q561 55 578 10 L445 -9 Q439 3 434 14 Q429 25 424 39 Q396 16 362 1 Q328 -14 286 -14 Q236 -14 200.5 3.5 Q165 21 142.5 50.5 Q120 80 110 119.5 Q100 159 100 204 Q100 273 124.5 334 Q149 395 192.5 440.5 Q236 486 295 512 Q354 538 423 538 Q432 538 454.5 537 Q477 536 506 532.5 Q535 529 567 521 Q599 513 628 499 L563 227 Z M459 411 Q446 413 435.5 414 Q425 415 410 415 Q376 415 346.5 398 Q317 381 295 353.5 Q273 326 260.5 290 Q248 254 248 215 Q248 167 264 139 Q280 111 323 111 Q346 111 364.5 120 Q383 129 404 150 Q406 175 410.5 202.5 Q415 230 420 253 L459 411 Z M445 799 L580 634 L516 576 L353 720 L445 799 Z " />
<glyph glyph-name="aacute" unicode="&#xe1;" horiz-adv-x="588" d="M563 227 Q549 170 555 112.5 Q561 55 578 10 L445 -9 Q439 3 434 14 Q429 25 424 39 Q396 16 362 1 Q328 -14 286 -14 Q236 -14 200.5 3.5 Q165 21 142.5 50.5 Q120 80 110 119.5 Q100 159 100 204 Q100 273 124.5 334 Q149 395 192.5 440.5 Q236 486 295 512 Q354 538 423 538 Q432 538 454.5 537 Q477 536 506 532.5 Q535 529 567 521 Q599 513 628 499 L563 227 Z M459 411 Q446 413 435.5 414 Q425 415 410 415 Q376 415 346.5 398 Q317 381 295 353.5 Q273 326 260.5 290 Q248 254 248 215 Q248 167 264 139 Q280 111 323 111 Q346 111 364.5 120 Q383 129 404 150 Q406 175 410.5 202.5 Q415 230 420 253 L459 411 Z M592 712 L415 576 L355 638 L515 799 L592 712 Z " />
<glyph glyph-name="acircumflex" unicode="&#xe2;" horiz-adv-x="588" d="M563 227 Q549 170 555 112.5 Q561 55 578 10 L445 -9 Q439 3 434 14 Q429 25 424 39 Q396 16 362 1 Q328 -14 286 -14 Q236 -14 200.5 3.5 Q165 21 142.5 50.5 Q120 80 110 119.5 Q100 159 100 204 Q100 273 124.5 334 Q149 395 192.5 440.5 Q236 486 295 512 Q354 538 423 538 Q432 538 454.5 537 Q477 536 506 532.5 Q535 529 567 521 Q599 513 628 499 L563 227 Z M459 411 Q446 413 435.5 414 Q425 415 410 415 Q376 415 346.5 398 Q317 381 295 353.5 Q273 326 260.5 290 Q248 254 248 215 Q248 167 264 139 Q280 111 323 111 Q346 111 364.5 120 Q383 129 404 150 Q406 175 410.5 202.5 Q415 230 420 253 L459 411 Z M593 629 L533 576 L450 654 L337 578 L291 639 L470 784 L593 629 Z " />
<glyph glyph-name="atilde" unicode="&#xe3;" horiz-adv-x="588" d="M563 227 Q549 170 555 112.5 Q561 55 578 10 L445 -9 Q439 3 434 14 Q429 25 424 39 Q396 16 362 1 Q328 -14 286 -14 Q236 -14 200.5 3.5 Q165 21 142.5 50.5 Q120 80 110 119.5 Q100 159 100 204 Q100 273 124.5 334 Q149 395 192.5 440.5 Q236 486 295 512 Q354 538 423 538 Q432 538 454.5 537 Q477 536 506 532.5 Q535 529 567 521 Q599 513 628 499 L563 227 Z M459 411 Q446 413 435.5 414 Q425 415 410 415 Q376 415 346.5 398 Q317 381 295 353.5 Q273 326 260.5 290 Q248 254 248 215 Q248 167 264 139 Q280 111 323 111 Q346 111 364.5 120 Q383 129 404 150 Q406 175 410.5 202.5 Q415 230 420 253 L459 411 Z M510 607 Q491 607 476 612.5 Q461 618 448 624.5 Q435 631 423 636.5 Q411 642 399 642 Q385 642 373.5 634 Q362 626 345 601 L278 642 Q301 696 333 722.5 Q365 749 411 749 Q430 749 445 743.5 Q460 738 473 731.5 Q486 725 498 719.5 Q510 714 522 714 Q536 714 547.5 722 Q559 730 576 755 L643 714 Q620 660 588 633.5 Q556 607 510 607 Z " />
<glyph glyph-name="adieresis" unicode="&#xe4;" horiz-adv-x="588" d="M563 227 Q549 170 555 112.5 Q561 55 578 10 L445 -9 Q439 3 434 14 Q429 25 424 39 Q396 16 362 1 Q328 -14 286 -14 Q236 -14 200.5 3.5 Q165 21 142.5 50.5 Q120 80 110 119.5 Q100 159 100 204 Q100 273 124.5 334 Q149 395 192.5 440.5 Q236 486 295 512 Q354 538 423 538 Q432 538 454.5 537 Q477 536 506 532.5 Q535 529 567 521 Q599 513 628 499 L563 227 Z M459 411 Q446 413 435.5 414 Q425 415 410 415 Q376 415 346.5 398 Q317 381 295 353.5 Q273 326 260.5 290 Q248 254 248 215 Q248 167 264 139 Q280 111 323 111 Q346 111 364.5 120 Q383 129 404 150 Q406 175 410.5 202.5 Q415 230 420 253 L459 411 Z M325 602 Q296 602 277 620 Q258 638 258 668 Q258 687 265 703 Q272 719 283.5 730 Q295 741 309.5 747.5 Q324 754 339 754 Q367 754 387 735.5 Q407 717 407 686 Q407 668 399.5 652.5 Q392 637 380 625.5 Q368 614 353.5 608 Q339 602 325 602 Z M547 602 Q518 602 499 620 Q480 638 480 668 Q480 687 487 703 Q494 719 505.5 730 Q517 741 531.5 747.5 Q546 754 561 754 Q589 754 609 735.5 Q629 717 629 686 Q629 668 621.5 652.5 Q614 637 602 625.5 Q590 614 575.5 608 Q561 602 547 602 Z " />
<glyph glyph-name="aring" unicode="&#xe5;" horiz-adv-x="588" d="M563 227 Q549 170 555 112.5 Q561 55 578 10 L445 -9 Q439 3 434 14 Q429 25 424 39 Q396 16 362 1 Q328 -14 286 -14 Q236 -14 200.5 3.5 Q165 21 142.5 50.5 Q120 80 110 119.5 Q100 159 100 204 Q100 273 124.5 334 Q149 395 192.5 440.5 Q236 486 295 512 Q354 538 423 538 Q432 538 454.5 537 Q477 536 506 532.5 Q535 529 567 521 Q599 513 628 499 L563 227 Z M459 411 Q446 413 435.5 414 Q425 415 410 415 Q376 415 346.5 398 Q317 381 295 353.5 Q273 326 260.5 290 Q248 254 248 215 Q248 167 264 139 Q280 111 323 111 Q346 111 364.5 120 Q383 129 404 150 Q406 175 410.5 202.5 Q415 230 420 253 L459 411 Z M570 699 Q570 671 560.5 649.5 Q551 628 534.5 613.5 Q518 599 496.5 591.5 Q475 584 451 584 Q428 584 407 591.5 Q386 599 369.5 613.5 Q353 628 343.5 649.5 Q334 671 334 699 Q334 727 343.5 748.5 Q353 770 369.5 784.5 Q386 799 407 806.5 Q428 814 451 814 Q475 814 496.5 806.5 Q518 799 534.5 784.5 Q551 770 560.5 748.5 Q570 727 570 699 Z M497 699 Q497 722 483 734 Q469 746 451 746 Q434 746 420 734 Q406 722 406 699 Q406 676 420 664 Q434 652 451 652 Q469 652 483 664 Q497 676 497 699 Z " />
<glyph glyph-name="ae" unicode="&#xe6;" horiz-adv-x="837" d="M176 511 Q211 523 253 531.5 Q295 540 337 540 Q394 540 443 521 Q492 502 522 453 Q541 474 565 490.5 Q589 507 615 518 Q641 529 668.5 534.5 Q696 540 722 540 Q755 540 785 531 Q815 522 837.5 503.5 Q860 485 873.5 457 Q887 429 887 392 Q887 336 862.5 297 Q838 258 794 233.5 Q750 209 690 198 Q630 187 558 187 Q565 145 588.5 127.5 Q612 110 663 110 Q695 110 728 115.5 Q761 121 790 132 L801 15 Q763 2 721.5 -6 Q680 -14 638 -14 Q583 -14 535 4.5 Q487 23 455 71 Q438 51 414.5 35 Q391 19 364.5 8 Q338 -3 310 -8.5 Q282 -14 255 -14 Q222 -14 192.5 -5.5 Q163 3 140 21 Q117 39 103.5 67 Q90 95 90 134 Q90 190 114.5 229 Q139 268 183 292.5 Q227 317 287 328 Q347 339 419 339 Q412 381 388.5 398.5 Q365 416 314 416 Q282 416 249 410.5 Q216 405 187 394 L176 511 Z M279 104 Q330 104 366.5 140.5 Q403 177 415 237 Q353 235 315.5 226.5 Q278 218 258 206 Q238 194 231.5 179.5 Q225 165 225 152 Q225 104 279 104 Z M698 422 Q647 422 610.5 385.5 Q574 349 562 289 Q624 291 661.5 299.5 Q699 308 719 320 Q739 332 745.5 346 Q752 360 752 374 Q752 422 698 422 Z " />
<glyph glyph-name="ccedilla" unicode="&#xe7;" horiz-adv-x="480" d="M100 210 Q100 278 122 338 Q144 398 185 443 Q226 488 284.5 514 Q343 540 415 540 Q460 540 495.5 531.5 Q531 523 560 509 L509 393 Q489 401 467.5 407.5 Q446 414 415 414 Q340 414 297 363.5 Q254 313 254 226 Q254 175 276 143.5 Q298 112 357 112 Q386 112 413 118 Q440 124 461 133 L472 14 Q446 4 415 -4 Q384 -12 342 -14 Q336 -22 331 -30 Q326 -38 322 -44 Q344 -55 355 -73 Q366 -91 366 -111 Q366 -140 354.5 -161 Q343 -182 323.5 -195.5 Q304 -209 279 -215 Q254 -221 228 -221 Q201 -221 174.5 -215 Q148 -209 127 -198 L163 -116 Q176 -122 192.5 -126 Q209 -130 224 -130 Q264 -130 264 -106 Q264 -95 257 -88 Q250 -81 234 -74 L214 -65 L254 -5 Q213 5 184 25.5 Q155 46 136 74.5 Q117 103 108.5 137.5 Q100 172 100 210 Z " />
<glyph glyph-name="egrave" unicode="&#xe8;" horiz-adv-x="530" d="M100 206 Q100 270 122.5 330 Q145 390 186 436.5 Q227 483 285.5 511.5 Q344 540 415 540 Q450 540 480 530 Q510 520 532.5 501 Q555 482 567.5 454.5 Q580 427 580 392 Q580 336 555 297 Q530 258 485.5 233.5 Q441 209 380 198 Q319 187 247 187 Q254 145 277.5 127.5 Q301 110 352 110 Q384 110 417 115.5 Q450 121 479 132 L490 15 Q462 4 418.5 -5 Q375 -14 324 -14 Q262 -14 219.5 3.5 Q177 21 150.5 51 Q124 81 112 121 Q100 161 100 206 Z M391 422 Q340 422 301.5 385.5 Q263 349 251 289 Q313 291 351 299.5 Q389 308 410 320 Q431 332 438 346 Q445 360 445 374 Q445 422 391 422 Z M386 799 L521 634 L457 576 L294 720 L386 799 Z " />
<glyph glyph-name="eacute" unicode="&#xe9;" horiz-adv-x="530" d="M100 206 Q100 270 122.5 330 Q145 390 186 436.5 Q227 483 285.5 511.5 Q344 540 415 540 Q450 540 480 530 Q510 520 532.5 501 Q555 482 567.5 454.5 Q580 427 580 392 Q580 336 555 297 Q530 258 485.5 233.5 Q441 209 380 198 Q319 187 247 187 Q254 145 277.5 127.5 Q301 110 352 110 Q384 110 417 115.5 Q450 121 479 132 L490 15 Q462 4 418.5 -5 Q375 -14 324 -14 Q262 -14 219.5 3.5 Q177 21 150.5 51 Q124 81 112 121 Q100 161 100 206 Z M391 422 Q340 422 301.5 385.5 Q263 349 251 289 Q313 291 351 299.5 Q389 308 410 320 Q431 332 438 346 Q445 360 445 374 Q445 422 391 422 Z M541 712 L364 576 L304 638 L464 799 L541 712 Z " />
<glyph glyph-name="ecircumflex" unicode="&#xea;" horiz-adv-x="530" d="M100 206 Q100 270 122.5 330 Q145 390 186 436.5 Q227 483 285.5 511.5 Q344 540 415 540 Q450 540 480 530 Q510 520 532.5 501 Q555 482 567.5 454.5 Q580 427 580 392 Q580 336 555 297 Q530 258 485.5 233.5 Q441 209 380 198 Q319 187 247 187 Q254 145 277.5 127.5 Q301 110 352 110 Q384 110 417 115.5 Q450 121 479 132 L490 15 Q462 4 418.5 -5 Q375 -14 324 -14 Q262 -14 219.5 3.5 Q177 21 150.5 51 Q124 81 112 121 Q100 161 100 206 Z M391 422 Q340 422 301.5 385.5 Q263 349 251 289 Q313 291 351 299.5 Q389 308 410 320 Q431 332 438 346 Q445 360 445 374 Q445 422 391 422 Z M576 629 L516 576 L433 654 L320 578 L274 639 L453 784 L576 629 Z " />
<glyph glyph-name="edieresis" unicode="&#xeb;" horiz-adv-x="530" d="M100 206 Q100 270 122.5 330 Q145 390 186 436.5 Q227 483 285.5 511.5 Q344 540 415 540 Q450 540 480 530 Q510 520 532.5 501 Q555 482 567.5 454.5 Q580 427 580 392 Q580 336 555 297 Q530 258 485.5 233.5 Q441 209 380 198 Q319 187 247 187 Q254 145 277.5 127.5 Q301 110 352 110 Q384 110 417 115.5 Q450 121 479 132 L490 15 Q462 4 418.5 -5 Q375 -14 324 -14 Q262 -14 219.5 3.5 Q177 21 150.5 51 Q124 81 112 121 Q100 161 100 206 Z M391 422 Q340 422 301.5 385.5 Q263 349 251 289 Q313 291 351 299.5 Q389 308 410 320 Q431 332 438 346 Q445 360 445 374 Q445 422 391 422 Z M333 602 Q304 602 285 620 Q266 638 266 668 Q266 687 273 703 Q280 719 291.5 730 Q303 741 317.5 747.5 Q332 754 347 754 Q375 754 395 735.5 Q415 717 415 686 Q415 668 407.5 652.5 Q400 637 388 625.5 Q376 614 361.5 608 Q347 602 333 602 Z M555 602 Q526 602 507 620 Q488 638 488 668 Q488 687 495 703 Q502 719 513.5 730 Q525 741 539.5 747.5 Q554 754 569 754 Q597 754 617 735.5 Q637 717 637 686 Q637 668 629.5 652.5 Q622 637 610 625.5 Q598 614 583.5 608 Q569 602 555 602 Z " />
<glyph glyph-name="igrave" unicode="&#xec;" horiz-adv-x="283" d="M218 0 L70 0 L195 526 L344 526 L218 0 Z M218 799 L353 634 L289 576 L126 720 L218 799 Z " />
<glyph glyph-name="iacute" unicode="&#xed;" horiz-adv-x="283" d="M218 0 L70 0 L195 526 L344 526 L218 0 Z M433 712 L256 576 L196 638 L356 799 L433 712 Z " />
<glyph glyph-name="icircumflex" unicode="&#xee;" horiz-adv-x="283" d="M218 0 L70 0 L195 526 L344 526 L218 0 Z M445 629 L385 576 L302 654 L189 578 L143 639 L322 784 L445 629 Z " />
<glyph glyph-name="idieresis" unicode="&#xef;" horiz-adv-x="283" d="M218 0 L70 0 L195 526 L344 526 L218 0 Z M188 602 Q159 602 140 620 Q121 638 121 668 Q121 687 128 703 Q135 719 146.5 730 Q158 741 172.5 747.5 Q187 754 202 754 Q230 754 250 735.5 Q270 717 270 686 Q270 668 262.5 652.5 Q255 637 243 625.5 Q231 614 216.5 608 Q202 602 188 602 Z M410 602 Q381 602 362 620 Q343 638 343 668 Q343 687 350 703 Q357 719 368.5 730 Q380 741 394.5 747.5 Q409 754 424 754 Q452 754 472 735.5 Q492 717 492 686 Q492 668 484.5 652.5 Q477 637 465 625.5 Q453 614 438.5 608 Q424 602 410 602 Z " />
<glyph glyph-name="eth" unicode="&#xf0;" horiz-adv-x="606" d="M587 612 Q610 564 620 510.5 Q630 457 630 397 Q630 312 610 237 Q590 162 549.5 106.5 Q509 51 448 18.5 Q387 -14 305 -14 Q256 -14 218 3 Q180 20 153.5 49 Q127 78 113.5 117.5 Q100 157 100 201 Q100 282 125 337 Q150 392 189.5 425.5 Q229 459 277.5 474 Q326 489 374 489 Q406 489 435 482.5 Q464 476 488 465 Q485 495 479.5 521.5 Q474 548 463 573 L345 535 L334 618 L418 645 Q404 661 386.5 677 Q369 693 346 709 L445 776 Q502 738 543 685 L686 732 L696 647 L587 612 Z M323 115 Q359 115 386 135.5 Q413 156 431.5 189 Q450 222 460.5 263.5 Q471 305 474 346 Q421 371 378 371 Q346 371 322 358 Q298 345 282 322 Q266 299 258 268.5 Q250 238 250 203 Q250 167 267.5 141 Q285 115 323 115 Z " />
<glyph glyph-name="ntilde" unicode="&#xf1;" horiz-adv-x="567" d="M191 502 Q208 507 228.5 513.5 Q249 520 274.5 525.5 Q300 531 331.5 534.5 Q363 538 403 538 Q521 538 565 470 Q609 402 580 284 L512 0 L363 0 L429 278 Q435 304 438.5 328.5 Q442 353 438 371.5 Q434 390 419.5 401.5 Q405 413 375 413 Q346 413 316 407 L219 0 L70 0 L191 502 Z M486 607 Q467 607 452 612.5 Q437 618 424 624.5 Q411 631 399 636.5 Q387 642 375 642 Q361 642 349.5 634 Q338 626 321 601 L254 642 Q277 696 309 722.5 Q341 749 387 749 Q406 749 421 743.5 Q436 738 449 731.5 Q462 725 474 719.5 Q486 714 498 714 Q512 714 523.5 722 Q535 730 552 755 L619 714 Q596 660 564 633.5 Q532 607 486 607 Z " />
<glyph glyph-name="ograve" unicode="&#xf2;" horiz-adv-x="574" d="M308 -14 Q255 -14 216 2 Q177 18 151.5 47 Q126 76 113 115.5 Q100 155 100 203 Q100 263 119.5 323 Q139 383 177 431 Q215 479 270 509.5 Q325 540 396 540 Q448 540 487.5 524 Q527 508 552.5 479 Q578 450 591 410.5 Q604 371 604 323 Q604 263 585 203 Q566 143 529 95 Q492 47 436.5 16.5 Q381 -14 308 -14 Z M382 414 Q349 414 324 395 Q299 376 282 347 Q265 318 256.5 283.5 Q248 249 248 218 Q248 167 264 139.5 Q280 112 322 112 Q355 112 380 131 Q405 150 422 179 Q439 208 447.5 242.5 Q456 277 456 308 Q456 359 440 386.5 Q424 414 382 414 Z M365 799 L500 634 L436 576 L273 720 L365 799 Z " />
<glyph glyph-name="oacute" unicode="&#xf3;" horiz-adv-x="574" d="M308 -14 Q255 -14 216 2 Q177 18 151.5 47 Q126 76 113 115.5 Q100 155 100 203 Q100 263 119.5 323 Q139 383 177 431 Q215 479 270 509.5 Q325 540 396 540 Q448 540 487.5 524 Q527 508 552.5 479 Q578 450 591 410.5 Q604 371 604 323 Q604 263 585 203 Q566 143 529 95 Q492 47 436.5 16.5 Q381 -14 308 -14 Z M382 414 Q349 414 324 395 Q299 376 282 347 Q265 318 256.5 283.5 Q248 249 248 218 Q248 167 264 139.5 Q280 112 322 112 Q355 112 380 131 Q405 150 422 179 Q439 208 447.5 242.5 Q456 277 456 308 Q456 359 440 386.5 Q424 414 382 414 Z M560 712 L383 576 L323 638 L483 799 L560 712 Z " />
<glyph glyph-name="ocircumflex" unicode="&#xf4;" horiz-adv-x="574" d="M308 -14 Q255 -14 216 2 Q177 18 151.5 47 Q126 76 113 115.5 Q100 155 100 203 Q100 263 119.5 323 Q139 383 177 431 Q215 479 270 509.5 Q325 540 396 540 Q448 540 487.5 524 Q527 508 552.5 479 Q578 450 591 410.5 Q604 371 604 323 Q604 263 585 203 Q566 143 529 95 Q492 47 436.5 16.5 Q381 -14 308 -14 Z M382 414 Q349 414 324 395 Q299 376 282 347 Q265 318 256.5 283.5 Q248 249 248 218 Q248 167 264 139.5 Q280 112 322 112 Q355 112 380 131 Q405 150 422 179 Q439 208 447.5 242.5 Q456 277 456 308 Q456 359 440 386.5 Q424 414 382 414 Z M576 629 L516 576 L433 654 L320 578 L274 639 L453 784 L576 629 Z " />
<glyph glyph-name="otilde" unicode="&#xf5;" horiz-adv-x="574" d="M308 -14 Q255 -14 216 2 Q177 18 151.5 47 Q126 76 113 115.5 Q100 155 100 203 Q100 263 119.5 323 Q139 383 177 431 Q215 479 270 509.5 Q325 540 396 540 Q448 540 487.5 524 Q527 508 552.5 479 Q578 450 591 410.5 Q604 371 604 323 Q604 263 585 203 Q566 143 529 95 Q492 47 436.5 16.5 Q381 -14 308 -14 Z M382 414 Q349 414 324 395 Q299 376 282 347 Q265 318 256.5 283.5 Q248 249 248 218 Q248 167 264 139.5 Q280 112 322 112 Q355 112 380 131 Q405 150 422 179 Q439 208 447.5 242.5 Q456 277 456 308 Q456 359 440 386.5 Q424 414 382 414 Z M476 607 Q457 607 442 612.5 Q427 618 414 624.5 Q401 631 389 636.5 Q377 642 365 642 Q351 642 339.5 634 Q328 626 311 601 L244 642 Q267 696 299 722.5 Q331 749 377 749 Q396 749 411 743.5 Q426 738 439 731.5 Q452 725 464 719.5 Q476 714 488 714 Q502 714 513.5 722 Q525 730 542 755 L609 714 Q586 660 554 633.5 Q522 607 476 607 Z " />
<glyph glyph-name="odieresis" unicode="&#xf6;" horiz-adv-x="574" d="M308 -14 Q255 -14 216 2 Q177 18 151.5 47 Q126 76 113 115.5 Q100 155 100 203 Q100 263 119.5 323 Q139 383 177 431 Q215 479 270 509.5 Q325 540 396 540 Q448 540 487.5 524 Q527 508 552.5 479 Q578 450 591 410.5 Q604 371 604 323 Q604 263 585 203 Q566 143 529 95 Q492 47 436.5 16.5 Q381 -14 308 -14 Z M382 414 Q349 414 324 395 Q299 376 282 347 Q265 318 256.5 283.5 Q248 249 248 218 Q248 167 264 139.5 Q280 112 322 112 Q355 112 380 131 Q405 150 422 179 Q439 208 447.5 242.5 Q456 277 456 308 Q456 359 440 386.5 Q424 414 382 414 Z M308 602 Q279 602 260 620 Q241 638 241 668 Q241 687 248 703 Q255 719 266.5 730 Q278 741 292.5 747.5 Q307 754 322 754 Q350 754 370 735.5 Q390 717 390 686 Q390 668 382.5 652.5 Q375 637 363 625.5 Q351 614 336.5 608 Q322 602 308 602 Z M530 602 Q501 602 482 620 Q463 638 463 668 Q463 687 470 703 Q477 719 488.5 730 Q500 741 514.5 747.5 Q529 754 544 754 Q572 754 592 735.5 Q612 717 612 686 Q612 668 604.5 652.5 Q597 637 585 625.5 Q573 614 558.5 608 Q544 602 530 602 Z " />
<glyph glyph-name="divide" unicode="&#xf7;" horiz-adv-x="568" d="M121 361 L591 361 L560 236 L90 236 L121 361 Z M296 181 Q328 181 349.5 163 Q371 145 371 107 Q371 62 342.5 36.5 Q314 11 278 11 Q246 11 224.5 29 Q203 47 203 85 Q203 130 231.5 155.5 Q260 181 296 181 Z M393 585 Q425 585 446.5 567 Q468 549 468 511 Q468 466 439.5 440.5 Q411 415 375 415 Q343 415 321.5 433 Q300 451 300 489 Q300 534 328.5 559.5 Q357 585 393 585 Z " />
<glyph glyph-name="oslash" unicode="&#xf8;" horiz-adv-x="574" d="M274 116 Q294 109 318 109 Q357 109 384 128.5 Q411 148 428 179.5 Q445 211 452.5 250 Q460 289 460 328 L274 116 Z M308 -14 Q270 -14 240 -5.5 Q210 3 186 17 L137 -39 L72 14 L129 79 Q100 132 100 203 Q100 263 119.5 323 Q139 383 177 431 Q215 479 270 509.5 Q325 540 396 540 Q430 540 458.5 533 Q487 526 510 513 L556 566 L621 513 L570 455 Q587 429 595.5 395 Q604 361 604 323 Q604 263 585 203 Q566 143 529 95 Q492 47 436.5 16.5 Q381 -14 308 -14 Z M425 416 Q405 423 381 423 Q342 423 315 403.5 Q288 384 271 352.5 Q254 321 246.5 282 Q239 243 239 204 L425 416 Z " />
<glyph glyph-name="ugrave" unicode="&#xf9;" horiz-adv-x="581" d="M621 526 L550 227 Q536 170 542 112.5 Q548 55 565 10 L432 -9 Q421 13 411 40 Q383 18 348 3 Q313 -12 270 -12 Q211 -12 174.5 9.5 Q138 31 120 66.5 Q102 102 100.5 148 Q99 194 111 242 L179 526 L328 526 L261 244 Q256 222 252.5 199 Q249 176 252 156.5 Q255 137 267.5 124.5 Q280 112 307 112 Q330 112 349.5 120.5 Q369 129 391 150 Q393 175 397.5 202.5 Q402 230 407 253 L472 526 L621 526 Z M346 799 L481 634 L417 576 L254 720 L346 799 Z " />
<glyph glyph-name="uacute" unicode="&#xfa;" horiz-adv-x="581" d="M621 526 L550 227 Q536 170 542 112.5 Q548 55 565 10 L432 -9 Q421 13 411 40 Q383 18 348 3 Q313 -12 270 -12 Q211 -12 174.5 9.5 Q138 31 120 66.5 Q102 102 100.5 148 Q99 194 111 242 L179 526 L328 526 L261 244 Q256 222 252.5 199 Q249 176 252 156.5 Q255 137 267.5 124.5 Q280 112 307 112 Q330 112 349.5 120.5 Q369 129 391 150 Q393 175 397.5 202.5 Q402 230 407 253 L472 526 L621 526 Z M567 712 L390 576 L330 638 L490 799 L567 712 Z " />
<glyph glyph-name="ucircumflex" unicode="&#xfb;" horiz-adv-x="581" d="M621 526 L550 227 Q536 170 542 112.5 Q548 55 565 10 L432 -9 Q421 13 411 40 Q383 18 348 3 Q313 -12 270 -12 Q211 -12 174.5 9.5 Q138 31 120 66.5 Q102 102 100.5 148 Q99 194 111 242 L179 526 L328 526 L261 244 Q256 222 252.5 199 Q249 176 252 156.5 Q255 137 267.5 124.5 Q280 112 307 112 Q330 112 349.5 120.5 Q369 129 391 150 Q393 175 397.5 202.5 Q402 230 407 253 L472 526 L621 526 Z M582 629 L522 576 L439 654 L326 578 L280 639 L459 784 L582 629 Z " />
<glyph glyph-name="udieresis" unicode="&#xfc;" horiz-adv-x="581" d="M621 526 L550 227 Q536 170 542 112.5 Q548 55 565 10 L432 -9 Q421 13 411 40 Q383 18 348 3 Q313 -12 270 -12 Q211 -12 174.5 9.5 Q138 31 120 66.5 Q102 102 100.5 148 Q99 194 111 242 L179 526 L328 526 L261 244 Q256 222 252.5 199 Q249 176 252 156.5 Q255 137 267.5 124.5 Q280 112 307 112 Q330 112 349.5 120.5 Q369 129 391 150 Q393 175 397.5 202.5 Q402 230 407 253 L472 526 L621 526 Z M311 602 Q282 602 263 620 Q244 638 244 668 Q244 687 251 703 Q258 719 269.5 730 Q281 741 295.5 747.5 Q310 754 325 754 Q353 754 373 735.5 Q393 717 393 686 Q393 668 385.5 652.5 Q378 637 366 625.5 Q354 614 339.5 608 Q325 602 311 602 Z M533 602 Q504 602 485 620 Q466 638 466 668 Q466 687 473 703 Q480 719 491.5 730 Q503 741 517.5 747.5 Q532 754 547 754 Q575 754 595 735.5 Q615 717 615 686 Q615 668 607.5 652.5 Q600 637 588 625.5 Q576 614 561.5 608 Q547 602 533 602 Z " />
<glyph glyph-name="yacute" unicode="&#xfd;" horiz-adv-x="532" d="M632 526 Q604 450 575.5 384 Q547 318 516 258.5 Q485 199 452 145 Q419 91 382 38 Q355 -1 326 -41 Q297 -81 261.5 -113 Q226 -145 182.5 -165 Q139 -185 82 -185 Q47 -185 22 -178.5 Q-3 -172 -25 -161 L20 -44 Q40 -52 56 -56.5 Q72 -61 95 -61 Q130 -61 161.5 -38.5 Q193 -16 214 22 Q188 122 166.5 246 Q145 370 137 526 L290 526 Q291 487 294 440 Q297 393 301 345.5 Q305 298 310 253 Q315 208 321 172 Q369 244 405.5 332 Q442 420 474 526 L632 526 Z M541 712 L364 576 L304 638 L464 799 L541 712 Z " />
<glyph glyph-name="thorn" unicode="&#xfe;" horiz-adv-x="578" d="M347 536 Q358 537 370 537.5 Q382 538 394 538 Q450 538 490.5 521 Q531 504 557 474.5 Q583 445 595.5 405.5 Q608 366 608 321 Q608 248 584.5 187 Q561 126 518 82.5 Q475 39 416 14.5 Q357 -10 286 -10 Q253 -10 217 -4 L174 -185 L26 -185 L250 752 L405 776 L347 536 Z M375 413 Q344 413 316 407 L246 115 Q257 113 267 112.5 Q277 112 287 112 Q328 112 360 126.5 Q392 141 414.5 167 Q437 193 448.5 229.5 Q460 266 460 310 Q460 353 441 383 Q422 413 375 413 Z " />
<glyph glyph-name="ydieresis" unicode="&#xff;" horiz-adv-x="532" d="M632 526 Q604 450 575.5 384 Q547 318 516 258.5 Q485 199 452 145 Q419 91 382 38 Q355 -1 326 -41 Q297 -81 261.5 -113 Q226 -145 182.5 -165 Q139 -185 82 -185 Q47 -185 22 -178.5 Q-3 -172 -25 -161 L20 -44 Q40 -52 56 -56.5 Q72 -61 95 -61 Q130 -61 161.5 -38.5 Q193 -16 214 22 Q188 122 166.5 246 Q145 370 137 526 L290 526 Q291 487 294 440 Q297 393 301 345.5 Q305 298 310 253 Q315 208 321 172 Q369 244 405.5 332 Q442 420 474 526 L632 526 Z M298 602 Q269 602 250 620 Q231 638 231 668 Q231 687 238 703 Q245 719 256.5 730 Q268 741 282.5 747.5 Q297 754 312 754 Q340 754 360 735.5 Q380 717 380 686 Q380 668 372.5 652.5 Q365 637 353 625.5 Q341 614 326.5 608 Q312 602 298 602 Z M520 602 Q491 602 472 620 Q453 638 453 668 Q453 687 460 703 Q467 719 478.5 730 Q490 741 504.5 747.5 Q519 754 534 754 Q562 754 582 735.5 Q602 717 602 686 Q602 668 594.5 652.5 Q587 637 575 625.5 Q563 614 548.5 608 Q534 602 520 602 Z " />
<glyph glyph-name="Amacron" unicode="&#x100;" horiz-adv-x="714" d="M532 0 Q530 39 527.5 76.5 Q525 114 522 151 L262 151 Q242 114 220 76.5 Q198 39 178 0 L15 0 Q80 112 136.5 207 Q193 302 245.5 386 Q298 470 348 545.5 Q398 621 450 693 L589 693 Q605 621 619.5 533.5 Q634 446 646.5 354.5 Q659 263 669.5 171.5 Q680 80 689 0 L532 0 Z M486 541 Q444 474 403.5 408 Q363 342 325 273 L512 273 Q507 334 501.5 403 Q496 472 486 541 Z M404 878 L726 878 L701 776 L379 776 L404 878 Z " />
<glyph glyph-name="amacron" unicode="&#x101;" horiz-adv-x="588" d="M563 227 Q549 170 555 112.5 Q561 55 578 10 L445 -9 Q439 3 434 14 Q429 25 424 39 Q396 16 362 1 Q328 -14 286 -14 Q236 -14 200.5 3.5 Q165 21 142.5 50.5 Q120 80 110 119.5 Q100 159 100 204 Q100 273 124.5 334 Q149 395 192.5 440.5 Q236 486 295 512 Q354 538 423 538 Q432 538 454.5 537 Q477 536 506 532.5 Q535 529 567 521 Q599 513 628 499 L563 227 Z M459 411 Q446 413 435.5 414 Q425 415 410 415 Q376 415 346.5 398 Q317 381 295 353.5 Q273 326 260.5 290 Q248 254 248 215 Q248 167 264 139 Q280 111 323 111 Q346 111 364.5 120 Q383 129 404 150 Q406 175 410.5 202.5 Q415 230 420 253 L459 411 Z M323 725 L645 725 L620 623 L298 623 L323 725 Z " />
<glyph glyph-name="Abreve" unicode="&#x102;" horiz-adv-x="714" d="M532 0 Q530 39 527.5 76.5 Q525 114 522 151 L262 151 Q242 114 220 76.5 Q198 39 178 0 L15 0 Q80 112 136.5 207 Q193 302 245.5 386 Q298 470 348 545.5 Q398 621 450 693 L589 693 Q605 621 619.5 533.5 Q634 446 646.5 354.5 Q659 263 669.5 171.5 Q680 80 689 0 L532 0 Z M486 541 Q444 474 403.5 408 Q363 342 325 273 L512 273 Q507 334 501.5 403 Q496 472 486 541 Z M497 917 Q496 912 495.5 907 Q495 902 495 897 Q495 873 505.5 859.5 Q516 846 541 846 Q565 846 583.5 864 Q602 882 608 917 L710 917 Q707 875 690 844 Q673 813 648 792.5 Q623 772 592.5 761.5 Q562 751 531 751 Q504 751 479 759 Q454 767 434.5 783.5 Q415 800 403.5 825 Q392 850 392 883 Q392 902 396 917 L497 917 Z " />
<glyph glyph-name="abreve" unicode="&#x103;" horiz-adv-x="588" d="M563 227 Q549 170 555 112.5 Q561 55 578 10 L445 -9 Q439 3 434 14 Q429 25 424 39 Q396 16 362 1 Q328 -14 286 -14 Q236 -14 200.5 3.5 Q165 21 142.5 50.5 Q120 80 110 119.5 Q100 159 100 204 Q100 273 124.5 334 Q149 395 192.5 440.5 Q236 486 295 512 Q354 538 423 538 Q432 538 454.5 537 Q477 536 506 532.5 Q535 529 567 521 Q599 513 628 499 L563 227 Z M459 411 Q446 413 435.5 414 Q425 415 410 415 Q376 415 346.5 398 Q317 381 295 353.5 Q273 326 260.5 290 Q248 254 248 215 Q248 167 264 139 Q280 111 323 111 Q346 111 364.5 120 Q383 129 404 150 Q406 175 410.5 202.5 Q415 230 420 253 L459 411 Z M438 764 Q437 759 436.5 754 Q436 749 436 744 Q436 720 446.5 706.5 Q457 693 482 693 Q506 693 524.5 711 Q543 729 549 764 L651 764 Q648 722 631 691 Q614 660 589 639.5 Q564 619 533.5 608.5 Q503 598 472 598 Q445 598 420 606 Q395 614 375.5 630.5 Q356 647 344.5 672 Q333 697 333 730 Q333 749 337 764 L438 764 Z " />
<glyph glyph-name="Aogonek" unicode="&#x104;" horiz-adv-x="714" d="M532 0 Q530 39 527.5 76.5 Q525 114 522 151 L262 151 Q242 114 220 76.5 Q198 39 178 0 L15 0 Q80 112 136.5 207 Q193 302 245.5 386 Q298 470 348 545.5 Q398 621 450 693 L589 693 Q605 621 619.5 533.5 Q634 446 646.5 354.5 Q659 263 669.5 171.5 Q680 80 689 0 L685 -3 Q634 -38 614 -61 Q594 -84 594 -97 Q594 -113 619 -113 Q633 -113 649 -108.5 Q665 -104 672 -102 L662 -201 Q642 -210 617.5 -215.5 Q593 -221 567 -221 Q546 -221 526 -216.5 Q506 -212 490.5 -202 Q475 -192 466 -176 Q457 -160 457 -136 Q457 -106 478 -74 Q499 -42 547 -13 L569 0 L532 0 Z M486 541 Q444 474 403.5 408 Q363 342 325 273 L512 273 Q507 334 501.5 403 Q496 472 486 541 Z " />
<glyph glyph-name="aogonek" unicode="&#x105;" horiz-adv-x="588" d="M563 227 Q549 170 555 112.5 Q561 55 578 10 L559 -3 Q508 -38 488 -61 Q468 -84 468 -97 Q468 -113 493 -113 Q507 -113 523 -108.5 Q539 -104 546 -102 L536 -201 Q516 -210 491.5 -215.5 Q467 -221 441 -221 Q420 -221 400 -216.5 Q380 -212 364.5 -202 Q349 -192 340 -176 Q331 -160 331 -136 Q331 -106 352 -74 Q373 -42 421 -13 L441 -1 Q436 8 432 18 Q428 28 424 39 Q396 16 362 1 Q328 -14 286 -14 Q236 -14 200.5 3.5 Q165 21 142.5 50.5 Q120 80 110 119.5 Q100 159 100 204 Q100 273 124.5 334 Q149 395 192.5 440.5 Q236 486 295 512 Q354 538 423 538 Q432 538 454.5 537 Q477 536 506 532.5 Q535 529 567 521 Q599 513 628 499 L563 227 Z M459 411 Q446 413 435.5 414 Q425 415 410 415 Q376 415 346.5 398 Q317 381 295 353.5 Q273 326 260.5 290 Q248 254 248 215 Q248 167 264 139 Q280 111 323 111 Q346 111 364.5 120 Q383 129 404 150 Q406 175 410.5 202.5 Q415 230 420 253 L459 411 Z " />
<glyph glyph-name="Cacute" unicode="&#x106;" horiz-adv-x="638" d="M614 30 Q573 10 523 -2 Q473 -14 401 -14 Q339 -14 287.5 6.5 Q236 27 199.5 65 Q163 103 143 157.5 Q123 212 123 280 Q123 358 150.5 435 Q178 512 231.5 572.5 Q285 633 362.5 671 Q440 709 541 709 Q589 709 635.5 698 Q682 687 733 659 L677 538 Q635 560 602 568 Q569 576 531 576 Q474 576 428.5 553 Q383 530 350.5 490.5 Q318 451 301 399 Q284 347 284 289 Q284 201 322.5 161 Q361 121 433 121 Q481 121 521.5 131 Q562 141 597 157 L614 30 Z M642 872 L465 736 L405 798 L565 959 L642 872 Z " />
<glyph glyph-name="cacute" unicode="&#x107;" horiz-adv-x="480" d="M100 210 Q100 278 122 338 Q144 398 185 443 Q226 488 284.5 514 Q343 540 415 540 Q460 540 495.5 531.5 Q531 523 560 509 L509 393 Q489 401 467.5 407.5 Q446 414 415 414 Q340 414 297 363.5 Q254 313 254 226 Q254 175 276 143.5 Q298 112 357 112 Q386 112 413 118 Q440 124 461 133 L472 14 Q444 3 410.5 -5.5 Q377 -14 329 -14 Q267 -14 224 4 Q181 22 153 52.5 Q125 83 112.5 124 Q100 165 100 210 Z M531 712 L354 576 L294 638 L454 799 L531 712 Z " />
<glyph glyph-name="Ccircumflex" unicode="&#x108;" horiz-adv-x="638" d="M614 30 Q573 10 523 -2 Q473 -14 401 -14 Q339 -14 287.5 6.5 Q236 27 199.5 65 Q163 103 143 157.5 Q123 212 123 280 Q123 358 150.5 435 Q178 512 231.5 572.5 Q285 633 362.5 671 Q440 709 541 709 Q589 709 635.5 698 Q682 687 733 659 L677 538 Q635 560 602 568 Q569 576 531 576 Q474 576 428.5 553 Q383 530 350.5 490.5 Q318 451 301 399 Q284 347 284 289 Q284 201 322.5 161 Q361 121 433 121 Q481 121 521.5 131 Q562 141 597 157 L614 30 Z M711 795 L651 742 L568 820 L455 744 L409 805 L588 950 L711 795 Z " />
<glyph glyph-name="ccircumflex" unicode="&#x109;" horiz-adv-x="480" d="M100 210 Q100 278 122 338 Q144 398 185 443 Q226 488 284.5 514 Q343 540 415 540 Q460 540 495.5 531.5 Q531 523 560 509 L509 393 Q489 401 467.5 407.5 Q446 414 415 414 Q340 414 297 363.5 Q254 313 254 226 Q254 175 276 143.5 Q298 112 357 112 Q386 112 413 118 Q440 124 461 133 L472 14 Q444 3 410.5 -5.5 Q377 -14 329 -14 Q267 -14 224 4 Q181 22 153 52.5 Q125 83 112.5 124 Q100 165 100 210 Z M574 629 L514 576 L431 654 L318 578 L272 639 L451 784 L574 629 Z " />
<glyph glyph-name="Cdotaccent" unicode="&#x10a;" horiz-adv-x="638" d="M614 30 Q573 10 523 -2 Q473 -14 401 -14 Q339 -14 287.5 6.5 Q236 27 199.5 65 Q163 103 143 157.5 Q123 212 123 280 Q123 358 150.5 435 Q178 512 231.5 572.5 Q285 633 362.5 671 Q440 709 541 709 Q589 709 635.5 698 Q682 687 733 659 L677 538 Q635 560 602 568 Q569 576 531 576 Q474 576 428.5 553 Q383 530 350.5 490.5 Q318 451 301 399 Q284 347 284 289 Q284 201 322.5 161 Q361 121 433 121 Q481 121 521.5 131 Q562 141 597 157 L614 30 Z M565 760 Q534 760 514 778 Q494 796 494 828 Q494 870 520.5 893 Q547 916 580 916 Q610 916 631 898 Q652 880 652 847 Q652 827 644.5 811 Q637 795 624.5 783.5 Q612 772 596.5 766 Q581 760 565 760 Z " />
<glyph glyph-name="cdotaccent" unicode="&#x10b;" horiz-adv-x="480" d="M100 210 Q100 278 122 338 Q144 398 185 443 Q226 488 284.5 514 Q343 540 415 540 Q460 540 495.5 531.5 Q531 523 560 509 L509 393 Q489 401 467.5 407.5 Q446 414 415 414 Q340 414 297 363.5 Q254 313 254 226 Q254 175 276 143.5 Q298 112 357 112 Q386 112 413 118 Q440 124 461 133 L472 14 Q444 3 410.5 -5.5 Q377 -14 329 -14 Q267 -14 224 4 Q181 22 153 52.5 Q125 83 112.5 124 Q100 165 100 210 Z M430 600 Q399 600 379 618 Q359 636 359 668 Q359 710 385.5 733 Q412 756 445 756 Q475 756 496 738 Q517 720 517 687 Q517 667 509.5 651 Q502 635 489.5 623.5 Q477 612 461.5 606 Q446 600 430 600 Z " />
<glyph glyph-name="Ccaron" unicode="&#x10c;" horiz-adv-x="638" d="M614 30 Q573 10 523 -2 Q473 -14 401 -14 Q339 -14 287.5 6.5 Q236 27 199.5 65 Q163 103 143 157.5 Q123 212 123 280 Q123 358 150.5 435 Q178 512 231.5 572.5 Q285 633 362.5 671 Q440 709 541 709 Q589 709 635.5 698 Q682 687 733 659 L677 538 Q635 560 602 568 Q569 576 531 576 Q474 576 428.5 553 Q383 530 350.5 490.5 Q318 451 301 399 Q284 347 284 289 Q284 201 322.5 161 Q361 121 433 121 Q481 121 521.5 131 Q562 141 597 157 L614 30 Z M418 901 L478 954 L561 876 L674 952 L720 891 L541 746 L418 901 Z " />
<glyph glyph-name="ccaron" unicode="&#x10d;" horiz-adv-x="480" d="M100 210 Q100 278 122 338 Q144 398 185 443 Q226 488 284.5 514 Q343 540 415 540 Q460 540 495.5 531.5 Q531 523 560 509 L509 393 Q489 401 467.5 407.5 Q446 414 415 414 Q340 414 297 363.5 Q254 313 254 226 Q254 175 276 143.5 Q298 112 357 112 Q386 112 413 118 Q440 124 461 133 L472 14 Q444 3 410.5 -5.5 Q377 -14 329 -14 Q267 -14 224 4 Q181 22 153 52.5 Q125 83 112.5 124 Q100 165 100 210 Z M295 740 L355 793 L438 715 L551 791 L597 730 L418 585 L295 740 Z " />
<glyph glyph-name="Dcaron" unicode="&#x10e;" horiz-adv-x="718" d="M257 125 Q268 124 279.5 123.5 Q291 123 311 123 Q376 123 428.5 143 Q481 163 517.5 200.5 Q554 238 574 292.5 Q594 347 594 415 Q594 450 585 478.5 Q576 507 555.5 527.5 Q535 548 502.5 559 Q470 570 424 570 Q394 570 363 567 L257 125 Z M754 423 Q754 322 721 242 Q688 162 626.5 106.5 Q565 51 477 21 Q389 -9 278 -9 Q236 -9 181 -4 Q126 1 75 12 L236 681 Q293 692 345.5 696.5 Q398 701 440 701 Q514 701 572.5 681 Q631 661 671.5 624 Q712 587 733 536 Q754 485 754 423 Z M362 901 L422 954 L505 876 L618 952 L664 891 L485 746 L362 901 Z " />
<glyph glyph-name="dcaron" unicode="&#x10f;" horiz-adv-x="652" d="M287 -14 Q237 -14 201.5 3 Q166 20 143.5 49.5 Q121 79 110.5 118.5 Q100 158 100 203 Q100 271 124.5 331.5 Q149 392 192 437 Q235 482 294 508 Q353 534 423 534 Q441 534 456.5 532 Q472 530 488 526 L542 752 L697 776 L565 227 Q551 170 557 112.5 Q563 55 580 10 L447 -9 Q441 3 436 14 Q431 25 426 39 Q398 16 363.5 1 Q329 -14 287 -14 Z M459 407 Q453 408 448.5 409 Q444 410 439.5 410.5 Q435 411 428 411 Q421 411 410 411 Q375 411 345 394.5 Q315 378 293.5 350 Q272 322 260 286.5 Q248 251 248 214 Q248 166 264.5 138.5 Q281 111 324 111 Q347 111 366 120 Q385 129 406 150 Q408 175 412.5 202.5 Q417 230 422 253 L459 407 Z M892 776 L799 532 L711 532 L766 776 L892 776 Z " />
<glyph glyph-name="Dcroat" unicode="&#x110;" horiz-adv-x="718" d="M257 125 Q268 124 279.5 123.5 Q291 123 311 123 Q376 123 428.5 143 Q481 163 517.5 200.5 Q554 238 574 292.5 Q594 347 594 415 Q594 450 585 478.5 Q576 507 555.5 527.5 Q535 548 502.5 559 Q470 570 424 570 Q394 570 363 567 L327 417 L454 417 L427 302 L299 302 L257 125 Z M754 423 Q754 322 721 242 Q688 162 626.5 106.5 Q565 51 477 21 Q389 -9 278 -9 Q236 -9 181 -4 Q126 1 75 12 L145 302 L65 302 L91 417 L172 417 L236 681 Q293 692 345.5 696.5 Q398 701 440 701 Q514 701 572.5 681 Q631 661 671.5 624 Q712 587 733 536 Q754 485 754 423 Z " />
<glyph glyph-name="dcroat" unicode="&#x111;" horiz-adv-x="590" d="M287 -14 Q237 -14 201.5 3 Q166 20 143.5 49.5 Q121 79 110.5 118.5 Q100 158 100 203 Q100 271 124.5 331.5 Q149 392 192 437 Q235 482 294 508 Q353 534 423 534 Q441 534 456.5 532 Q472 530 488 526 L504 596 L373 596 L395 689 L527 689 L542 752 L697 776 L676 689 L749 689 L727 596 L653 596 L565 227 Q551 170 557 112.5 Q563 55 580 10 L447 -9 Q441 3 436 14 Q431 25 426 39 Q398 16 363.5 1 Q329 -14 287 -14 Z M459 407 Q453 408 448.5 409 Q444 410 439.5 410.5 Q435 411 428 411 Q421 411 410 411 Q375 411 345 394.5 Q315 378 293.5 350 Q272 322 260 286.5 Q248 251 248 214 Q248 166 264.5 138.5 Q281 111 324 111 Q347 111 366 120 Q385 129 406 150 Q408 175 412.5 202.5 Q417 230 422 253 L459 407 Z " />
<glyph glyph-name="Emacron" unicode="&#x112;" horiz-adv-x="594" d="M75 0 L241 693 L694 693 L662 565 L365 565 L333 425 L595 425 L564 299 L302 299 L262 129 L582 129 L550 0 L75 0 Z M353 878 L675 878 L650 776 L328 776 L353 878 Z " />
<glyph glyph-name="emacron" unicode="&#x113;" horiz-adv-x="530" d="M100 206 Q100 270 122.5 330 Q145 390 186 436.5 Q227 483 285.5 511.5 Q344 540 415 540 Q450 540 480 530 Q510 520 532.5 501 Q555 482 567.5 454.5 Q580 427 580 392 Q580 336 555 297 Q530 258 485.5 233.5 Q441 209 380 198 Q319 187 247 187 Q254 145 277.5 127.5 Q301 110 352 110 Q384 110 417 115.5 Q450 121 479 132 L490 15 Q462 4 418.5 -5 Q375 -14 324 -14 Q262 -14 219.5 3.5 Q177 21 150.5 51 Q124 81 112 121 Q100 161 100 206 Z M391 422 Q340 422 301.5 385.5 Q263 349 251 289 Q313 291 351 299.5 Q389 308 410 320 Q431 332 438 346 Q445 360 445 374 Q445 422 391 422 Z M290 725 L612 725 L587 623 L265 623 L290 725 Z " />
<glyph glyph-name="Ebreve" unicode="&#x114;" horiz-adv-x="594" d="M75 0 L241 693 L694 693 L662 565 L365 565 L333 425 L595 425 L564 299 L302 299 L262 129 L582 129 L550 0 L75 0 Z M454 917 Q453 912 452.5 907 Q452 902 452 897 Q452 873 462.5 859.5 Q473 846 498 846 Q522 846 540.5 864 Q559 882 565 917 L667 917 Q664 875 647 844 Q630 813 605 792.5 Q580 772 549.5 761.5 Q519 751 488 751 Q461 751 436 759 Q411 767 391.5 783.5 Q372 800 360.5 825 Q349 850 349 883 Q349 902 353 917 L454 917 Z " />
<glyph glyph-name="ebreve" unicode="&#x115;" horiz-adv-x="530" d="M100 206 Q100 270 122.5 330 Q145 390 186 436.5 Q227 483 285.5 511.5 Q344 540 415 540 Q450 540 480 530 Q510 520 532.5 501 Q555 482 567.5 454.5 Q580 427 580 392 Q580 336 555 297 Q530 258 485.5 233.5 Q441 209 380 198 Q319 187 247 187 Q254 145 277.5 127.5 Q301 110 352 110 Q384 110 417 115.5 Q450 121 479 132 L490 15 Q462 4 418.5 -5 Q375 -14 324 -14 Q262 -14 219.5 3.5 Q177 21 150.5 51 Q124 81 112 121 Q100 161 100 206 Z M391 422 Q340 422 301.5 385.5 Q263 349 251 289 Q313 291 351 299.5 Q389 308 410 320 Q431 332 438 346 Q445 360 445 374 Q445 422 391 422 Z M402 764 Q401 759 400.5 754 Q400 749 400 744 Q400 720 410.5 706.5 Q421 693 446 693 Q470 693 488.5 711 Q507 729 513 764 L615 764 Q612 722 595 691 Q578 660 553 639.5 Q528 619 497.5 608.5 Q467 598 436 598 Q409 598 384 606 Q359 614 339.5 630.5 Q320 647 308.5 672 Q297 697 297 730 Q297 749 301 764 L402 764 Z " />
<glyph glyph-name="Edotaccent" unicode="&#x116;" horiz-adv-x="594" d="M75 0 L241 693 L694 693 L662 565 L365 565 L333 425 L595 425 L564 299 L302 299 L262 129 L582 129 L550 0 L75 0 Z M488 760 Q457 760 437 778 Q417 796 417 828 Q417 870 443.5 893 Q470 916 503 916 Q533 916 554 898 Q575 880 575 847 Q575 827 567.5 811 Q560 795 547.5 783.5 Q535 772 519.5 766 Q504 760 488 760 Z " />
<glyph glyph-name="edotaccent" unicode="&#x117;" horiz-adv-x="530" d="M100 206 Q100 270 122.5 330 Q145 390 186 436.5 Q227 483 285.5 511.5 Q344 540 415 540 Q450 540 480 530 Q510 520 532.5 501 Q555 482 567.5 454.5 Q580 427 580 392 Q580 336 555 297 Q530 258 485.5 233.5 Q441 209 380 198 Q319 187 247 187 Q254 145 277.5 127.5 Q301 110 352 110 Q384 110 417 115.5 Q450 121 479 132 L490 15 Q462 4 418.5 -5 Q375 -14 324 -14 Q262 -14 219.5 3.5 Q177 21 150.5 51 Q124 81 112 121 Q100 161 100 206 Z M391 422 Q340 422 301.5 385.5 Q263 349 251 289 Q313 291 351 299.5 Q389 308 410 320 Q431 332 438 346 Q445 360 445 374 Q445 422 391 422 Z M428 600 Q397 600 377 618 Q357 636 357 668 Q357 710 383.5 733 Q410 756 443 756 Q473 756 494 738 Q515 720 515 687 Q515 667 507.5 651 Q500 635 487.5 623.5 Q475 612 459.5 606 Q444 600 428 600 Z " />
<glyph glyph-name="Eogonek" unicode="&#x118;" horiz-adv-x="594" d="M75 0 L241 693 L694 693 L662 565 L365 565 L333 425 L595 425 L564 299 L302 299 L262 129 L582 129 L550 0 L546 -3 Q495 -38 475 -61 Q455 -84 455 -97 Q455 -113 480 -113 Q494 -113 510 -108.5 Q526 -104 533 -102 L523 -201 Q503 -210 478.5 -215.5 Q454 -221 428 -221 Q407 -221 387 -216.5 Q367 -212 351.5 -202 Q336 -192 327 -176 Q318 -160 318 -136 Q318 -106 339 -74 Q360 -42 408 -13 L430 0 L75 0 Z " />
<glyph glyph-name="eogonek" unicode="&#x119;" horiz-adv-x="530" d="M100 206 Q100 270 122.5 330 Q145 390 186 436.5 Q227 483 285.5 511.5 Q344 540 415 540 Q450 540 480 530 Q510 520 532.5 501 Q555 482 567.5 454.5 Q580 427 580 392 Q580 336 555 297 Q530 258 485.5 233.5 Q441 209 380 198 Q319 187 247 187 Q254 145 277.5 127.5 Q301 110 352 110 Q384 110 417 115.5 Q450 121 479 132 L490 15 L464 -3 Q413 -38 393 -61 Q373 -84 373 -97 Q373 -113 398 -113 Q412 -113 428 -108.5 Q444 -104 451 -102 L441 -201 Q421 -210 396.5 -215.5 Q372 -221 346 -221 Q325 -221 305 -216.5 Q285 -212 269.5 -202 Q254 -192 245 -176 Q236 -160 236 -136 Q236 -106 256 -74.5 Q276 -43 324 -14 Q262 -14 219.5 3.5 Q177 21 150.5 51 Q124 81 112 121 Q100 161 100 206 Z M391 422 Q340 422 301.5 385.5 Q263 349 251 289 Q313 291 351 299.5 Q389 308 410 320 Q431 332 438 346 Q445 360 445 374 Q445 422 391 422 Z " />
<glyph glyph-name="Ecaron" unicode="&#x11a;" horiz-adv-x="594" d="M75 0 L241 693 L694 693 L662 565 L365 565 L333 425 L595 425 L564 299 L302 299 L262 129 L582 129 L550 0 L75 0 Z M351 901 L411 954 L494 876 L607 952 L653 891 L474 746 L351 901 Z " />
<glyph glyph-name="ecaron" unicode="&#x11b;" horiz-adv-x="530" d="M100 206 Q100 270 122.5 330 Q145 390 186 436.5 Q227 483 285.5 511.5 Q344 540 415 540 Q450 540 480 530 Q510 520 532.5 501 Q555 482 567.5 454.5 Q580 427 580 392 Q580 336 555 297 Q530 258 485.5 233.5 Q441 209 380 198 Q319 187 247 187 Q254 145 277.5 127.5 Q301 110 352 110 Q384 110 417 115.5 Q450 121 479 132 L490 15 Q462 4 418.5 -5 Q375 -14 324 -14 Q262 -14 219.5 3.5 Q177 21 150.5 51 Q124 81 112 121 Q100 161 100 206 Z M391 422 Q340 422 301.5 385.5 Q263 349 251 289 Q313 291 351 299.5 Q389 308 410 320 Q431 332 438 346 Q445 360 445 374 Q445 422 391 422 Z M306 740 L366 793 L449 715 L562 791 L608 730 L429 585 L306 740 Z " />
<glyph glyph-name="Gcircumflex" unicode="&#x11c;" horiz-adv-x="688" d="M429 120 Q449 120 465 121.5 Q481 123 494 125 L552 366 L708 366 L624 19 Q596 8 543 -2.5 Q490 -13 408 -13 Q338 -13 284.5 7.5 Q231 28 195 66 Q159 104 141 158 Q123 212 123 280 Q123 358 150.5 435 Q178 512 232 572.5 Q286 633 366 671 Q446 709 550 709 Q598 709 651.5 695 Q705 681 748 653 L692 532 Q657 554 617.5 565 Q578 576 540 576 Q479 576 431.5 553 Q384 530 351 490.5 Q318 451 301 399 Q284 347 284 289 Q284 201 320.5 160.5 Q357 120 429 120 Z M695 795 L635 742 L552 820 L439 744 L393 805 L572 950 L695 795 Z " />
<glyph glyph-name="gcircumflex" unicode="&#x11d;" horiz-adv-x="567" d="M524 66 Q509 1 484.5 -46.5 Q460 -94 423.5 -125.5 Q387 -157 336 -172.5 Q285 -188 217 -188 Q154 -188 111 -176.5 Q68 -165 33 -148 L83 -30 Q114 -44 147.5 -54 Q181 -64 230 -64 Q294 -64 326.5 -35.5 Q359 -7 369 38 L373 57 Q353 47 330.5 41 Q308 35 283 35 Q236 35 202 49.5 Q168 64 146.5 90 Q125 116 114.5 151.5 Q104 187 104 229 Q104 305 132 363.5 Q160 422 206.5 461 Q253 500 313.5 520 Q374 540 440 540 Q488 540 535 530 Q582 520 627 499 L524 66 Z M458 411 Q441 415 416 415 Q378 415 348 401.5 Q318 388 296.5 365 Q275 342 263.5 309.5 Q252 277 252 240 Q252 222 255 206.5 Q258 191 266 179.5 Q274 168 288 161 Q302 154 323 154 Q337 154 360.5 159 Q384 164 403 182 L458 411 Z M617 629 L557 576 L474 654 L361 578 L315 639 L494 784 L617 629 Z " />
<glyph glyph-name="Gbreve" unicode="&#x11e;" horiz-adv-x="688" d="M429 120 Q449 120 465 121.5 Q481 123 494 125 L552 366 L708 366 L624 19 Q596 8 543 -2.5 Q490 -13 408 -13 Q338 -13 284.5 7.5 Q231 28 195 66 Q159 104 141 158 Q123 212 123 280 Q123 358 150.5 435 Q178 512 232 572.5 Q286 633 366 671 Q446 709 550 709 Q598 709 651.5 695 Q705 681 748 653 L692 532 Q657 554 617.5 565 Q578 576 540 576 Q479 576 431.5 553 Q384 530 351 490.5 Q318 451 301 399 Q284 347 284 289 Q284 201 320.5 160.5 Q357 120 429 120 Z M501 917 Q500 912 499.5 907 Q499 902 499 897 Q499 873 509.5 859.5 Q520 846 545 846 Q569 846 587.5 864 Q606 882 612 917 L714 917 Q711 875 694 844 Q677 813 652 792.5 Q627 772 596.5 761.5 Q566 751 535 751 Q508 751 483 759 Q458 767 438.5 783.5 Q419 800 407.5 825 Q396 850 396 883 Q396 902 400 917 L501 917 Z " />
<glyph glyph-name="gbreve" unicode="&#x11f;" horiz-adv-x="567" d="M524 66 Q509 1 484.5 -46.5 Q460 -94 423.5 -125.5 Q387 -157 336 -172.5 Q285 -188 217 -188 Q154 -188 111 -176.5 Q68 -165 33 -148 L83 -30 Q114 -44 147.5 -54 Q181 -64 230 -64 Q294 -64 326.5 -35.5 Q359 -7 369 38 L373 57 Q353 47 330.5 41 Q308 35 283 35 Q236 35 202 49.5 Q168 64 146.5 90 Q125 116 114.5 151.5 Q104 187 104 229 Q104 305 132 363.5 Q160 422 206.5 461 Q253 500 313.5 520 Q374 540 440 540 Q488 540 535 530 Q582 520 627 499 L524 66 Z M458 411 Q441 415 416 415 Q378 415 348 401.5 Q318 388 296.5 365 Q275 342 263.5 309.5 Q252 277 252 240 Q252 222 255 206.5 Q258 191 266 179.5 Q274 168 288 161 Q302 154 323 154 Q337 154 360.5 159 Q384 164 403 182 L458 411 Z M438 764 Q437 759 436.5 754 Q436 749 436 744 Q436 720 446.5 706.5 Q457 693 482 693 Q506 693 524.5 711 Q543 729 549 764 L651 764 Q648 722 631 691 Q614 660 589 639.5 Q564 619 533.5 608.5 Q503 598 472 598 Q445 598 420 606 Q395 614 375.5 630.5 Q356 647 344.5 672 Q333 697 333 730 Q333 749 337 764 L438 764 Z " />
<glyph glyph-name="Gdotaccent" unicode="&#x120;" horiz-adv-x="688" d="M429 120 Q449 120 465 121.5 Q481 123 494 125 L552 366 L708 366 L624 19 Q596 8 543 -2.5 Q490 -13 408 -13 Q338 -13 284.5 7.5 Q231 28 195 66 Q159 104 141 158 Q123 212 123 280 Q123 358 150.5 435 Q178 512 232 572.5 Q286 633 366 671 Q446 709 550 709 Q598 709 651.5 695 Q705 681 748 653 L692 532 Q657 554 617.5 565 Q578 576 540 576 Q479 576 431.5 553 Q384 530 351 490.5 Q318 451 301 399 Q284 347 284 289 Q284 201 320.5 160.5 Q357 120 429 120 Z M547 760 Q516 760 496 778 Q476 796 476 828 Q476 870 502.5 893 Q529 916 562 916 Q592 916 613 898 Q634 880 634 847 Q634 827 626.5 811 Q619 795 606.5 783.5 Q594 772 578.5 766 Q563 760 547 760 Z " />
<glyph glyph-name="gdotaccent" unicode="&#x121;" horiz-adv-x="567" d="M524 66 Q509 1 484.5 -46.5 Q460 -94 423.5 -125.5 Q387 -157 336 -172.5 Q285 -188 217 -188 Q154 -188 111 -176.5 Q68 -165 33 -148 L83 -30 Q114 -44 147.5 -54 Q181 -64 230 -64 Q294 -64 326.5 -35.5 Q359 -7 369 38 L373 57 Q353 47 330.5 41 Q308 35 283 35 Q236 35 202 49.5 Q168 64 146.5 90 Q125 116 114.5 151.5 Q104 187 104 229 Q104 305 132 363.5 Q160 422 206.5 461 Q253 500 313.5 520 Q374 540 440 540 Q488 540 535 530 Q582 520 627 499 L524 66 Z M458 411 Q441 415 416 415 Q378 415 348 401.5 Q318 388 296.5 365 Q275 342 263.5 309.5 Q252 277 252 240 Q252 222 255 206.5 Q258 191 266 179.5 Q274 168 288 161 Q302 154 323 154 Q337 154 360.5 159 Q384 164 403 182 L458 411 Z M456 600 Q425 600 405 618 Q385 636 385 668 Q385 710 411.5 733 Q438 756 471 756 Q501 756 522 738 Q543 720 543 687 Q543 667 535.5 651 Q528 635 515.5 623.5 Q503 612 487.5 606 Q472 600 456 600 Z " />
<glyph glyph-name="Gcommaaccent" unicode="&#x122;" horiz-adv-x="688" d="M465 -50 Q460 -97 445 -129 Q430 -161 408.5 -180 Q387 -199 360 -207 Q333 -215 303 -215 Q276 -215 246 -207 L267 -128 Q271 -129 274.5 -129 Q278 -129 281 -129 Q300 -129 312 -122.5 Q324 -116 330.5 -105 Q337 -94 340.5 -80 Q344 -66 347 -50 L465 -50 Z M429 120 Q449 120 465 121.5 Q481 123 494 125 L552 366 L708 366 L624 19 Q596 8 543 -2.5 Q490 -13 408 -13 Q338 -13 284.5 7.5 Q231 28 195 66 Q159 104 141 158 Q123 212 123 280 Q123 358 150.5 435 Q178 512 232 572.5 Q286 633 366 671 Q446 709 550 709 Q598 709 651.5 695 Q705 681 748 653 L692 532 Q657 554 617.5 565 Q578 576 540 576 Q479 576 431.5 553 Q384 530 351 490.5 Q318 451 301 399 Q284 347 284 289 Q284 201 320.5 160.5 Q357 120 429 120 Z " />
<glyph glyph-name="gcommaaccent" unicode="&#x123;" horiz-adv-x="567" d="M524 66 Q509 1 484.5 -46.5 Q460 -94 423.5 -125.5 Q387 -157 336 -172.5 Q285 -188 217 -188 Q154 -188 111 -176.5 Q68 -165 33 -148 L83 -30 Q114 -44 147.5 -54 Q181 -64 230 -64 Q294 -64 326.5 -35.5 Q359 -7 369 38 L373 57 Q353 47 330.5 41 Q308 35 283 35 Q236 35 202 49.5 Q168 64 146.5 90 Q125 116 114.5 151.5 Q104 187 104 229 Q104 305 132 363.5 Q160 422 206.5 461 Q253 500 313.5 520 Q374 540 440 540 Q488 540 535 530 Q582 520 627 499 L524 66 Z M458 411 Q441 415 416 415 Q378 415 348 401.5 Q318 388 296.5 365 Q275 342 263.5 309.5 Q252 277 252 240 Q252 222 255 206.5 Q258 191 266 179.5 Q274 168 288 161 Q302 154 323 154 Q337 154 360.5 159 Q384 164 403 182 L458 411 Z M389 599 Q390 606 391 612.5 Q392 619 394 626 Q411 696 451.5 736 Q492 776 559 793 L595 728 Q558 714 538 685.5 Q518 657 511 599 L389 599 Z " />
<glyph glyph-name="Hcircumflex" unicode="&#x124;" horiz-adv-x="714" d="M643 693 L799 693 L632 0 L476 0 L547 295 L301 295 L230 0 L75 0 L241 693 L397 693 L333 427 L579 427 L643 693 Z M678 795 L618 742 L535 820 L422 744 L376 805 L555 950 L678 795 Z " />
<glyph glyph-name="hcircumflex" unicode="&#x125;" horiz-adv-x="565" d="M425 535 Q468 535 499 522.5 Q530 510 550 487.5 Q570 465 580 434 Q590 403 590 367 Q590 325 580 284 L512 0 L363 0 L429 278 Q433 295 436.5 314 Q440 333 440 350 Q440 376 426.5 394.5 Q413 413 375 413 Q359 413 344.5 411 Q330 409 316 406 L219 0 L70 0 L250 752 L405 776 L344 525 Q364 529 384.5 532 Q405 535 425 535 Z M547 839 L497 792 L416 855 L310 792 L272 846 L427 962 L547 839 Z " />
<glyph glyph-name="Hbar" unicode="&#x126;" horiz-adv-x="714" d="M141 612 L221 612 L241 693 L397 693 L377 612 L623 612 L643 693 L799 693 L779 612 L857 612 L831 502 L753 502 L632 0 L476 0 L547 295 L301 295 L230 0 L75 0 L195 502 L115 502 L141 612 Z M597 502 L351 502 L333 427 L579 427 L597 502 Z " />
<glyph glyph-name="hbar" unicode="&#x127;" horiz-adv-x="565" d="M423 523 Q464 523 495 510 Q526 497 546.5 473.5 Q567 450 577.5 418.5 Q588 387 588 350 Q588 332 585.5 312 Q583 292 578 272 L512 0 L363 0 L427 266 Q430 280 433.5 297.5 Q437 315 437 332 Q437 360 424 380.5 Q411 401 373 401 Q357 401 342.5 399 Q328 397 314 394 L219 0 L70 0 L212 596 L150 596 L173 689 L235 689 L250 752 L405 776 L384 689 L527 689 L504 596 L362 596 L342 513 Q362 517 382.5 520 Q403 523 423 523 Z " />
<glyph glyph-name="Itilde" unicode="&#x128;" horiz-adv-x="312" d="M241 693 L397 693 L230 0 L75 0 L241 693 Z M403 770 Q384 770 369 775.5 Q354 781 341 787.5 Q328 794 316 799.5 Q304 805 292 805 Q278 805 266.5 797 Q255 789 238 764 L171 805 Q194 859 226 885.5 Q258 912 304 912 Q323 912 338 906.5 Q353 901 366 894.5 Q379 888 391 882.5 Q403 877 415 877 Q429 877 440.5 885 Q452 893 469 918 L536 877 Q513 823 481 796.5 Q449 770 403 770 Z " />
<glyph glyph-name="itilde" unicode="&#x129;" horiz-adv-x="283" d="M218 0 L70 0 L195 526 L344 526 L218 0 Z M354 607 Q335 607 320 612.5 Q305 618 292 624.5 Q279 631 267 636.5 Q255 642 243 642 Q229 642 217.5 634 Q206 626 189 601 L122 642 Q145 696 177 722.5 Q209 749 255 749 Q274 749 289 743.5 Q304 738 317 731.5 Q330 725 342 719.5 Q354 714 366 714 Q380 714 391.5 722 Q403 730 420 755 L487 714 Q464 660 432 633.5 Q400 607 354 607 Z " />
<glyph glyph-name="Imacron" unicode="&#x12a;" horiz-adv-x="312" d="M241 693 L397 693 L230 0 L75 0 L241 693 Z M207 878 L529 878 L504 776 L182 776 L207 878 Z " />
<glyph glyph-name="imacron" unicode="&#x12b;" horiz-adv-x="283" d="M218 0 L70 0 L195 526 L344 526 L218 0 Z M158 725 L480 725 L455 623 L133 623 L158 725 Z " />
<glyph glyph-name="Ibreve" unicode="&#x12c;" horiz-adv-x="312" d="M241 693 L397 693 L230 0 L75 0 L241 693 Z M310 917 Q309 912 308.5 907 Q308 902 308 897 Q308 873 318.5 859.5 Q329 846 354 846 Q378 846 396.5 864 Q415 882 421 917 L523 917 Q520 875 503 844 Q486 813 461 792.5 Q436 772 405.5 761.5 Q375 751 344 751 Q317 751 292 759 Q267 767 247.5 783.5 Q228 800 216.5 825 Q205 850 205 883 Q205 902 209 917 L310 917 Z " />
<glyph glyph-name="ibreve" unicode="&#x12d;" horiz-adv-x="283" d="M218 0 L70 0 L195 526 L344 526 L218 0 Z M260 764 Q259 759 258.5 754 Q258 749 258 744 Q258 720 268.5 706.5 Q279 693 304 693 Q328 693 346.5 711 Q365 729 371 764 L473 764 Q470 722 453 691 Q436 660 411 639.5 Q386 619 355.5 608.5 Q325 598 294 598 Q267 598 242 606 Q217 614 197.5 630.5 Q178 647 166.5 672 Q155 697 155 730 Q155 749 159 764 L260 764 Z " />
<glyph glyph-name="Iogonek" unicode="&#x12e;" horiz-adv-x="312" d="M241 693 L397 693 L230 0 L229 0 Q215 -10 198 -22 Q181 -34 167 -47 Q153 -60 143.5 -72.5 Q134 -85 134 -96 Q134 -104 139.5 -108.5 Q145 -113 159 -113 Q168 -113 181 -111.5 Q194 -110 212 -105 L200 -205 Q179 -213 149.5 -217 Q120 -221 97 -221 Q49 -221 23 -199.5 Q-3 -178 -3 -144 Q-3 -123 7 -103 Q17 -83 32.5 -65 Q48 -47 68 -30.5 Q88 -14 109 0 L75 0 L241 693 Z " />
<glyph glyph-name="iogonek" unicode="&#x12f;" horiz-adv-x="283" d="M218 0 Q204 -10 187 -22.5 Q170 -35 156 -47.5 Q142 -60 132.5 -72.5 Q123 -85 123 -96 Q123 -104 128.5 -108.5 Q134 -113 148 -113 Q157 -113 170 -111.5 Q183 -110 201 -105 L189 -205 Q168 -213 138.5 -217 Q109 -221 86 -221 Q38 -221 12 -199.5 Q-14 -178 -14 -144 Q-14 -123 -4 -103 Q6 -83 21.5 -65 Q37 -47 57 -30.5 Q77 -14 98 0 L70 0 L195 526 L344 526 L218 0 Z M290 590 Q259 590 234 608.5 Q209 627 209 665 Q209 686 217.5 704.5 Q226 723 240 736.5 Q254 750 272.5 758 Q291 766 312 766 Q343 766 368 747.5 Q393 729 393 691 Q393 670 384.5 651.5 Q376 633 362 619.5 Q348 606 329.5 598 Q311 590 290 590 Z " />
<glyph glyph-name="Idotaccent" unicode="&#x130;" horiz-adv-x="312" d="M241 693 L397 693 L230 0 L75 0 L241 693 Z M341 760 Q310 760 290 778 Q270 796 270 828 Q270 870 296.5 893 Q323 916 356 916 Q386 916 407 898 Q428 880 428 847 Q428 827 420.5 811 Q413 795 400.5 783.5 Q388 772 372.5 766 Q357 760 341 760 Z " />
<glyph glyph-name="dotlessi" unicode="&#x131;" horiz-adv-x="283" d="M218 0 L70 0 L195 526 L344 526 L218 0 Z " />
<glyph glyph-name="IJ" unicode="&#x132;" horiz-adv-x="841" d="M241 693 L397 693 L230 0 L75 0 L241 693 Z M810 210 Q798 159 778 117.5 Q758 76 726 46.5 Q694 17 647 1.5 Q600 -14 533 -14 Q479 -14 430.5 2.5 Q382 19 345 47 L414 163 Q438 146 466.5 133 Q495 120 534 120 Q562 120 582.5 126.5 Q603 133 618 147.5 Q633 162 643.5 185 Q654 208 662 241 L770 693 L926 693 L810 210 Z " />
<glyph glyph-name="ij" unicode="&#x133;" horiz-adv-x="588" d="M218 0 L70 0 L195 526 L344 526 L218 0 Z M290 590 Q259 590 234 608.5 Q209 627 209 665 Q209 686 217.5 704.5 Q226 723 240 736.5 Q254 750 272.5 758 Q291 766 312 766 Q343 766 368 747.5 Q393 729 393 691 Q393 670 384.5 651.5 Q376 633 362 619.5 Q348 606 329.5 598 Q311 590 290 590 Z M311 -185 Q283 -185 255.5 -179.5 Q228 -174 206 -166 L244 -48 Q258 -53 271.5 -56 Q285 -59 302 -59 Q337 -59 356 -38 Q375 -17 383 23 L504 526 L653 526 L531 19 Q507 -85 456 -135 Q405 -185 311 -185 Z M599 590 Q568 590 543 608.5 Q518 627 518 665 Q518 686 526.5 704.5 Q535 723 549 736.5 Q563 750 581.5 758 Q600 766 621 766 Q652 766 677 747.5 Q702 729 702 691 Q702 670 693.5 651.5 Q685 633 671 619.5 Q657 606 638.5 598 Q620 590 599 590 Z " />
<glyph glyph-name="Jcircumflex" unicode="&#x134;" horiz-adv-x="516" d="M485 210 Q473 159 453 117.5 Q433 76 401 46.5 Q369 17 322 1.5 Q275 -14 208 -14 Q154 -14 105.5 2.5 Q57 19 20 47 L89 163 Q113 146 141.5 133 Q170 120 209 120 Q237 120 257.5 126.5 Q278 133 293 147.5 Q308 162 318.5 185 Q329 208 337 241 L445 693 L601 693 L485 210 Z M691 795 L631 742 L548 820 L435 744 L389 805 L568 950 L691 795 Z " />
<glyph glyph-name="jcircumflex" unicode="&#x135;" horiz-adv-x="290" d="M15 -185 Q-13 -185 -40.5 -179.5 Q-68 -174 -90 -166 L-52 -48 Q-38 -53 -24.5 -56 Q-11 -59 6 -59 Q41 -59 60 -38 Q79 -17 87 23 L208 526 L357 526 L235 19 Q211 -85 160 -135 Q109 -185 15 -185 Z M447 629 L387 576 L304 654 L191 578 L145 639 L324 784 L447 629 Z " />
<glyph glyph-name="Kcommaaccent" unicode="&#x136;" horiz-adv-x="662" d="M409 -50 Q404 -97 389 -129 Q374 -161 352.5 -180 Q331 -199 304 -207 Q277 -215 247 -215 Q220 -215 190 -207 L211 -128 Q215 -129 218.5 -129 Q222 -129 225 -129 Q244 -129 256 -122.5 Q268 -116 274.5 -105 Q281 -94 284.5 -80 Q288 -66 291 -50 L409 -50 Z M483 0 Q469 34 449.5 73 Q430 112 406.5 151 Q383 190 356 226 Q329 262 301 290 L230 0 L75 0 L241 693 L397 693 L336 443 Q414 510 483 571.5 Q552 633 612 693 L797 693 Q706 608 616.5 524.5 Q527 441 428 362 Q491 293 549 204 Q607 115 653 0 L483 0 Z " />
<glyph glyph-name="kcommaaccent" unicode="&#x137;" horiz-adv-x="561" d="M358 -50 Q353 -97 338 -129 Q323 -161 301.5 -180 Q280 -199 253 -207 Q226 -215 196 -215 Q169 -215 139 -207 L160 -128 Q164 -129 167.5 -129 Q171 -129 174 -129 Q193 -129 205 -122.5 Q217 -116 223.5 -105 Q230 -94 233.5 -80 Q237 -66 240 -50 L358 -50 Z M299 336 Q359 384 412 434 Q465 484 503 526 L671 526 Q615 464 554.5 404.5 Q494 345 416 278 Q437 252 458.5 218 Q480 184 499.5 147 Q519 110 535.5 72 Q552 34 563 0 L397 0 Q388 26 374.5 57 Q361 88 344.5 118.5 Q328 149 310 178 Q292 207 274 230 L218 0 L70 0 L250 752 L405 776 L299 336 Z " />
<glyph glyph-name="kgreenlandic" unicode="&#x138;" horiz-adv-x="574" d="M299 336 Q326 360 354 386 Q382 412 408 437 Q434 462 457.5 485 Q481 508 499 526 L679 526 Q623 464 561 404 Q499 344 416 278 Q437 252 458.5 218 Q480 184 499.5 147 Q519 110 535.5 72 Q552 34 563 0 L397 0 Q388 26 374.5 57 Q361 88 344.5 118.5 Q328 149 310 178 Q292 207 274 230 L218 0 L70 0 L196 526 L345 526 L299 336 Z " />
<glyph glyph-name="Lacute" unicode="&#x139;" horiz-adv-x="564" d="M569 132 L537 0 L75 0 L241 693 L397 693 L262 132 L569 132 Z M497 872 L320 736 L260 798 L420 959 L497 872 Z " />
<glyph glyph-name="lacute" unicode="&#x13a;" horiz-adv-x="315" d="M288 -10 Q217 -10 176.5 8.5 Q136 27 118.5 59 Q101 91 101.5 132.5 Q102 174 113 221 L240 752 L395 776 L256 200 Q252 182 251.5 167 Q251 152 257 140.5 Q263 129 277.5 122 Q292 115 318 113 L288 -10 Z M489 859 L261 792 L243 857 L461 962 L489 859 Z " />
<glyph glyph-name="Lcommaaccent" unicode="&#x13b;" horiz-adv-x="564" d="M393 -50 Q388 -97 373 -129 Q358 -161 336.5 -180 Q315 -199 288 -207 Q261 -215 231 -215 Q204 -215 174 -207 L195 -128 Q199 -129 202.5 -129 Q206 -129 209 -129 Q228 -129 240 -122.5 Q252 -116 258.5 -105 Q265 -94 268.5 -80 Q272 -66 275 -50 L393 -50 Z M569 132 L537 0 L75 0 L241 693 L397 693 L262 132 L569 132 Z " />
<glyph glyph-name="lcommaaccent" unicode="&#x13c;" horiz-adv-x="315" d="M263 -50 Q258 -97 243 -129 Q228 -161 206.5 -180 Q185 -199 158 -207 Q131 -215 101 -215 Q74 -215 44 -207 L65 -128 Q69 -129 72.5 -129 Q76 -129 79 -129 Q98 -129 110 -122.5 Q122 -116 128.5 -105 Q135 -94 138.5 -80 Q142 -66 145 -50 L263 -50 Z M288 -10 Q217 -10 176.5 8.5 Q136 27 118.5 59 Q101 91 101.5 132.5 Q102 174 113 221 L240 752 L395 776 L256 200 Q252 182 251.5 167 Q251 152 257 140.5 Q263 129 277.5 122 Q292 115 318 113 L288 -10 Z " />
<glyph glyph-name="Lcaron" unicode="&#x13d;" horiz-adv-x="564" d="M569 132 L537 0 L75 0 L241 693 L397 693 L262 132 L569 132 Z M605 695 L512 451 L424 451 L479 695 L605 695 Z " />
<glyph glyph-name="lcaron" unicode="&#x13e;" horiz-adv-x="331" d="M270 -10 Q199 -10 158.5 8.5 Q118 27 100.5 59 Q83 91 83.5 132.5 Q84 174 95 221 L222 752 L377 776 L238 200 Q234 182 233.5 167 Q233 152 239 140.5 Q245 129 259.5 122 Q274 115 300 113 L270 -10 Z M571 776 L478 532 L390 532 L445 776 L571 776 Z " />
<glyph glyph-name="Ldot" unicode="&#x13f;" horiz-adv-x="564" d="M569 132 L537 0 L75 0 L241 693 L397 693 L262 132 L569 132 Z M542 495 Q577 495 600.5 475.5 Q624 456 624 414 Q624 391 615.5 372 Q607 353 593 339.5 Q579 326 561 318.5 Q543 311 524 311 Q489 311 465.5 330.5 Q442 350 442 392 Q442 415 450.5 434 Q459 453 473 466.5 Q487 480 505 487.5 Q523 495 542 495 Z " />
<glyph glyph-name="ldot" unicode="&#x140;" horiz-adv-x="501" d="M270 -10 Q199 -10 158.5 8.5 Q118 27 100.5 59 Q83 91 83.5 132.5 Q84 174 95 221 L222 752 L377 776 L238 200 Q234 182 233.5 167 Q233 152 239 140.5 Q245 129 259.5 122 Q274 115 300 113 L270 -10 Z M489 504 Q524 504 547.5 484.5 Q571 465 571 423 Q571 400 562.5 381 Q554 362 540 348.5 Q526 335 508 327.5 Q490 320 471 320 Q436 320 412.5 339.5 Q389 359 389 401 Q389 424 397.5 443 Q406 462 420 475.5 Q434 489 452 496.5 Q470 504 489 504 Z " />
<glyph glyph-name="Lslash" unicode="&#x141;" horiz-adv-x="564" d="M569 132 L537 0 L75 0 L136 256 L62 223 L38 324 L166 382 L241 693 L397 693 L341 460 L473 520 L498 419 L311 335 L262 132 L569 132 Z " />
<glyph glyph-name="lslash" unicode="&#x142;" horiz-adv-x="315" d="M268 -10 Q197 -10 156.5 8.5 Q116 27 98.5 59 Q81 91 81.5 132.5 Q82 174 93 221 L117 322 L70 301 L48 393 L144 436 L220 752 L375 776 L311 510 L413 556 L435 464 L283 396 L236 200 Q232 182 231.5 167 Q231 152 237 140.5 Q243 129 257.5 122 Q272 115 298 113 L268 -10 Z " />
<glyph glyph-name="Nacute" unicode="&#x143;" horiz-adv-x="742" d="M543 0 Q501 118 449.5 236 Q398 354 338 459 L228 0 L75 0 L241 693 L360 693 Q383 658 409.5 610.5 Q436 563 464 508 Q492 453 520 393.5 Q548 334 573 276 L672 693 L827 693 L660 0 L543 0 Z M692 872 L515 736 L455 798 L615 959 L692 872 Z " />
<glyph glyph-name="nacute" unicode="&#x144;" horiz-adv-x="567" d="M191 502 Q208 507 228.5 513.5 Q249 520 274.5 525.5 Q300 531 331.5 534.5 Q363 538 403 538 Q521 538 565 470 Q609 402 580 284 L512 0 L363 0 L429 278 Q435 304 438.5 328.5 Q442 353 438 371.5 Q434 390 419.5 401.5 Q405 413 375 413 Q346 413 316 407 L219 0 L70 0 L191 502 Z M579 712 L402 576 L342 638 L502 799 L579 712 Z " />
<glyph glyph-name="Ncommaaccent" unicode="&#x145;" horiz-adv-x="742" d="M438 -50 Q433 -97 418 -129 Q403 -161 381.5 -180 Q360 -199 333 -207 Q306 -215 276 -215 Q249 -215 219 -207 L240 -128 Q244 -129 247.5 -129 Q251 -129 254 -129 Q273 -129 285 -122.5 Q297 -116 303.5 -105 Q310 -94 313.5 -80 Q317 -66 320 -50 L438 -50 Z M543 0 Q501 118 449.5 236 Q398 354 338 459 L228 0 L75 0 L241 693 L360 693 Q383 658 409.5 610.5 Q436 563 464 508 Q492 453 520 393.5 Q548 334 573 276 L672 693 L827 693 L660 0 L543 0 Z " />
<glyph glyph-name="ncommaaccent" unicode="&#x146;" horiz-adv-x="567" d="M337 -50 Q332 -97 317 -129 Q302 -161 280.5 -180 Q259 -199 232 -207 Q205 -215 175 -215 Q148 -215 118 -207 L139 -128 Q143 -129 146.5 -129 Q150 -129 153 -129 Q172 -129 184 -122.5 Q196 -116 202.5 -105 Q209 -94 212.5 -80 Q216 -66 219 -50 L337 -50 Z M191 502 Q208 507 228.5 513.5 Q249 520 274.5 525.5 Q300 531 331.5 534.5 Q363 538 403 538 Q521 538 565 470 Q609 402 580 284 L512 0 L363 0 L429 278 Q435 304 438.5 328.5 Q442 353 438 371.5 Q434 390 419.5 401.5 Q405 413 375 413 Q346 413 316 407 L219 0 L70 0 L191 502 Z " />
<glyph glyph-name="Ncaron" unicode="&#x147;" horiz-adv-x="742" d="M543 0 Q501 118 449.5 236 Q398 354 338 459 L228 0 L75 0 L241 693 L360 693 Q383 658 409.5 610.5 Q436 563 464 508 Q492 453 520 393.5 Q548 334 573 276 L672 693 L827 693 L660 0 L543 0 Z M401 901 L461 954 L544 876 L657 952 L703 891 L524 746 L401 901 Z " />
<glyph glyph-name="ncaron" unicode="&#x148;" horiz-adv-x="567" d="M191 502 Q208 507 228.5 513.5 Q249 520 274.5 525.5 Q300 531 331.5 534.5 Q363 538 403 538 Q521 538 565 470 Q609 402 580 284 L512 0 L363 0 L429 278 Q435 304 438.5 328.5 Q442 353 438 371.5 Q434 390 419.5 401.5 Q405 413 375 413 Q346 413 316 407 L219 0 L70 0 L191 502 Z M292 740 L352 793 L435 715 L548 791 L594 730 L415 585 L292 740 Z " />
<glyph glyph-name="napostrophe" unicode="&#x149;" horiz-adv-x="603" d="M229 502 Q246 507 266.5 513.5 Q287 520 312.5 525.5 Q338 531 369.5 534.5 Q401 538 441 538 Q559 538 603 470 Q647 402 618 284 L550 0 L401 0 L467 278 Q473 304 476.5 328.5 Q480 353 476 371.5 Q472 390 457.5 401.5 Q443 413 413 413 Q384 413 354 407 L257 0 L108 0 L229 502 Z M286 776 Q276 735 265 705.5 Q254 676 241 651.5 Q228 627 211 603.5 Q194 580 172 553 L83 584 Q100 611 112.5 634 Q125 657 133.5 679.5 Q142 702 147.5 725.5 Q153 749 156 776 L286 776 Z " />
<glyph glyph-name="Eng" unicode="&#x14a;" horiz-adv-x="742" d="M522 57 Q483 162 436.5 265 Q390 368 338 459 L228 0 L75 0 L241 693 L360 693 Q388 646 417 593.5 Q446 541 473.5 487 Q501 433 526.5 379 Q552 325 573 276 L672 693 L827 693 L665 17 Q642 -78 591 -132.5 Q540 -187 453 -187 Q430 -187 404.5 -183 Q379 -179 350 -170 L397 -52 Q421 -61 439 -61 Q475 -61 492 -29.5 Q509 2 522 57 Z " />
<glyph glyph-name="eng" unicode="&#x14b;" horiz-adv-x="567" d="M191 502 Q208 507 228.5 513.5 Q249 520 274.5 525.5 Q300 531 331.5 534.5 Q363 538 403 538 Q521 538 565 470 Q609 402 580 284 L505 -30 Q494 -77 473.5 -107 Q453 -137 427 -155 Q401 -173 371.5 -180 Q342 -187 312 -187 Q283 -187 256.5 -182 Q230 -177 209 -170 L247 -63 Q275 -74 295 -74 Q318 -74 335 -58.5 Q352 -43 362 -4 L429 278 Q435 304 438.5 328.5 Q442 353 438 371.5 Q434 390 419.5 401.5 Q405 413 375 413 Q346 413 316 407 L219 0 L70 0 L191 502 Z " />
<glyph glyph-name="Omacron" unicode="&#x14c;" horiz-adv-x="757" d="M500 575 Q454 575 414.5 551 Q375 527 345.5 487 Q316 447 299.5 395 Q283 343 283 288 Q283 213 314.5 166.5 Q346 120 417 120 Q463 120 502.5 144 Q542 168 571.5 208 Q601 248 617.5 299.5 Q634 351 634 407 Q634 482 602.5 528.5 Q571 575 500 575 Z M401 -14 Q340 -14 289 6 Q238 26 201 63.5 Q164 101 143.5 155 Q123 209 123 277 Q123 355 150 432 Q177 509 227.5 570.5 Q278 632 351 670.5 Q424 709 516 709 Q577 709 628 689 Q679 669 716 631.5 Q753 594 773.5 540 Q794 486 794 418 Q794 340 767.5 262.5 Q741 185 690.5 123.5 Q640 62 567 24 Q494 -14 401 -14 Z M395 878 L717 878 L692 776 L370 776 L395 878 Z " />
<glyph glyph-name="omacron" unicode="&#x14d;" horiz-adv-x="574" d="M308 -14 Q255 -14 216 2 Q177 18 151.5 47 Q126 76 113 115.5 Q100 155 100 203 Q100 263 119.5 323 Q139 383 177 431 Q215 479 270 509.5 Q325 540 396 540 Q448 540 487.5 524 Q527 508 552.5 479 Q578 450 591 410.5 Q604 371 604 323 Q604 263 585 203 Q566 143 529 95 Q492 47 436.5 16.5 Q381 -14 308 -14 Z M382 414 Q349 414 324 395 Q299 376 282 347 Q265 318 256.5 283.5 Q248 249 248 218 Q248 167 264 139.5 Q280 112 322 112 Q355 112 380 131 Q405 150 422 179 Q439 208 447.5 242.5 Q456 277 456 308 Q456 359 440 386.5 Q424 414 382 414 Z M278 725 L600 725 L575 623 L253 623 L278 725 Z " />
<glyph glyph-name="Obreve" unicode="&#x14e;" horiz-adv-x="757" d="M500 575 Q454 575 414.5 551 Q375 527 345.5 487 Q316 447 299.5 395 Q283 343 283 288 Q283 213 314.5 166.5 Q346 120 417 120 Q463 120 502.5 144 Q542 168 571.5 208 Q601 248 617.5 299.5 Q634 351 634 407 Q634 482 602.5 528.5 Q571 575 500 575 Z M401 -14 Q340 -14 289 6 Q238 26 201 63.5 Q164 101 143.5 155 Q123 209 123 277 Q123 355 150 432 Q177 509 227.5 570.5 Q278 632 351 670.5 Q424 709 516 709 Q577 709 628 689 Q679 669 716 631.5 Q753 594 773.5 540 Q794 486 794 418 Q794 340 767.5 262.5 Q741 185 690.5 123.5 Q640 62 567 24 Q494 -14 401 -14 Z M494 917 Q493 912 492.5 907 Q492 902 492 897 Q492 873 502.5 859.5 Q513 846 538 846 Q562 846 580.5 864 Q599 882 605 917 L707 917 Q704 875 687 844 Q670 813 645 792.5 Q620 772 589.5 761.5 Q559 751 528 751 Q501 751 476 759 Q451 767 431.5 783.5 Q412 800 400.5 825 Q389 850 389 883 Q389 902 393 917 L494 917 Z " />
<glyph glyph-name="obreve" unicode="&#x14f;" horiz-adv-x="574" d="M308 -14 Q255 -14 216 2 Q177 18 151.5 47 Q126 76 113 115.5 Q100 155 100 203 Q100 263 119.5 323 Q139 383 177 431 Q215 479 270 509.5 Q325 540 396 540 Q448 540 487.5 524 Q527 508 552.5 479 Q578 450 591 410.5 Q604 371 604 323 Q604 263 585 203 Q566 143 529 95 Q492 47 436.5 16.5 Q381 -14 308 -14 Z M382 414 Q349 414 324 395 Q299 376 282 347 Q265 318 256.5 283.5 Q248 249 248 218 Q248 167 264 139.5 Q280 112 322 112 Q355 112 380 131 Q405 150 422 179 Q439 208 447.5 242.5 Q456 277 456 308 Q456 359 440 386.5 Q424 414 382 414 Z M371 764 Q370 759 369.5 754 Q369 749 369 744 Q369 720 379.5 706.5 Q390 693 415 693 Q439 693 457.5 711 Q476 729 482 764 L584 764 Q581 722 564 691 Q547 660 522 639.5 Q497 619 466.5 608.5 Q436 598 405 598 Q378 598 353 606 Q328 614 308.5 630.5 Q289 647 277.5 672 Q266 697 266 730 Q266 749 270 764 L371 764 Z " />
<glyph glyph-name="Ohungarumlaut" unicode="&#x150;" horiz-adv-x="757" d="M500 575 Q454 575 414.5 551 Q375 527 345.5 487 Q316 447 299.5 395 Q283 343 283 288 Q283 213 314.5 166.5 Q346 120 417 120 Q463 120 502.5 144 Q542 168 571.5 208 Q601 248 617.5 299.5 Q634 351 634 407 Q634 482 602.5 528.5 Q571 575 500 575 Z M401 -14 Q340 -14 289 6 Q238 26 201 63.5 Q164 101 143.5 155 Q123 209 123 277 Q123 355 150 432 Q177 509 227.5 570.5 Q278 632 351 670.5 Q424 709 516 709 Q577 709 628 689 Q679 669 716 631.5 Q753 594 773.5 540 Q794 486 794 418 Q794 340 767.5 262.5 Q741 185 690.5 123.5 Q640 62 567 24 Q494 -14 401 -14 Z M571 875 L407 739 L353 800 L499 961 L571 875 Z M774 875 L610 739 L556 800 L702 961 L774 875 Z " />
<glyph glyph-name="ohungarumlaut" unicode="&#x151;" horiz-adv-x="574" d="M308 -14 Q255 -14 216 2 Q177 18 151.5 47 Q126 76 113 115.5 Q100 155 100 203 Q100 263 119.5 323 Q139 383 177 431 Q215 479 270 509.5 Q325 540 396 540 Q448 540 487.5 524 Q527 508 552.5 479 Q578 450 591 410.5 Q604 371 604 323 Q604 263 585 203 Q566 143 529 95 Q492 47 436.5 16.5 Q381 -14 308 -14 Z M382 414 Q349 414 324 395 Q299 376 282 347 Q265 318 256.5 283.5 Q248 249 248 218 Q248 167 264 139.5 Q280 112 322 112 Q355 112 380 131 Q405 150 422 179 Q439 208 447.5 242.5 Q456 277 456 308 Q456 359 440 386.5 Q424 414 382 414 Z M470 713 L306 577 L252 638 L398 799 L470 713 Z M673 713 L509 577 L455 638 L601 799 L673 713 Z " />
<glyph glyph-name="Racute" unicode="&#x154;" horiz-adv-x="656" d="M436 701 Q503 701 553 685 Q603 669 636 642 Q669 615 685 578.5 Q701 542 701 502 Q701 469 693.5 437 Q686 405 665.5 376 Q645 347 610.5 322.5 Q576 298 522 281 Q550 229 579.5 155 Q609 81 635 0 L468 0 Q445 69 421.5 136.5 Q398 204 369 253 L291 253 L230 0 L75 0 L238 683 Q292 693 343 697 Q394 701 436 701 Z M431 569 Q414 569 396 568 Q378 567 366 566 L321 376 L374 376 Q422 376 455 385 Q488 394 508 409 Q528 424 536.5 443.5 Q545 463 545 483 Q545 500 540 515.5 Q535 531 522 543 Q509 555 487 562 Q465 569 431 569 Z M613 872 L436 736 L376 798 L536 959 L613 872 Z " />
<glyph glyph-name="racute" unicode="&#x155;" horiz-adv-x="426" d="M472 398 Q452 403 432.5 407.5 Q413 412 375 412 Q361 412 344 409.5 Q327 407 316 404 L219 0 L70 0 L190 498 Q233 512 286.5 524.5 Q340 537 407 537 Q432 537 462.5 532.5 Q493 528 516 518 L472 398 Z M523 712 L346 576 L286 638 L446 799 L523 712 Z " />
<glyph glyph-name="Rcommaaccent" unicode="&#x156;" horiz-adv-x="656" d="M436 701 Q503 701 553 685 Q603 669 636 642 Q669 615 685 578.5 Q701 542 701 502 Q701 469 693.5 437 Q686 405 665.5 376 Q645 347 610.5 322.5 Q576 298 522 281 Q550 229 579.5 155 Q609 81 635 0 L468 0 Q445 69 421.5 136.5 Q398 204 369 253 L291 253 L230 0 L75 0 L238 683 Q292 693 343 697 Q394 701 436 701 Z M431 569 Q414 569 396 568 Q378 567 366 566 L321 376 L374 376 Q422 376 455 385 Q488 394 508 409 Q528 424 536.5 443.5 Q545 463 545 483 Q545 500 540 515.5 Q535 531 522 543 Q509 555 487 562 Q465 569 431 569 Z M395 -50 Q390 -97 375 -129 Q360 -161 338.5 -180 Q317 -199 290 -207 Q263 -215 233 -215 Q206 -215 176 -207 L197 -128 Q201 -129 204.5 -129 Q208 -129 211 -129 Q230 -129 242 -122.5 Q254 -116 260.5 -105 Q267 -94 270.5 -80 Q274 -66 277 -50 L395 -50 Z " />
<glyph glyph-name="rcommaaccent" unicode="&#x157;" horiz-adv-x="426" d="M189 -50 Q184 -97 169 -129 Q154 -161 132.5 -180 Q111 -199 84 -207 Q57 -215 27 -215 Q0 -215 -30 -207 L-9 -128 Q-5 -129 -1.5 -129 Q2 -129 5 -129 Q24 -129 36 -122.5 Q48 -116 54.5 -105 Q61 -94 64.5 -80 Q68 -66 71 -50 L189 -50 Z M472 398 Q452 403 432.5 407.5 Q413 412 375 412 Q361 412 344 409.5 Q327 407 316 404 L219 0 L70 0 L190 498 Q233 512 286.5 524.5 Q340 537 407 537 Q432 537 462.5 532.5 Q493 528 516 518 L472 398 Z " />
<glyph glyph-name="Rcaron" unicode="&#x158;" horiz-adv-x="656" d="M436 701 Q503 701 553 685 Q603 669 636 642 Q669 615 685 578.5 Q701 542 701 502 Q701 469 693.5 437 Q686 405 665.5 376 Q645 347 610.5 322.5 Q576 298 522 281 Q550 229 579.5 155 Q609 81 635 0 L468 0 Q445 69 421.5 136.5 Q398 204 369 253 L291 253 L230 0 L75 0 L238 683 Q292 693 343 697 Q394 701 436 701 Z M431 569 Q414 569 396 568 Q378 567 366 566 L321 376 L374 376 Q422 376 455 385 Q488 394 508 409 Q528 424 536.5 443.5 Q545 463 545 483 Q545 500 540 515.5 Q535 531 522 543 Q509 555 487 562 Q465 569 431 569 Z M340 901 L400 954 L483 876 L596 952 L642 891 L463 746 L340 901 Z " />
<glyph glyph-name="rcaron" unicode="&#x159;" horiz-adv-x="426" d="M472 398 Q452 403 432.5 407.5 Q413 412 375 412 Q361 412 344 409.5 Q327 407 316 404 L219 0 L70 0 L190 498 Q233 512 286.5 524.5 Q340 537 407 537 Q432 537 462.5 532.5 Q493 528 516 518 L472 398 Z M263 740 L323 793 L406 715 L519 791 L565 730 L386 585 L263 740 Z " />
<glyph glyph-name="Sacute" unicode="&#x15a;" horiz-adv-x="559" d="M269 116 Q292 116 315 119.5 Q338 123 356 132 Q374 141 385.5 157.5 Q397 174 397 200 Q397 220 386 234.5 Q375 249 358 261 Q341 273 320 283 Q299 293 278 305 Q251 321 227 339 Q203 357 186 379.5 Q169 402 159 429.5 Q149 457 149 493 Q149 539 166.5 578.5 Q184 618 218.5 647 Q253 676 305 692.5 Q357 709 427 709 Q459 709 489 703.5 Q519 698 545 690 Q571 682 592.5 671.5 Q614 661 629 651 L564 536 Q539 555 503 568 Q467 581 425 581 Q402 581 381 577 Q360 573 344 563.5 Q328 554 318.5 539 Q309 524 309 502 Q309 482 316.5 468.5 Q324 455 336 445 Q348 435 364 427 Q380 419 398 410 Q429 394 458 376 Q487 358 509 334.5 Q531 311 544 281 Q557 251 557 210 Q557 153 536 111 Q515 69 477 41 Q439 13 386.5 -0.5 Q334 -14 270 -14 Q228 -14 191.5 -7 Q155 0 125.5 9.5 Q96 19 74.5 30 Q53 41 40 50 L106 169 Q118 161 135 152 Q152 143 173.5 135 Q195 127 219 121.5 Q243 116 269 116 Z M569 872 L392 736 L332 798 L492 959 L569 872 Z " />
<glyph glyph-name="sacute" unicode="&#x15b;" horiz-adv-x="483" d="M241 106 Q292 106 311 120.5 Q330 135 330 152 Q330 163 326.5 171 Q323 179 315 186 Q307 193 293 200.5 Q279 208 257 218 Q232 229 210 241.5 Q188 254 171.5 271.5 Q155 289 145.5 311.5 Q136 334 136 365 Q136 446 195.5 493 Q255 540 369 540 Q423 540 465 528 Q507 516 533 502 L482 391 Q461 402 428 412 Q395 422 363 422 Q349 422 335.5 420.5 Q322 419 310.5 414 Q299 409 292 400 Q285 391 285 376 Q285 356 300.5 346 Q316 336 344 322 Q383 303 409 287 Q435 271 450.5 253 Q466 235 473 212 Q480 189 480 158 Q480 126 466.5 95 Q453 64 424 40 Q395 16 350 1 Q305 -14 242 -14 Q203 -14 171.5 -9 Q140 -4 116 3.5 Q92 11 75.5 19 Q59 27 50 32 L101 146 Q118 136 154 121 Q190 106 241 106 Z M528 712 L351 576 L291 638 L451 799 L528 712 Z " />
<glyph glyph-name="Scircumflex" unicode="&#x15c;" horiz-adv-x="559" d="M269 116 Q292 116 315 119.5 Q338 123 356 132 Q374 141 385.5 157.5 Q397 174 397 200 Q397 220 386 234.5 Q375 249 358 261 Q341 273 320 283 Q299 293 278 305 Q251 321 227 339 Q203 357 186 379.5 Q169 402 159 429.5 Q149 457 149 493 Q149 539 166.5 578.5 Q184 618 218.5 647 Q253 676 305 692.5 Q357 709 427 709 Q459 709 489 703.5 Q519 698 545 690 Q571 682 592.5 671.5 Q614 661 629 651 L564 536 Q539 555 503 568 Q467 581 425 581 Q402 581 381 577 Q360 573 344 563.5 Q328 554 318.5 539 Q309 524 309 502 Q309 482 316.5 468.5 Q324 455 336 445 Q348 435 364 427 Q380 419 398 410 Q429 394 458 376 Q487 358 509 334.5 Q531 311 544 281 Q557 251 557 210 Q557 153 536 111 Q515 69 477 41 Q439 13 386.5 -0.5 Q334 -14 270 -14 Q228 -14 191.5 -7 Q155 0 125.5 9.5 Q96 19 74.5 30 Q53 41 40 50 L106 169 Q118 161 135 152 Q152 143 173.5 135 Q195 127 219 121.5 Q243 116 269 116 Z M604 795 L544 742 L461 820 L348 744 L302 805 L481 950 L604 795 Z " />
<glyph glyph-name="scircumflex" unicode="&#x15d;" horiz-adv-x="483" d="M241 106 Q292 106 311 120.5 Q330 135 330 152 Q330 163 326.5 171 Q323 179 315 186 Q307 193 293 200.5 Q279 208 257 218 Q232 229 210 241.5 Q188 254 171.5 271.5 Q155 289 145.5 311.5 Q136 334 136 365 Q136 446 195.5 493 Q255 540 369 540 Q423 540 465 528 Q507 516 533 502 L482 391 Q461 402 428 412 Q395 422 363 422 Q349 422 335.5 420.5 Q322 419 310.5 414 Q299 409 292 400 Q285 391 285 376 Q285 356 300.5 346 Q316 336 344 322 Q383 303 409 287 Q435 271 450.5 253 Q466 235 473 212 Q480 189 480 158 Q480 126 466.5 95 Q453 64 424 40 Q395 16 350 1 Q305 -14 242 -14 Q203 -14 171.5 -9 Q140 -4 116 3.5 Q92 11 75.5 19 Q59 27 50 32 L101 146 Q118 136 154 121 Q190 106 241 106 Z M544 629 L484 576 L401 654 L288 578 L242 639 L421 784 L544 629 Z " />
<glyph glyph-name="Scedilla" unicode="&#x15e;" horiz-adv-x="559" d="M269 116 Q292 116 315 119.5 Q338 123 356 132 Q374 141 385.5 157.5 Q397 174 397 200 Q397 220 386 234.5 Q375 249 358 261 Q341 273 320 283 Q299 293 278 305 Q251 321 227 339 Q203 357 186 379.5 Q169 402 159 429.5 Q149 457 149 493 Q149 539 166.5 578.5 Q184 618 218.5 647 Q253 676 305 692.5 Q357 709 427 709 Q459 709 489 703.5 Q519 698 545 690 Q571 682 592.5 671.5 Q614 661 629 651 L564 536 Q539 555 503 568 Q467 581 425 581 Q402 581 381 577 Q360 573 344 563.5 Q328 554 318.5 539 Q309 524 309 502 Q309 482 316.5 468.5 Q324 455 336 445 Q348 435 364 427 Q380 419 398 410 Q429 394 458 376 Q487 358 509 334.5 Q531 311 544 281 Q557 251 557 210 Q557 155 537.5 114 Q518 73 483 45.5 Q448 18 399 3.5 Q350 -11 291 -13 L271 -44 Q293 -55 304 -73 Q315 -91 315 -111 Q315 -140 303.5 -161 Q292 -182 272.5 -195.5 Q253 -209 228 -215 Q203 -221 177 -221 Q150 -221 123.5 -215 Q97 -209 76 -198 L112 -116 Q125 -122 141.5 -126 Q158 -130 173 -130 Q213 -130 213 -106 Q213 -95 206 -88 Q199 -81 183 -74 L163 -65 Q170 -54 180.5 -38.5 Q191 -23 201 -9 Q143 0 101.5 18 Q60 36 40 50 L106 169 Q118 161 135 152 Q152 143 173.5 135 Q195 127 219 121.5 Q243 116 269 116 Z " />
<glyph glyph-name="scedilla" unicode="&#x15f;" horiz-adv-x="483" d="M241 106 Q292 106 311 120.5 Q330 135 330 152 Q330 163 326.5 171 Q323 179 315 186 Q307 193 293 200.5 Q279 208 257 218 Q232 229 210 241.5 Q188 254 171.5 271.5 Q155 289 145.5 311.5 Q136 334 136 365 Q136 446 195.5 493 Q255 540 369 540 Q423 540 465 528 Q507 516 533 502 L482 391 Q461 402 428 412 Q395 422 363 422 Q349 422 335.5 420.5 Q322 419 310.5 414 Q299 409 292 400 Q285 391 285 376 Q285 356 300.5 346 Q316 336 344 322 Q383 303 409 287 Q435 271 450.5 253 Q466 235 473 212 Q480 189 480 158 Q480 130 469.5 103 Q459 76 437.5 53 Q416 30 382 13.5 Q348 -3 301 -10 Q294 -19 288 -28 Q282 -37 278 -44 Q300 -55 311 -73 Q322 -91 322 -111 Q322 -140 310.5 -161 Q299 -182 279.5 -195.5 Q260 -209 235 -215 Q210 -221 184 -221 Q157 -221 130.5 -215 Q104 -209 83 -198 L119 -116 Q132 -122 148.5 -126 Q165 -130 180 -130 Q220 -130 220 -106 Q220 -95 213 -88 Q206 -81 190 -74 L170 -65 Q177 -54 186.5 -40 Q196 -26 205 -12 Q143 -7 105 7.5 Q67 22 50 32 L101 146 Q118 136 154 121 Q190 106 241 106 Z " />
<glyph glyph-name="uni0162" unicode="&#x162;" horiz-adv-x="594" d="M739 693 L707 562 L504 562 L369 0 L350 0 Q342 -11 333.5 -23.5 Q325 -36 320 -44 Q342 -55 353 -73 Q364 -91 364 -111 Q364 -140 352.5 -161 Q341 -182 321.5 -195.5 Q302 -209 277 -215 Q252 -221 226 -221 Q199 -221 172.5 -215 Q146 -209 125 -198 L161 -116 Q174 -122 190.5 -126 Q207 -130 222 -130 Q262 -130 262 -106 Q262 -95 255 -88 Q248 -81 232 -74 L212 -65 Q220 -51 232.5 -32.5 Q245 -14 256 0 L213 0 L348 562 L145 562 L177 693 L739 693 Z " />
<glyph glyph-name="uni0163" unicode="&#x163;" horiz-adv-x="416" d="M213 657 L368 681 L330 526 L496 526 L466 404 L301 404 L257 220 Q251 197 249.5 177 Q248 157 254.5 142.5 Q261 128 277 120 Q293 112 321 112 Q345 112 367.5 116.5 Q390 121 413 129 L424 15 Q400 6 373.5 -1 Q347 -8 314 -10 L291 -44 Q313 -55 324 -73 Q335 -91 335 -111 Q335 -140 323.5 -161 Q312 -182 292.5 -195.5 Q273 -209 248 -215 Q223 -221 197 -221 Q170 -221 143.5 -215 Q117 -209 96 -198 L132 -116 Q145 -122 161.5 -126 Q178 -130 193 -130 Q233 -130 233 -106 Q233 -95 226 -88 Q219 -81 203 -74 L183 -65 Q190 -53 200.5 -37 Q211 -21 222 -7 Q173 1 146 24 Q119 47 108.5 80.5 Q98 114 101 156 Q104 198 115 243 L213 657 Z " />
<glyph glyph-name="Tcaron" unicode="&#x164;" horiz-adv-x="594" d="M739 693 L707 562 L504 562 L369 0 L213 0 L348 562 L145 562 L177 693 L739 693 Z M336 901 L396 954 L479 876 L592 952 L638 891 L459 746 L336 901 Z " />
<glyph glyph-name="tcaron" unicode="&#x165;" horiz-adv-x="416" d="M213 657 L368 681 L330 526 L496 526 L466 404 L301 404 L257 220 Q251 197 249.5 177 Q248 157 254.5 142.5 Q261 128 277 120 Q293 112 321 112 Q345 112 367.5 116.5 Q390 121 413 129 L424 15 Q394 4 359 -4 Q324 -12 276 -12 Q207 -12 169 8.5 Q131 29 115 64.5 Q99 100 101 146 Q103 192 115 243 L213 657 Z M573 776 L489 585 L404 585 L449 776 L573 776 Z " />
<glyph glyph-name="Tbar" unicode="&#x166;" horiz-adv-x="594" d="M739 693 L707 562 L504 562 L459 377 L602 377 L575 267 L433 267 L369 0 L213 0 L277 267 L137 267 L164 377 L303 377 L348 562 L145 562 L177 693 L739 693 Z " />
<glyph glyph-name="tbar" unicode="&#x167;" horiz-adv-x="416" d="M213 657 L368 681 L330 526 L496 526 L466 404 L301 404 L281 321 L459 321 L437 228 L259 228 L257 220 Q251 197 249.5 177 Q248 157 254.5 142.5 Q261 128 277 120 Q293 112 321 112 Q345 112 367.5 116.5 Q390 121 413 129 L424 15 Q394 4 359 -4 Q324 -12 276 -12 Q207 -12 169 8.5 Q131 29 115 64.5 Q99 100 101 146 Q103 192 115 243 L213 657 Z " />
<glyph glyph-name="Utilde" unicode="&#x168;" horiz-adv-x="683" d="M668 252 Q634 111 557.5 48.5 Q481 -14 355 -14 Q290 -14 245.5 1.5 Q201 17 173 44.5 Q145 72 132.5 110.5 Q120 149 120 194 Q120 246 135 305 L228 693 L384 693 L286 283 Q276 247 276 210 Q276 190 280.5 174 Q285 158 296.5 146 Q308 134 327.5 127.5 Q347 121 376 121 Q436 121 467 158.5 Q498 196 515 265 L617 693 L773 693 L668 252 Z M572 770 Q553 770 538 775.5 Q523 781 510 787.5 Q497 794 485 799.5 Q473 805 461 805 Q447 805 435.5 797 Q424 789 407 764 L340 805 Q363 859 395 885.5 Q427 912 473 912 Q492 912 507 906.5 Q522 901 535 894.5 Q548 888 560 882.5 Q572 877 584 877 Q598 877 609.5 885 Q621 893 638 918 L705 877 Q682 823 650 796.5 Q618 770 572 770 Z " />
<glyph glyph-name="utilde" unicode="&#x169;" horiz-adv-x="581" d="M621 526 L550 227 Q536 170 542 112.5 Q548 55 565 10 L432 -9 Q421 13 411 40 Q383 18 348 3 Q313 -12 270 -12 Q211 -12 174.5 9.5 Q138 31 120 66.5 Q102 102 100.5 148 Q99 194 111 242 L179 526 L328 526 L261 244 Q256 222 252.5 199 Q249 176 252 156.5 Q255 137 267.5 124.5 Q280 112 307 112 Q330 112 349.5 120.5 Q369 129 391 150 Q393 175 397.5 202.5 Q402 230 407 253 L472 526 L621 526 Z M478 607 Q459 607 444 612.5 Q429 618 416 624.5 Q403 631 391 636.5 Q379 642 367 642 Q353 642 341.5 634 Q330 626 313 601 L246 642 Q269 696 301 722.5 Q333 749 379 749 Q398 749 413 743.5 Q428 738 441 731.5 Q454 725 466 719.5 Q478 714 490 714 Q504 714 515.5 722 Q527 730 544 755 L611 714 Q588 660 556 633.5 Q524 607 478 607 Z " />
<glyph glyph-name="Umacron" unicode="&#x16a;" horiz-adv-x="683" d="M668 252 Q634 111 557.5 48.5 Q481 -14 355 -14 Q290 -14 245.5 1.5 Q201 17 173 44.5 Q145 72 132.5 110.5 Q120 149 120 194 Q120 246 135 305 L228 693 L384 693 L286 283 Q276 247 276 210 Q276 190 280.5 174 Q285 158 296.5 146 Q308 134 327.5 127.5 Q347 121 376 121 Q436 121 467 158.5 Q498 196 515 265 L617 693 L773 693 L668 252 Z M375 878 L697 878 L672 776 L350 776 L375 878 Z " />
<glyph glyph-name="umacron" unicode="&#x16b;" horiz-adv-x="581" d="M621 526 L550 227 Q536 170 542 112.5 Q548 55 565 10 L432 -9 Q421 13 411 40 Q383 18 348 3 Q313 -12 270 -12 Q211 -12 174.5 9.5 Q138 31 120 66.5 Q102 102 100.5 148 Q99 194 111 242 L179 526 L328 526 L261 244 Q256 222 252.5 199 Q249 176 252 156.5 Q255 137 267.5 124.5 Q280 112 307 112 Q330 112 349.5 120.5 Q369 129 391 150 Q393 175 397.5 202.5 Q402 230 407 253 L472 526 L621 526 Z M277 725 L599 725 L574 623 L252 623 L277 725 Z " />
<glyph glyph-name="Ubreve" unicode="&#x16c;" horiz-adv-x="683" d="M668 252 Q634 111 557.5 48.5 Q481 -14 355 -14 Q290 -14 245.5 1.5 Q201 17 173 44.5 Q145 72 132.5 110.5 Q120 149 120 194 Q120 246 135 305 L228 693 L384 693 L286 283 Q276 247 276 210 Q276 190 280.5 174 Q285 158 296.5 146 Q308 134 327.5 127.5 Q347 121 376 121 Q436 121 467 158.5 Q498 196 515 265 L617 693 L773 693 L668 252 Z M478 917 Q477 912 476.5 907 Q476 902 476 897 Q476 873 486.5 859.5 Q497 846 522 846 Q546 846 564.5 864 Q583 882 589 917 L691 917 Q688 875 671 844 Q654 813 629 792.5 Q604 772 573.5 761.5 Q543 751 512 751 Q485 751 460 759 Q435 767 415.5 783.5 Q396 800 384.5 825 Q373 850 373 883 Q373 902 377 917 L478 917 Z " />
<glyph glyph-name="ubreve" unicode="&#x16d;" horiz-adv-x="581" d="M621 526 L550 227 Q536 170 542 112.5 Q548 55 565 10 L432 -9 Q421 13 411 40 Q383 18 348 3 Q313 -12 270 -12 Q211 -12 174.5 9.5 Q138 31 120 66.5 Q102 102 100.5 148 Q99 194 111 242 L179 526 L328 526 L261 244 Q256 222 252.5 199 Q249 176 252 156.5 Q255 137 267.5 124.5 Q280 112 307 112 Q330 112 349.5 120.5 Q369 129 391 150 Q393 175 397.5 202.5 Q402 230 407 253 L472 526 L621 526 Z M389 764 Q388 759 387.5 754 Q387 749 387 744 Q387 720 397.5 706.5 Q408 693 433 693 Q457 693 475.5 711 Q494 729 500 764 L602 764 Q599 722 582 691 Q565 660 540 639.5 Q515 619 484.5 608.5 Q454 598 423 598 Q396 598 371 606 Q346 614 326.5 630.5 Q307 647 295.5 672 Q284 697 284 730 Q284 749 288 764 L389 764 Z " />
<glyph glyph-name="Uring" unicode="&#x16e;" horiz-adv-x="683" d="M668 252 Q634 111 557.5 48.5 Q481 -14 355 -14 Q290 -14 245.5 1.5 Q201 17 173 44.5 Q145 72 132.5 110.5 Q120 149 120 194 Q120 246 135 305 L228 693 L384 693 L286 283 Q276 247 276 210 Q276 190 280.5 174 Q285 158 296.5 146 Q308 134 327.5 127.5 Q347 121 376 121 Q436 121 467 158.5 Q498 196 515 265 L617 693 L773 693 L668 252 Z M628 834 Q628 806 618.5 784.5 Q609 763 592.5 748.5 Q576 734 554.5 726.5 Q533 719 509 719 Q486 719 465 726.5 Q444 734 427.5 748.5 Q411 763 401.5 784.5 Q392 806 392 834 Q392 862 401.5 883.5 Q411 905 427.5 919.5 Q444 934 465 941.5 Q486 949 509 949 Q533 949 554.5 941.5 Q576 934 592.5 919.5 Q609 905 618.5 883.5 Q628 862 628 834 Z M555 834 Q555 857 541 869 Q527 881 509 881 Q492 881 478 869 Q464 857 464 834 Q464 811 478 799 Q492 787 509 787 Q527 787 541 799 Q555 811 555 834 Z " />
<glyph glyph-name="uring" unicode="&#x16f;" horiz-adv-x="581" d="M621 526 L550 227 Q536 170 542 112.5 Q548 55 565 10 L432 -9 Q421 13 411 40 Q383 18 348 3 Q313 -12 270 -12 Q211 -12 174.5 9.5 Q138 31 120 66.5 Q102 102 100.5 148 Q99 194 111 242 L179 526 L328 526 L261 244 Q256 222 252.5 199 Q249 176 252 156.5 Q255 137 267.5 124.5 Q280 112 307 112 Q330 112 349.5 120.5 Q369 129 391 150 Q393 175 397.5 202.5 Q402 230 407 253 L472 526 L621 526 Z M545 699 Q545 671 535.5 649.5 Q526 628 509.5 613.5 Q493 599 471.5 591.5 Q450 584 426 584 Q403 584 382 591.5 Q361 599 344.5 613.5 Q328 628 318.5 649.5 Q309 671 309 699 Q309 727 318.5 748.5 Q328 770 344.5 784.5 Q361 799 382 806.5 Q403 814 426 814 Q450 814 471.5 806.5 Q493 799 509.5 784.5 Q526 770 535.5 748.5 Q545 727 545 699 Z M472 699 Q472 722 458 734 Q444 746 426 746 Q409 746 395 734 Q381 722 381 699 Q381 676 395 664 Q409 652 426 652 Q444 652 458 664 Q472 676 472 699 Z " />
<glyph glyph-name="Uhungarumlaut" unicode="&#x170;" horiz-adv-x="683" d="M668 252 Q634 111 557.5 48.5 Q481 -14 355 -14 Q290 -14 245.5 1.5 Q201 17 173 44.5 Q145 72 132.5 110.5 Q120 149 120 194 Q120 246 135 305 L228 693 L384 693 L286 283 Q276 247 276 210 Q276 190 280.5 174 Q285 158 296.5 146 Q308 134 327.5 127.5 Q347 121 376 121 Q436 121 467 158.5 Q498 196 515 265 L617 693 L773 693 L668 252 Z M560 875 L396 739 L342 800 L488 961 L560 875 Z M763 875 L599 739 L545 800 L691 961 L763 875 Z " />
<glyph glyph-name="uhungarumlaut" unicode="&#x171;" horiz-adv-x="581" d="M621 526 L550 227 Q536 170 542 112.5 Q548 55 565 10 L432 -9 Q421 13 411 40 Q383 18 348 3 Q313 -12 270 -12 Q211 -12 174.5 9.5 Q138 31 120 66.5 Q102 102 100.5 148 Q99 194 111 242 L179 526 L328 526 L261 244 Q256 222 252.5 199 Q249 176 252 156.5 Q255 137 267.5 124.5 Q280 112 307 112 Q330 112 349.5 120.5 Q369 129 391 150 Q393 175 397.5 202.5 Q402 230 407 253 L472 526 L621 526 Z M473 713 L309 577 L255 638 L401 799 L473 713 Z M676 713 L512 577 L458 638 L604 799 L676 713 Z " />
<glyph glyph-name="Uogonek" unicode="&#x172;" horiz-adv-x="683" d="M669 252 Q640 128 578.5 66 Q517 4 417 -10 Q372 -42 354.5 -63.5 Q337 -85 337 -97 Q337 -113 362 -113 Q376 -113 392 -108.5 Q408 -104 415 -102 L405 -201 Q385 -210 360.5 -215.5 Q336 -221 310 -221 Q289 -221 269 -216.5 Q249 -212 233.5 -202 Q218 -192 209 -176 Q200 -160 200 -136 Q200 -106 220.5 -74 Q241 -42 295 -10 Q248 -3 215 15 Q182 33 161 59.5 Q140 86 130.5 120 Q121 154 121 194 Q121 246 136 305 L229 693 L385 693 L287 283 Q277 247 277 210 Q277 190 281.5 174 Q286 158 297.5 146 Q309 134 328.5 127.5 Q348 121 377 121 Q437 121 468 158.5 Q499 196 516 265 L618 693 L774 693 L669 252 Z " />
<glyph glyph-name="uogonek" unicode="&#x173;" horiz-adv-x="581" d="M621 526 L550 227 Q536 170 542 112.5 Q548 55 565 10 L546 -3 Q495 -38 475 -61 Q455 -84 455 -97 Q455 -113 480 -113 Q494 -113 510 -108.5 Q526 -104 533 -102 L523 -201 Q503 -210 478.5 -215.5 Q454 -221 428 -221 Q407 -221 387 -216.5 Q367 -212 351.5 -202 Q336 -192 327 -176 Q318 -160 318 -136 Q318 -106 339 -74 Q360 -42 408 -13 L428 -1 Q423 9 419 19 Q415 29 411 40 Q383 18 348 3 Q313 -12 270 -12 Q211 -12 174.5 9.5 Q138 31 120 66.5 Q102 102 100.5 148 Q99 194 111 242 L179 526 L328 526 L261 244 Q256 222 252.5 199 Q249 176 252 156.5 Q255 137 267.5 124.5 Q280 112 307 112 Q330 112 349.5 120.5 Q369 129 391 150 Q393 175 397.5 202.5 Q402 230 407 253 L472 526 L621 526 Z " />
<glyph glyph-name="Wcircumflex" unicode="&#x174;" horiz-adv-x="936" d="M667 619 Q669 578 672.5 526 Q676 474 680.5 418.5 Q685 363 690 308 Q695 253 700 206 Q726 257 753 316 Q780 375 807 438 Q834 501 860.5 566 Q887 631 911 693 L1076 693 Q998 503 917 331.5 Q836 160 743 0 L597 0 Q589 55 582.5 105.5 Q576 156 570.5 205 Q565 254 560.5 304 Q556 354 552 408 Q495 302 439.5 200.5 Q384 99 321 0 L175 0 Q167 93 163.5 184 Q160 275 160 369 Q160 450 163 530.5 Q166 611 171 693 L328 693 Q323 605 318.5 520.5 Q314 436 314 345 Q314 311 314 276 Q314 241 316 206 Q344 255 375 310 Q406 365 436 420 Q466 475 493 526.5 Q520 578 539 619 L667 619 Z M797 785 L737 732 L654 810 L541 734 L495 795 L674 940 L797 785 Z " />
<glyph glyph-name="wcircumflex" unicode="&#x175;" horiz-adv-x="816" d="M482 308 Q463 267 439.5 224.5 Q416 182 391.5 141.5 Q367 101 344 64.5 Q321 28 303 0 L187 0 Q179 42 170.5 100 Q162 158 154 226.5 Q146 295 139.5 371.5 Q133 448 130 526 L276 526 Q276 490 276.5 448 Q277 406 278.5 361 Q280 316 283 269 Q286 222 291 176 Q316 218 340.5 263.5 Q365 309 387.5 354.5 Q410 400 429.5 444 Q449 488 464 526 L588 526 Q588 454 590.5 365 Q593 276 603 176 Q630 221 653 268.5 Q676 316 695.5 362 Q715 408 730.5 450 Q746 492 758 526 L916 526 Q896 476 868.5 413.5 Q841 351 805 282 Q769 213 724 141 Q679 69 624 0 L508 0 Q496 82 490 157 Q484 232 482 308 Z M694 629 L634 576 L551 654 L438 578 L392 639 L571 784 L694 629 Z " />
<glyph glyph-name="Ycircumflex" unicode="&#x176;" horiz-adv-x="652" d="M413 408 Q442 445 468.5 479.5 Q495 514 520 548.5 Q545 583 569.5 618.5 Q594 654 620 693 L792 693 Q750 634 711 581 Q672 528 633 477.5 Q594 427 553 377 Q512 327 466 274 L400 0 L244 0 L310 274 Q268 380 234 481 Q200 582 170 693 L336 693 Q352 621 371 552 Q390 483 413 408 Z M639 795 L579 742 L496 820 L383 744 L337 805 L516 950 L639 795 Z " />
<glyph glyph-name="ycircumflex" unicode="&#x177;" horiz-adv-x="532" d="M632 526 Q604 450 575.5 384 Q547 318 516 258.5 Q485 199 452 145 Q419 91 382 38 Q355 -1 326 -41 Q297 -81 261.5 -113 Q226 -145 182.5 -165 Q139 -185 82 -185 Q47 -185 22 -178.5 Q-3 -172 -25 -161 L20 -44 Q40 -52 56 -56.5 Q72 -61 95 -61 Q130 -61 161.5 -38.5 Q193 -16 214 22 Q188 122 166.5 246 Q145 370 137 526 L290 526 Q291 487 294 440 Q297 393 301 345.5 Q305 298 310 253 Q315 208 321 172 Q369 244 405.5 332 Q442 420 474 526 L632 526 Z M561 629 L501 576 L418 654 L305 578 L259 639 L438 784 L561 629 Z " />
<glyph glyph-name="Zacute" unicode="&#x179;" horiz-adv-x="638" d="M712 585 Q672 551 616 498.5 Q560 446 499 384.5 Q438 323 377 257 Q316 191 266 131 L614 131 L582 0 L45 0 L68 93 Q108 146 162 208.5 Q216 271 274.5 334 Q333 397 392 456 Q451 515 501 562 L195 562 L227 693 L738 693 L712 585 Z M641 872 L464 736 L404 798 L564 959 L641 872 Z " />
<glyph glyph-name="zacute" unicode="&#x17a;" horiz-adv-x="526" d="M582 427 Q559 407 522 372.5 Q485 338 442 296.5 Q399 255 354 209.5 Q309 164 270 122 L514 122 L484 0 L60 0 L81 87 Q110 123 147.5 165 Q185 207 225.5 250 Q266 293 306.5 332.5 Q347 372 382 404 L168 404 L198 526 L606 526 L582 427 Z M545 712 L368 576 L308 638 L468 799 L545 712 Z " />
<glyph glyph-name="Zdotaccent" unicode="&#x17b;" horiz-adv-x="638" d="M712 585 Q672 551 616 498.5 Q560 446 499 384.5 Q438 323 377 257 Q316 191 266 131 L614 131 L582 0 L45 0 L68 93 Q108 146 162 208.5 Q216 271 274.5 334 Q333 397 392 456 Q451 515 501 562 L195 562 L227 693 L738 693 L712 585 Z M501 760 Q470 760 450 778 Q430 796 430 828 Q430 870 456.5 893 Q483 916 516 916 Q546 916 567 898 Q588 880 588 847 Q588 827 580.5 811 Q573 795 560.5 783.5 Q548 772 532.5 766 Q517 760 501 760 Z " />
<glyph glyph-name="zdotaccent" unicode="&#x17c;" horiz-adv-x="526" d="M582 427 Q559 407 522 372.5 Q485 338 442 296.5 Q399 255 354 209.5 Q309 164 270 122 L514 122 L484 0 L60 0 L81 87 Q110 123 147.5 165 Q185 207 225.5 250 Q266 293 306.5 332.5 Q347 372 382 404 L168 404 L198 526 L606 526 L582 427 Z M410 600 Q379 600 359 618 Q339 636 339 668 Q339 710 365.5 733 Q392 756 425 756 Q455 756 476 738 Q497 720 497 687 Q497 667 489.5 651 Q482 635 469.5 623.5 Q457 612 441.5 606 Q426 600 410 600 Z " />
<glyph glyph-name="Zcaron" unicode="&#x17d;" horiz-adv-x="638" d="M712 585 Q672 551 616 498.5 Q560 446 499 384.5 Q438 323 377 257 Q316 191 266 131 L614 131 L582 0 L45 0 L68 93 Q108 146 162 208.5 Q216 271 274.5 334 Q333 397 392 456 Q451 515 501 562 L195 562 L227 693 L738 693 L712 585 Z M361 906 L421 959 L504 881 L617 957 L663 896 L484 751 L361 906 Z " />
<glyph glyph-name="zcaron" unicode="&#x17e;" horiz-adv-x="526" d="M582 427 Q559 407 522 372.5 Q485 338 442 296.5 Q399 255 354 209.5 Q309 164 270 122 L514 122 L484 0 L60 0 L81 87 Q110 123 147.5 165 Q185 207 225.5 250 Q266 293 306.5 332.5 Q347 372 382 404 L168 404 L198 526 L606 526 L582 427 Z M297 740 L357 793 L440 715 L553 791 L599 730 L420 585 L297 740 Z " />
<glyph glyph-name="longs" unicode="&#x17f;" horiz-adv-x="435" d="M477 776 Q522 776 555.5 766.5 Q589 757 606 749 L556 632 Q538 641 514.5 645.5 Q491 650 471 650 Q416 650 389.5 622 Q363 594 353 552 L257 149 Q223 6 183 -73.5 Q143 -153 95 -189 L-38 -170 Q-12 -146 10 -111 Q32 -76 49.5 -37 Q67 2 79.5 42.5 Q92 83 100 118 L204 554 Q229 660 294 718 Q359 776 477 776 Z " />
<glyph glyph-name="Scommaaccent" unicode="&#x218;" horiz-adv-x="559" d="M269 116 Q292 116 315 119.5 Q338 123 356 132 Q374 141 385.5 157.5 Q397 174 397 200 Q397 220 386 234.5 Q375 249 358 261 Q341 273 320 283 Q299 293 278 305 Q251 321 227 339 Q203 357 186 379.5 Q169 402 159 429.5 Q149 457 149 493 Q149 539 166.5 578.5 Q184 618 218.5 647 Q253 676 305 692.5 Q357 709 427 709 Q459 709 489 703.5 Q519 698 545 690 Q571 682 592.5 671.5 Q614 661 629 651 L564 536 Q539 555 503 568 Q467 581 425 581 Q402 581 381 577 Q360 573 344 563.5 Q328 554 318.5 539 Q309 524 309 502 Q309 482 316.5 468.5 Q324 455 336 445 Q348 435 364 427 Q380 419 398 410 Q429 394 458 376 Q487 358 509 334.5 Q531 311 544 281 Q557 251 557 210 Q557 153 536 111 Q515 69 477 41 Q439 13 386.5 -0.5 Q334 -14 270 -14 Q228 -14 191.5 -7 Q155 0 125.5 9.5 Q96 19 74.5 30 Q53 41 40 50 L106 169 Q118 161 135 152 Q152 143 173.5 135 Q195 127 219 121.5 Q243 116 269 116 Z M322 -50 Q317 -97 302 -129 Q287 -161 265.5 -180 Q244 -199 217 -207 Q190 -215 160 -215 Q133 -215 103 -207 L124 -128 Q128 -129 131.5 -129 Q135 -129 138 -129 Q157 -129 169 -122.5 Q181 -116 187.5 -105 Q194 -94 197.5 -80 Q201 -66 204 -50 L322 -50 Z " />
<glyph glyph-name="scommaaccent" unicode="&#x219;" horiz-adv-x="483" d="M309 -50 Q304 -97 289 -129 Q274 -161 252.5 -180 Q231 -199 204 -207 Q177 -215 147 -215 Q120 -215 90 -207 L111 -128 Q115 -129 118.5 -129 Q122 -129 125 -129 Q144 -129 156 -122.5 Q168 -116 174.5 -105 Q181 -94 184.5 -80 Q188 -66 191 -50 L309 -50 Z M241 106 Q292 106 311 120.5 Q330 135 330 152 Q330 163 326.5 171 Q323 179 315 186 Q307 193 293 200.5 Q279 208 257 218 Q232 229 210 241.5 Q188 254 171.5 271.5 Q155 289 145.5 311.5 Q136 334 136 365 Q136 446 195.5 493 Q255 540 369 540 Q423 540 465 528 Q507 516 533 502 L482 391 Q461 402 428 412 Q395 422 363 422 Q349 422 335.5 420.5 Q322 419 310.5 414 Q299 409 292 400 Q285 391 285 376 Q285 356 300.5 346 Q316 336 344 322 Q383 303 409 287 Q435 271 450.5 253 Q466 235 473 212 Q480 189 480 158 Q480 126 466.5 95 Q453 64 424 40 Q395 16 350 1 Q305 -14 242 -14 Q203 -14 171.5 -9 Q140 -4 116 3.5 Q92 11 75.5 19 Q59 27 50 32 L101 146 Q118 136 154 121 Q190 106 241 106 Z " />
<glyph glyph-name="uni021A" unicode="&#x21a;" horiz-adv-x="594" d="M338 -50 Q333 -97 318 -129 Q303 -161 281.5 -180 Q260 -199 233 -207 Q206 -215 176 -215 Q149 -215 119 -207 L140 -128 Q144 -129 147.5 -129 Q151 -129 154 -129 Q173 -129 185 -122.5 Q197 -116 203.5 -105 Q210 -94 213.5 -80 Q217 -66 220 -50 L338 -50 Z M739 693 L707 562 L504 562 L369 0 L213 0 L348 562 L145 562 L177 693 L739 693 Z " />
<glyph glyph-name="uni021B" unicode="&#x21b;" horiz-adv-x="416" d="M304 -50 Q299 -97 284 -129 Q269 -161 247.5 -180 Q226 -199 199 -207 Q172 -215 142 -215 Q115 -215 85 -207 L106 -128 Q110 -129 113.5 -129 Q117 -129 120 -129 Q139 -129 151 -122.5 Q163 -116 169.5 -105 Q176 -94 179.5 -80 Q183 -66 186 -50 L304 -50 Z M213 657 L368 681 L330 526 L496 526 L466 404 L301 404 L257 220 Q251 197 249.5 177 Q248 157 254.5 142.5 Q261 128 277 120 Q293 112 321 112 Q345 112 367.5 116.5 Q390 121 413 129 L424 15 Q394 4 359 -4 Q324 -12 276 -12 Q207 -12 169 8.5 Q131 29 115 64.5 Q99 100 101 146 Q103 192 115 243 L213 657 Z " />
<glyph glyph-name="dotlessj" unicode="&#x237;" horiz-adv-x="290" d="M15 -185 Q-13 -185 -40.5 -179.5 Q-68 -174 -90 -166 L-52 -48 Q-38 -53 -24.5 -56 Q-11 -59 6 -59 Q41 -59 60 -38 Q79 -17 87 23 L208 526 L357 526 L235 19 Q211 -85 160 -135 Q109 -185 15 -185 Z " />
<glyph glyph-name="apostrophe" unicode="&#x2bc;" horiz-adv-x="272" d="M387 776 Q377 735 366 705.5 Q355 676 342 651.5 Q329 627 312 603.5 Q295 580 273 553 L184 584 Q201 611 213.5 634 Q226 657 234.5 679.5 Q243 702 248.5 725.5 Q254 749 257 776 L387 776 Z " />
<glyph glyph-name="caron" unicode="&#x2c7;" horiz-adv-x="398" d="M212 740 L272 793 L355 715 L468 791 L514 730 L335 585 L212 740 Z " />
<glyph glyph-name="uni02C9" unicode="&#x2c9;" horiz-adv-x="376" d="M192 725 L514 725 L489 623 L167 623 L192 725 Z " />
<glyph glyph-name="breve" unicode="&#x2d8;" horiz-adv-x="410" d="M311 764 Q310 759 309.5 754 Q309 749 309 744 Q309 720 319.5 706.5 Q330 693 355 693 Q379 693 397.5 711 Q416 729 422 764 L524 764 Q521 722 504 691 Q487 660 462 639.5 Q437 619 406.5 608.5 Q376 598 345 598 Q318 598 293 606 Q268 614 248.5 630.5 Q229 647 217.5 672 Q206 697 206 730 Q206 749 210 764 L311 764 Z " />
<glyph glyph-name="dotaccent" unicode="&#x2d9;" horiz-adv-x="536" d="M409 600 Q378 600 358 618 Q338 636 338 668 Q338 710 364.5 733 Q391 756 424 756 Q454 756 475 738 Q496 720 496 687 Q496 667 488.5 651 Q481 635 468.5 623.5 Q456 612 440.5 606 Q425 600 409 600 Z " />
<glyph glyph-name="ring" unicode="&#x2da;" horiz-adv-x="324" d="M439 699 Q439 671 429.5 649.5 Q420 628 403.5 613.5 Q387 599 365.5 591.5 Q344 584 320 584 Q297 584 276 591.5 Q255 599 238.5 613.5 Q222 628 212.5 649.5 Q203 671 203 699 Q203 727 212.5 748.5 Q222 770 238.5 784.5 Q255 799 276 806.5 Q297 814 320 814 Q344 814 365.5 806.5 Q387 799 403.5 784.5 Q420 770 429.5 748.5 Q439 727 439 699 Z M366 699 Q366 722 352 734 Q338 746 320 746 Q303 746 289 734 Q275 722 275 699 Q275 676 289 664 Q303 652 320 652 Q338 652 352 664 Q366 676 366 699 Z " />
<glyph glyph-name="ogonek" unicode="&#x2db;" horiz-adv-x="312" d="M222 -201 Q202 -210 177.5 -215.5 Q153 -221 127 -221 Q106 -221 86 -216.5 Q66 -212 50.5 -202 Q35 -192 26 -176 Q17 -160 17 -136 Q17 -106 38 -74 Q59 -42 107 -13 L154 15 L271 15 L245 -3 Q194 -38 174 -61 Q154 -84 154 -97 Q154 -113 179 -113 Q193 -113 209 -108.5 Q225 -104 232 -102 L222 -201 Z " />
<glyph glyph-name="hungarumlaut" unicode="&#x2dd;" horiz-adv-x="434" d="M392 713 L228 577 L174 638 L320 799 L392 713 Z M595 713 L431 577 L377 638 L523 799 L595 713 Z " />
<glyph glyph-name="Wgrave" unicode="&#x1e80;" horiz-adv-x="936" d="M667 619 Q669 578 672.5 526 Q676 474 680.5 418.5 Q685 363 690 308 Q695 253 700 206 Q726 257 753 316 Q780 375 807 438 Q834 501 860.5 566 Q887 631 911 693 L1076 693 Q998 503 917 331.5 Q836 160 743 0 L597 0 Q589 55 582.5 105.5 Q576 156 570.5 205 Q565 254 560.5 304 Q556 354 552 408 Q495 302 439.5 200.5 Q384 99 321 0 L175 0 Q167 93 163.5 184 Q160 275 160 369 Q160 450 163 530.5 Q166 611 171 693 L328 693 Q323 605 318.5 520.5 Q314 436 314 345 Q314 311 314 276 Q314 241 316 206 Q344 255 375 310 Q406 365 436 420 Q466 475 493 526.5 Q520 578 539 619 L667 619 Z M554 957 L689 792 L625 734 L462 878 L554 957 Z " />
<glyph glyph-name="wgrave" unicode="&#x1e81;" horiz-adv-x="816" d="M482 308 Q463 267 439.5 224.5 Q416 182 391.5 141.5 Q367 101 344 64.5 Q321 28 303 0 L187 0 Q179 42 170.5 100 Q162 158 154 226.5 Q146 295 139.5 371.5 Q133 448 130 526 L276 526 Q276 490 276.5 448 Q277 406 278.5 361 Q280 316 283 269 Q286 222 291 176 Q316 218 340.5 263.5 Q365 309 387.5 354.5 Q410 400 429.5 444 Q449 488 464 526 L588 526 Q588 454 590.5 365 Q593 276 603 176 Q630 221 653 268.5 Q676 316 695.5 362 Q715 408 730.5 450 Q746 492 758 526 L916 526 Q896 476 868.5 413.5 Q841 351 805 282 Q769 213 724 141 Q679 69 624 0 L508 0 Q496 82 490 157 Q484 232 482 308 Z M462 799 L597 634 L533 576 L370 720 L462 799 Z " />
<glyph glyph-name="Wacute" unicode="&#x1e82;" horiz-adv-x="936" d="M667 619 Q669 578 672.5 526 Q676 474 680.5 418.5 Q685 363 690 308 Q695 253 700 206 Q726 257 753 316 Q780 375 807 438 Q834 501 860.5 566 Q887 631 911 693 L1076 693 Q998 503 917 331.5 Q836 160 743 0 L597 0 Q589 55 582.5 105.5 Q576 156 570.5 205 Q565 254 560.5 304 Q556 354 552 408 Q495 302 439.5 200.5 Q384 99 321 0 L175 0 Q167 93 163.5 184 Q160 275 160 369 Q160 450 163 530.5 Q166 611 171 693 L328 693 Q323 605 318.5 520.5 Q314 436 314 345 Q314 311 314 276 Q314 241 316 206 Q344 255 375 310 Q406 365 436 420 Q466 475 493 526.5 Q520 578 539 619 L667 619 Z M778 870 L601 734 L541 796 L701 957 L778 870 Z " />
<glyph glyph-name="wacute" unicode="&#x1e83;" horiz-adv-x="816" d="M482 308 Q463 267 439.5 224.5 Q416 182 391.5 141.5 Q367 101 344 64.5 Q321 28 303 0 L187 0 Q179 42 170.5 100 Q162 158 154 226.5 Q146 295 139.5 371.5 Q133 448 130 526 L276 526 Q276 490 276.5 448 Q277 406 278.5 361 Q280 316 283 269 Q286 222 291 176 Q316 218 340.5 263.5 Q365 309 387.5 354.5 Q410 400 429.5 444 Q449 488 464 526 L588 526 Q588 454 590.5 365 Q593 276 603 176 Q630 221 653 268.5 Q676 316 695.5 362 Q715 408 730.5 450 Q746 492 758 526 L916 526 Q896 476 868.5 413.5 Q841 351 805 282 Q769 213 724 141 Q679 69 624 0 L508 0 Q496 82 490 157 Q484 232 482 308 Z M681 712 L504 576 L444 638 L604 799 L681 712 Z " />
<glyph glyph-name="Wdieresis" unicode="&#x1e84;" horiz-adv-x="936" d="M667 619 Q669 578 672.5 526 Q676 474 680.5 418.5 Q685 363 690 308 Q695 253 700 206 Q726 257 753 316 Q780 375 807 438 Q834 501 860.5 566 Q887 631 911 693 L1076 693 Q998 503 917 331.5 Q836 160 743 0 L597 0 Q589 55 582.5 105.5 Q576 156 570.5 205 Q565 254 560.5 304 Q556 354 552 408 Q495 302 439.5 200.5 Q384 99 321 0 L175 0 Q167 93 163.5 184 Q160 275 160 369 Q160 450 163 530.5 Q166 611 171 693 L328 693 Q323 605 318.5 520.5 Q314 436 314 345 Q314 311 314 276 Q314 241 316 206 Q344 255 375 310 Q406 365 436 420 Q466 475 493 526.5 Q520 578 539 619 L667 619 Z M529 752 Q500 752 481 770 Q462 788 462 818 Q462 837 469 853 Q476 869 487.5 880 Q499 891 513.5 897.5 Q528 904 543 904 Q571 904 591 885.5 Q611 867 611 836 Q611 818 603.5 802.5 Q596 787 584 775.5 Q572 764 557.5 758 Q543 752 529 752 Z M751 752 Q722 752 703 770 Q684 788 684 818 Q684 837 691 853 Q698 869 709.5 880 Q721 891 735.5 897.5 Q750 904 765 904 Q793 904 813 885.5 Q833 867 833 836 Q833 818 825.5 802.5 Q818 787 806 775.5 Q794 764 779.5 758 Q765 752 751 752 Z " />
<glyph glyph-name="wdieresis" unicode="&#x1e85;" horiz-adv-x="816" d="M482 308 Q463 267 439.5 224.5 Q416 182 391.5 141.5 Q367 101 344 64.5 Q321 28 303 0 L187 0 Q179 42 170.5 100 Q162 158 154 226.5 Q146 295 139.5 371.5 Q133 448 130 526 L276 526 Q276 490 276.5 448 Q277 406 278.5 361 Q280 316 283 269 Q286 222 291 176 Q316 218 340.5 263.5 Q365 309 387.5 354.5 Q410 400 429.5 444 Q449 488 464 526 L588 526 Q588 454 590.5 365 Q593 276 603 176 Q630 221 653 268.5 Q676 316 695.5 362 Q715 408 730.5 450 Q746 492 758 526 L916 526 Q896 476 868.5 413.5 Q841 351 805 282 Q769 213 724 141 Q679 69 624 0 L508 0 Q496 82 490 157 Q484 232 482 308 Z M434 602 Q405 602 386 620 Q367 638 367 668 Q367 687 374 703 Q381 719 392.5 730 Q404 741 418.5 747.5 Q433 754 448 754 Q476 754 496 735.5 Q516 717 516 686 Q516 668 508.5 652.5 Q501 637 489 625.5 Q477 614 462.5 608 Q448 602 434 602 Z M656 602 Q627 602 608 620 Q589 638 589 668 Q589 687 596 703 Q603 719 614.5 730 Q626 741 640.5 747.5 Q655 754 670 754 Q698 754 718 735.5 Q738 717 738 686 Q738 668 730.5 652.5 Q723 637 711 625.5 Q699 614 684.5 608 Q670 602 656 602 Z " />
<glyph glyph-name="Ygrave" unicode="&#x1ef2;" horiz-adv-x="652" d="M413 408 Q442 445 468.5 479.5 Q495 514 520 548.5 Q545 583 569.5 618.5 Q594 654 620 693 L792 693 Q750 634 711 581 Q672 528 633 477.5 Q594 427 553 377 Q512 327 466 274 L400 0 L244 0 L310 274 Q268 380 234 481 Q200 582 170 693 L336 693 Q352 621 371 552 Q390 483 413 408 Z M414 959 L549 794 L485 736 L322 880 L414 959 Z " />
<glyph glyph-name="ygrave" unicode="&#x1ef3;" horiz-adv-x="532" d="M632 526 Q604 450 575.5 384 Q547 318 516 258.5 Q485 199 452 145 Q419 91 382 38 Q355 -1 326 -41 Q297 -81 261.5 -113 Q226 -145 182.5 -165 Q139 -185 82 -185 Q47 -185 22 -178.5 Q-3 -172 -25 -161 L20 -44 Q40 -52 56 -56.5 Q72 -61 95 -61 Q130 -61 161.5 -38.5 Q193 -16 214 22 Q188 122 166.5 246 Q145 370 137 526 L290 526 Q291 487 294 440 Q297 393 301 345.5 Q305 298 310 253 Q315 208 321 172 Q369 244 405.5 332 Q442 420 474 526 L632 526 Z M340 799 L475 634 L411 576 L248 720 L340 799 Z " />
<glyph glyph-name="fraction" unicode="&#x2044;" horiz-adv-x="152" d="M406 693 L-115 0 L-253 0 L270 693 L406 693 Z " />
<glyph glyph-name="zerosuperior" unicode="&#x2070;" horiz-adv-x="363" d="M106 434 Q106 496 121 547 Q136 598 164 634 Q192 670 232 689.5 Q272 709 323 709 Q363 709 388.5 697 Q414 685 428 665.5 Q442 646 447.5 621.5 Q453 597 453 571 Q453 509 438 458 Q423 407 395 371 Q367 335 327 315.5 Q287 296 236 296 Q196 296 170.5 308 Q145 320 131 339.5 Q117 359 111.5 383.5 Q106 408 106 434 Z M211 448 Q211 422 218.5 404.5 Q226 387 247 387 Q274 387 293 403.5 Q312 420 324 445 Q336 470 342 500 Q348 530 348 558 Q348 584 340.5 601.5 Q333 619 312 619 Q285 619 266 602.5 Q247 586 235 561 Q223 536 217 506 Q211 476 211 448 Z " />
<glyph glyph-name="foursuperior" unicode="&#x2074;" horiz-adv-x="363" d="M448 701 L392 470 L438 470 L419 390 L373 390 L351 301 L257 301 L279 390 L89 390 L104 459 Q159 530 219.5 589.5 Q280 649 355 701 L448 701 Z M329 597 Q298 570 265.5 537.5 Q233 505 207 470 L298 470 L329 597 Z " />
<glyph glyph-name="fivesuperior" unicode="&#x2075;" horiz-adv-x="363" d="M263 558 Q308 551 336 540 Q364 529 379 514 Q394 499 399 480 Q404 461 404 438 Q404 412 393 386.5 Q382 361 358 340.5 Q334 320 297 307 Q260 294 209 294 Q180 294 145.5 302.5 Q111 311 82 327 L123 411 Q149 399 175.5 393.5 Q202 388 228 388 Q257 388 277.5 399 Q298 410 298 438 Q298 464 262.5 473.5 Q227 483 146 486 Q156 512 166.5 542.5 Q177 573 186.5 602.5 Q196 632 204.5 658 Q213 684 218 701 L455 701 L434 610 L281 610 Q277 600 272.5 584.5 Q268 569 263 558 Z " />
<glyph glyph-name="sixsuperior" unicode="&#x2076;" horiz-adv-x="363" d="M437 618 Q363 617 317 601 Q271 585 241 550 Q269 559 303 559 Q324 559 343.5 553.5 Q363 548 378 535.5 Q393 523 402.5 501 Q412 479 412 446 Q412 410 397.5 381.5 Q383 353 359.5 333.5 Q336 314 306.5 304 Q277 294 247 294 Q220 294 195.5 302 Q171 310 152 326.5 Q133 343 121.5 369 Q110 395 110 430 Q110 482 128.5 531.5 Q147 581 187.5 619 Q228 657 291.5 680 Q355 703 445 703 L437 618 Z M248 380 Q280 380 296 399.5 Q312 419 312 441 Q312 459 300.5 473 Q289 487 264 487 Q253 487 240 484.5 Q227 482 214 478 Q210 467 207.5 454 Q205 441 205 430 Q205 410 214.5 395 Q224 380 248 380 Z " />
<glyph glyph-name="sevensuperior" unicode="&#x2077;" horiz-adv-x="363" d="M154 302 Q174 381 218 457.5 Q262 534 341 605 L163 605 L186 701 L493 701 L473 617 Q437 584 403 546 Q369 508 341 467.5 Q313 427 292.5 385 Q272 343 264 302 L154 302 Z " />
<glyph glyph-name="eightsuperior" unicode="&#x2078;" horiz-adv-x="363" d="M456 617 Q456 583 436.5 553.5 Q417 524 376 505 Q402 489 412 469.5 Q422 450 422 428 Q422 394 406.5 369 Q391 344 365.5 327 Q340 310 308.5 301.5 Q277 293 245 293 Q217 293 191.5 299 Q166 305 146.5 317.5 Q127 330 115 348.5 Q103 367 103 392 Q103 428 124.5 459.5 Q146 491 195 511 Q172 527 164 545 Q156 563 156 583 Q156 614 171 638 Q186 662 210 677.5 Q234 693 264 701 Q294 709 324 709 Q350 709 374 703 Q398 697 416 685.5 Q434 674 445 657 Q456 640 456 617 Z M255 476 Q229 465 213.5 445 Q198 425 198 408 Q198 393 211 382.5 Q224 372 253 372 Q285 372 304.5 387.5 Q324 403 324 423 Q324 454 274 470 L255 476 Z M249 588 Q249 557 303 538 L309 535 Q332 546 347 564.5 Q362 583 362 600 Q362 614 350.5 623.5 Q339 633 313 633 Q284 633 266.5 619.5 Q249 606 249 588 Z " />
<glyph glyph-name="ninesuperior" unicode="&#x2079;" horiz-adv-x="363" d="M128 385 Q202 386 248 401.5 Q294 417 323 452 Q293 444 262 444 Q241 444 221.5 449.5 Q202 455 187 467.5 Q172 480 162.5 502 Q153 524 153 557 Q153 593 167.5 621.5 Q182 650 205.5 669.5 Q229 689 258.5 699 Q288 709 318 709 Q345 709 369.5 701 Q394 693 413 676.5 Q432 660 443.5 634 Q455 608 455 573 Q455 520 436.5 471 Q418 422 377.5 384 Q337 346 273.5 323 Q210 300 120 300 L128 385 Z M317 623 Q285 623 269 603.5 Q253 584 253 562 Q253 544 264.5 530 Q276 516 301 516 Q312 516 325 518.5 Q338 521 351 525 Q355 536 357.5 549 Q360 562 360 573 Q360 593 350.5 608 Q341 623 317 623 Z " />
<glyph glyph-name="zeroinferior" unicode="&#x2080;" horiz-adv-x="363" d="M62 134 Q62 196 77 247 Q92 298 120 334 Q148 370 188 389.5 Q228 409 279 409 Q319 409 344.5 397 Q370 385 384 365.5 Q398 346 403.5 321.5 Q409 297 409 271 Q409 209 394 158 Q379 107 351 71 Q323 35 283 15.5 Q243 -4 192 -4 Q152 -4 126.5 8 Q101 20 87 39.5 Q73 59 67.5 83.5 Q62 108 62 134 Z M167 148 Q167 122 174.5 104.5 Q182 87 203 87 Q230 87 249 103.5 Q268 120 280 145 Q292 170 298 200 Q304 230 304 258 Q304 284 296.5 301.5 Q289 319 268 319 Q241 319 222 302.5 Q203 286 191 261 Q179 236 173 206 Q167 176 167 148 Z " />
<glyph glyph-name="oneinferior" unicode="&#x2081;" horiz-adv-x="363" d="M107 318 Q155 335 198.5 356.5 Q242 378 277 401 L364 401 L269 2 L155 2 L219 272 Q197 261 173.5 251.5 Q150 242 118 231 L107 318 Z " />
<glyph glyph-name="twoinferior" unicode="&#x2082;" horiz-adv-x="363" d="M342 93 L322 2 L35 2 Q35 33 41 59.5 Q47 86 62 110 Q77 134 103.5 156.5 Q130 179 172 202 Q201 218 218 229.5 Q235 241 244 250.5 Q253 260 255.5 268.5 Q258 277 258 287 Q258 300 248 308 Q238 316 221 316 Q202 316 176.5 305 Q151 294 119 268 L82 347 Q150 409 241 409 Q266 409 288.5 403 Q311 397 328 384.5 Q345 372 355 352 Q365 332 365 305 Q365 259 341 224.5 Q317 190 263 156 Q249 147 235 138.5 Q221 130 208.5 121.5 Q196 113 187 106 Q178 99 175 93 L342 93 Z " />
<glyph glyph-name="threeinferior" unicode="&#x2083;" horiz-adv-x="363" d="M85 110 Q104 98 133 90.5 Q162 83 191 83 Q223 83 247 94 Q271 105 271 131 Q271 148 256 157.5 Q241 167 208 167 L157 167 L177 244 L222 244 Q254 244 271.5 259 Q289 274 289 291 Q289 303 278 312 Q267 321 243 321 Q218 321 192 313 Q166 305 146 295 L125 375 Q150 388 189.5 398.5 Q229 409 269 409 Q293 409 314.5 404.5 Q336 400 352.5 388.5 Q369 377 378.5 358.5 Q388 340 388 313 Q388 284 371 256 Q354 228 322 214 Q344 203 357 180.5 Q370 158 370 131 Q370 93 354 67 Q338 41 312 24.5 Q286 8 252.5 0.5 Q219 -7 185 -7 Q145 -7 108 1.5 Q71 10 45 26 L85 110 Z " />
<glyph glyph-name="fourinferior" unicode="&#x2084;" horiz-adv-x="363" d="M400 401 L344 170 L390 170 L371 90 L325 90 L303 1 L209 1 L231 90 L41 90 L56 159 Q111 230 171.5 289.5 Q232 349 307 401 L400 401 Z M281 297 Q250 270 217.5 237.5 Q185 205 159 170 L250 170 L281 297 Z " />
<glyph glyph-name="fiveinferior" unicode="&#x2085;" horiz-adv-x="363" d="M215 258 Q260 251 288 240 Q316 229 331 214 Q346 199 351 180 Q356 161 356 138 Q356 112 345 86.5 Q334 61 310 40.5 Q286 20 249 7 Q212 -6 161 -6 Q132 -6 97.5 2.5 Q63 11 34 27 L75 111 Q101 99 127.5 93.5 Q154 88 180 88 Q209 88 229.5 99 Q250 110 250 138 Q250 164 214.5 173.5 Q179 183 98 186 Q108 212 118.5 242.5 Q129 273 138.5 302.5 Q148 332 156.5 358 Q165 384 170 401 L407 401 L386 310 L233 310 Q229 300 224.5 284.5 Q220 269 215 258 Z " />
<glyph glyph-name="sixinferior" unicode="&#x2086;" horiz-adv-x="363" d="M389 318 Q315 317 269 301 Q223 285 193 250 Q221 259 255 259 Q276 259 295.5 253.5 Q315 248 330 235.5 Q345 223 354.5 201 Q364 179 364 146 Q364 110 349.5 81.5 Q335 53 311.5 33.5 Q288 14 258.5 4 Q229 -6 199 -6 Q172 -6 147.5 2 Q123 10 104 26.5 Q85 43 73.5 69 Q62 95 62 130 Q62 182 80.5 231.5 Q99 281 139.5 319 Q180 357 243.5 380 Q307 403 397 403 L389 318 Z M200 80 Q232 80 248 99.5 Q264 119 264 141 Q264 159 252.5 173 Q241 187 216 187 Q205 187 192 184.5 Q179 182 166 178 Q162 167 159.5 154 Q157 141 157 130 Q157 110 166.5 95 Q176 80 200 80 Z " />
<glyph glyph-name="seveninferior" unicode="&#x2087;" horiz-adv-x="363" d="M86 2 Q106 81 150 157.5 Q194 234 273 305 L95 305 L118 401 L425 401 L405 317 Q369 284 335 246 Q301 208 273 167.5 Q245 127 224.5 85 Q204 43 196 2 L86 2 Z " />
<glyph glyph-name="eightinferior" unicode="&#x2088;" horiz-adv-x="363" d="M398 317 Q398 283 378.5 253.5 Q359 224 318 205 Q344 189 354 169.5 Q364 150 364 128 Q364 94 348.5 69 Q333 44 307.5 27 Q282 10 250.5 1.5 Q219 -7 187 -7 Q159 -7 133.5 -1 Q108 5 88.5 17.5 Q69 30 57 48.5 Q45 67 45 92 Q45 128 66.5 159.5 Q88 191 137 211 Q114 227 106 245 Q98 263 98 283 Q98 314 113 338 Q128 362 152 377.5 Q176 393 206 401 Q236 409 266 409 Q292 409 316 403 Q340 397 358 385.5 Q376 374 387 357 Q398 340 398 317 Z M197 176 Q171 165 155.5 145 Q140 125 140 108 Q140 93 153 82.5 Q166 72 195 72 Q227 72 246.5 87.5 Q266 103 266 123 Q266 154 216 170 L197 176 Z M191 288 Q191 257 245 238 L251 235 Q274 246 289 264.5 Q304 283 304 300 Q304 314 292.5 323.5 Q281 333 255 333 Q226 333 208.5 319.5 Q191 306 191 288 Z " />
<glyph glyph-name="nineinferior" unicode="&#x2089;" horiz-adv-x="363" d="M70 85 Q144 86 190 101.5 Q236 117 265 152 Q235 144 204 144 Q183 144 163.5 149.5 Q144 155 129 167.5 Q114 180 104.5 202 Q95 224 95 257 Q95 293 109.5 321.5 Q124 350 147.5 369.5 Q171 389 200.5 399 Q230 409 260 409 Q287 409 311.5 401 Q336 393 355 376.5 Q374 360 385.5 334 Q397 308 397 273 Q397 220 378.5 171 Q360 122 319.5 84 Q279 46 215.5 23 Q152 0 62 0 L70 85 Z M259 323 Q227 323 211 303.5 Q195 284 195 262 Q195 244 206.5 230 Q218 216 243 216 Q254 216 267 218.5 Q280 221 293 225 Q297 236 299.5 249 Q302 262 302 273 Q302 293 292.5 308 Q283 323 259 323 Z " />
<glyph glyph-name="afii61289" unicode="&#x2113;" horiz-adv-x="541" d="M566 61 Q528 25 479 5.5 Q430 -14 370 -14 Q285 -14 237 26 Q189 66 179 154 L134 122 L86 194 Q110 213 132.5 229.5 Q155 246 177 264 L177 504 Q177 645 229.5 710.5 Q282 776 370 776 Q412 776 442.5 761 Q473 746 493.5 720.5 Q514 695 523.5 661 Q533 627 533 589 Q533 498 475.5 414 Q418 330 315 239 L315 206 Q315 112 400 112 Q428 112 456 125.5 Q484 139 505 157 L566 61 Z M315 372 Q367 429 399.5 486.5 Q432 544 432 593 Q432 632 420 652 Q408 672 378 672 Q366 672 354.5 665 Q343 658 334.5 640.5 Q326 623 320.5 593.5 Q315 564 315 520 L315 372 Z " />
<glyph glyph-name="estimated" unicode="&#x212e;" horiz-adv-x="936" d="M301 337 Q296 337 296 333 L296 136 Q296 123 305 114 Q353 63 415 35 Q477 7 550 7 Q629 7 695 39.5 Q761 72 809 126 L866 126 Q840 94 805.5 68.5 Q771 43 730 25 Q689 7 643 -3 Q597 -13 549 -13 Q466 -13 393 15.5 Q320 44 266 92.5 Q212 141 180.5 206.5 Q149 272 149 347 Q149 422 180.5 487.5 Q212 553 266 602 Q320 651 393 679.5 Q466 708 549 708 Q632 708 705.5 679.5 Q779 651 833.5 602 Q888 553 919.5 487.5 Q951 422 951 347 L951 337 L301 337 Z M803 560 Q803 573 794 584 Q746 632 684 659 Q622 686 550 686 Q478 686 416 657 Q354 628 306 580 Q301 576 298.5 569.5 Q296 563 296 556 L296 363 Q296 356 301 356 L799 356 Q803 356 803 363 L803 560 Z " />
<glyph glyph-name="onethird" unicode="&#x2153;" horiz-adv-x="878" d="M582 102 Q601 90 630 82.5 Q659 75 688 75 Q720 75 744 86 Q768 97 768 123 Q768 140 753 149.5 Q738 159 705 159 L654 159 L674 236 L719 236 Q751 236 768.5 251 Q786 266 786 283 Q786 295 775 304 Q764 313 740 313 Q715 313 689 305 Q663 297 643 287 L622 367 Q647 380 686.5 390.5 Q726 401 766 401 Q790 401 811.5 396.5 Q833 392 849.5 380.5 Q866 369 875.5 350.5 Q885 332 885 305 Q885 276 868 248 Q851 220 819 206 Q841 195 854 172.5 Q867 150 867 123 Q867 85 851 59 Q835 33 809 16.5 Q783 0 749.5 -7.5 Q716 -15 682 -15 Q642 -15 605 -6.5 Q568 2 542 18 L582 102 Z M156 618 Q204 635 247.5 656.5 Q291 678 326 701 L413 701 L318 302 L204 302 L268 572 Q246 561 222.5 551.5 Q199 542 167 531 L156 618 Z M831 693 L310 0 L172 0 L695 693 L831 693 Z " />
</font>
</svg>
