<svg id="051d54d4-c44e-4d26-a8f5-d34dad75e835" data-name="Livello 1" xmlns="http://www.w3.org/2000/svg" viewBox="0 0 88 150"><title>FMA_logo_app</title><ellipse cx="44" cy="143.8" rx="16.3" ry="3.8" fill="#1d1d1b" opacity="0.25"/><path d="M14.9,71.6C10.5,59.1,4.6,37,13.7,22.8,19.1,14.3,29.5,10,44.5,10s23.9,4.1,29.3,12.3c9.3,14.2,4.1,36.7.1,49.4l8.5-1.5c4.1-14.4,8-36.6-2.1-52.1C73.3,7.6,61.3,2.3,44.5,2.3S14.2,7.8,7.3,18.6c-9.8,15.4-5.4,37.2-1,51.4Z" fill="#1f1c1d"/><ellipse cx="44" cy="66" rx="9.7" ry="9.2" fill="#e52736"/><path d="M58.6,82a90.4,90.4,0,0,1-13.7,1.4H44A90.4,90.4,0,0,1,30.3,82l-22-3.9,2.3,6.8S22.9,90.3,27,92.2a2.8,2.8,0,0,1,1.3,1.3l16.2,33.7L60.6,93.5a2.8,2.8,0,0,1,1.3-1.3c4-1.9,16.4-7.4,16.4-7.4l2.3-6.8Z" fill="#e52736"/></svg>