<svg xmlns="http://www.w3.org/2000/svg" viewBox="771 24 42.49 72.52"><defs><style>.a{fill:#3c3c3b;}.b{opacity:0.25;}.c{fill:none;stroke:#dedc00;stroke-linecap:round;stroke-linejoin:round;stroke-miterlimit:10;stroke-width:1.417px;}</style></defs><g transform="translate(770.98 24)"><g transform="translate(0.02)"><path class="a" d="M2.873,34.269l3.89.648c-2.223-6.205-5.094-17.69-.556-24.729C8.893,5.928,14.079,3.8,21.582,3.8c7.039,0,11.948,2.038,14.634,6.113,4.631,7.039,2.038,18.709,0,25.007l3.89-.741h.278c2.038-7.224,3.983-18.616-1.111-26.3C35.937,2.593,29.917,0,21.582,0,12.69,0,6.392,2.779,2.965,8.15-1.943,15.838.279,27.045,2.5,34.176A.557.557,0,0,1,2.873,34.269Z" transform="translate(-0.02)"/></g><path class="a" d="M31.823,46.854c2.223-1.111,9.632-4.446,9.632-4.446A1.223,1.223,0,0,0,41.085,40h-.463L28.674,42.13a38.27,38.27,0,0,1-7.039.648h0A39,39,0,0,1,14.6,42.13L2.556,40H2.093a1.22,1.22,0,0,0-.37,2.408s7.409,3.334,9.632,4.446a5.713,5.713,0,0,1,2.779,3.056l6.113,14.171a1.4,1.4,0,0,0,1.3.834,1.311,1.311,0,0,0,1.3-.834L28.952,49.91A5.941,5.941,0,0,1,31.823,46.854Z" transform="translate(-0.054 -2.953)"/><ellipse class="a" cx="4.816" cy="4.631" rx="4.816" ry="4.631" transform="translate(16.488 27.137)"/><ellipse class="b" cx="8.15" cy="1.945" rx="8.15" ry="1.945" transform="translate(13.246 68.63)"/><path class="c" d="M23.2,68.8" transform="translate(-1.711 -5.079)"/></g></svg>