<svg id="b61ce210-c2bd-4383-b8fd-ac23587424b1" data-name="Livello 1" xmlns="http://www.w3.org/2000/svg" viewBox="0 0 206 213"><title>FMA_loghi_svg</title><path d="M1.3,204.8V176H20.6v5.4H7.8v6H19.2v5.4H7.8v11.9H1.3Z" fill="#fff"/><path d="M31.1,176.6a3.4,3.4,0,0,1-1.1,2.7,3.9,3.9,0,0,1-5.2,0,3.8,3.8,0,0,1,0-5.4,3.9,3.9,0,0,1,5.2,0A3.4,3.4,0,0,1,31.1,176.6Zm-0.6,28.2H24.3V183h6.2v21.8Z" fill="#fff"/><path d="M35.7,177.5l6.2-1V183h7.4v5.1H41.9v7.7a6.1,6.1,0,0,0,.7,3.1,2.9,2.9,0,0,0,2.8,1.2l2.1-.2,1.9-.5,0.9,4.8-2.5.8a14.5,14.5,0,0,1-3.4.3,11.1,11.1,0,0,1-4.2-.7,6.6,6.6,0,0,1-2.7-1.9,7.1,7.1,0,0,1-1.4-3,17.5,17.5,0,0,1-.4-3.9V177.5Z" fill="#fff"/><path d="M71.5,176l1.7,3.4,2,4.4,2.1,4.8,2,4.6,2-4.6,2.1-4.8,2-4.4,1.7-3.4h5.9q0.4,2.9.8,6.4t0.6,7.4q0.3,3.8.5,7.7t0.4,7.3H89.1q-0.1-4.2-.3-9.1t-0.6-10l-1.7,3.9-1.8,4.2-1.7,4-1.4,3.3H77l-1.4-3.3-1.7-4L72,189.6l-1.7-3.9q-0.4,5-.6,10t-0.3,9.1H63.1q0.2-3.4.4-7.3t0.5-7.7q0.3-3.8.6-7.4t0.8-6.4h6.2Z" fill="#e52736"/><path d="M99.3,194a13.4,13.4,0,0,1,.9-5.1,10.9,10.9,0,0,1,2.3-3.6,9.7,9.7,0,0,1,3.3-2.2,10.5,10.5,0,0,1,3.9-.7,9.7,9.7,0,0,1,7.3,2.8q2.7,2.8,2.7,8.4,0,0.5,0,1.2v1.1h-14a4.1,4.1,0,0,0,1.8,3,7.2,7.2,0,0,0,4.2,1.1,17.9,17.9,0,0,0,3.3-.3,12.6,12.6,0,0,0,2.7-.8l0.8,5-1.3.5-1.8.4-2.2.3h-2.3a13.7,13.7,0,0,1-5.1-.9,10,10,0,0,1-3.6-2.4,9.5,9.5,0,0,1-2.1-3.6A14.2,14.2,0,0,1,99.3,194Zm14.5-2.4a6.4,6.4,0,0,0-.3-1.5,3.9,3.9,0,0,0-.7-1.3,3.8,3.8,0,0,0-1.2-1,3.9,3.9,0,0,0-1.8-.4,4.2,4.2,0,0,0-1.8.4,3.7,3.7,0,0,0-1.2.9,4.2,4.2,0,0,0-.8,1.4,8.9,8.9,0,0,0-.4,1.6h8.2Z" fill="#e52736"/><path d="M155.9,204.8l-1.5-4.1-1.3-3.8H139l-1.4,3.8-1.5,4.1h-2.9l3.1-8.4,2.9-7.3,2.8-6.7,2.9-6.4h2.5q1.5,3.2,2.9,6.4l2.8,6.7q1.4,3.5,2.9,7.3l3.2,8.4h-3.1ZM146,179.3q-1.6,3.6-3,7.3t-3.1,8h12.3q-1.6-4.3-3.1-8Z" fill="#fff"/><path d="M165.2,212.5h-2.7V184.1l3.1-.8a24.8,24.8,0,0,1,4.7-.4,11.5,11.5,0,0,1,4.3.8,9.3,9.3,0,0,1,3.3,2.2,10.1,10.1,0,0,1,2.2,3.5,13.5,13.5,0,0,1,.8,4.7,15,15,0,0,1-.6,4.5,10,10,0,0,1-1.9,3.5,8.7,8.7,0,0,1-3.1,2.3,9.8,9.8,0,0,1-4.1.8,10.2,10.2,0,0,1-3.7-.6,9.6,9.6,0,0,1-2.3-1.1v8.9Zm0-11.5,0.9,0.6,1.3,0.6,1.6,0.5,1.8,0.2a7.3,7.3,0,0,0,3.3-.7,5.9,5.9,0,0,0,2.2-1.9,7.9,7.9,0,0,0,1.2-2.8,14.8,14.8,0,0,0,.4-3.4q0-4.2-2.1-6.5a7.3,7.3,0,0,0-5.6-2.3l-3.2.2-1.8.4v15Z" fill="#fff"/><path d="M189,212.5h-2.7V184.1l3.1-.8a24.8,24.8,0,0,1,4.7-.4,11.5,11.5,0,0,1,4.3.8,9.3,9.3,0,0,1,3.3,2.2,10.1,10.1,0,0,1,2.2,3.5,13.5,13.5,0,0,1,.8,4.7,15,15,0,0,1-.6,4.5,10,10,0,0,1-1.9,3.5,8.7,8.7,0,0,1-3.1,2.3,9.8,9.8,0,0,1-4.1.8,10.2,10.2,0,0,1-3.7-.6,9.6,9.6,0,0,1-2.3-1.1v8.9Zm0-11.5,0.9,0.6,1.3,0.6,1.6,0.5,1.8,0.2a7.3,7.3,0,0,0,3.3-.7,5.9,5.9,0,0,0,2.2-1.9,7.9,7.9,0,0,0,1.2-2.8,14.8,14.8,0,0,0,.4-3.4q0-4.2-2.1-6.5a7.3,7.3,0,0,0-5.6-2.3l-3.2.2-1.8.4v15Z" fill="#fff"/><ellipse cx="102.4" cy="142" rx="16.3" ry="3.8" fill="#4f4f4f"/><path d="M73.1,69.8c-4.4-12.5-10.2-34.6-1.2-48.8,5.4-8.5,15.8-12.8,30.8-12.8s23.9,4.1,29.3,12.3c9.3,14.2,4.1,36.7.1,49.4l8.5-1.5c4.1-14.4,8-36.6-2.1-52.1C131.5,5.8,119.5.5,102.7,0.5S72.4,6,65.5,16.8C55.6,32.3,60,54,64.5,68.3Z" fill="#fff"/><ellipse cx="102.2" cy="64.2" rx="9.7" ry="9.2" fill="#e52736"/><path d="M116.8,80.2a90.4,90.4,0,0,1-13.7,1.4h-0.9a90.4,90.4,0,0,1-13.7-1.4l-22-3.9,2.3,6.8s12.3,5.4,16.4,7.4a2.8,2.8,0,0,1,1.3,1.3l16.2,33.7,16.2-33.7a2.8,2.8,0,0,1,1.3-1.3c4-1.9,16.4-7.4,16.4-7.4l2.3-6.8Z" fill="#e52736"/></svg>