<svg xmlns="http://www.w3.org/2000/svg" viewBox="87.382 209 203 205.798"><defs><style>.a{fill:#fff;font-size:40px;font-family:Helvetica-Bold, Helvetica;font-weight:700;}.b{font-family:Helvetica-Light, Helvetica;font-weight:300;}.c{fill:#fcea10;}.d{opacity:0.25;}.e{fill:none;stroke:#dedc00;stroke-linecap:round;stroke-linejoin:round;stroke-miterlimit:10;stroke-width:1.417px;}</style></defs><text class="a" transform="translate(87.382 405.798)"><tspan x="0" y="0">Fit Me </tspan><tspan class="b" y="0">App</tspan></text><g transform="translate(28 209)"><path class="c" d="M124.2,66.1l7.4,1.3c-4.2-12-9.9-34.1-1.1-47.8,5.2-8.2,15.2-12.3,29.7-12.3,13.6,0,23,4,28.2,11.8,9,13.6,3.9,36.1.1,48.3l7.6-1.3c.2,0,.4-.1.6-.1,4-13.9,7.8-36-2.1-50.9C188,5.1,176.5,0,160.3,0,143.1,0,131,5.3,124.4,15.7c-9.5,14.9-5.2,36.5-.9,50.3C123.7,66,124,66.1,124.2,66.1Z"/><path class="c" d="M179.9,84.7c4.3-2.2,18.6-8.7,18.6-8.7a2.389,2.389,0,0,0-.8-4.7,2.2,2.2,0,0,0-.8.1l-23.1,4.1c-6.2,1-8,1.3-13.6,1.3H160c-5.6,0-7.4-.4-13.6-1.3l-23.1-4.1a2.485,2.485,0,0,0-.8-.1,2.4,2.4,0,0,0-.8,4.7s14.3,6.5,18.6,8.7c3.5,1.8,4.2,3.8,5.4,5.9L157.5,118a2.676,2.676,0,0,0,2.5,1.6,2.583,2.583,0,0,0,2.5-1.6l11.8-27.4C175.7,88.6,176.5,86.5,179.9,84.7Z"/><ellipse class="c" cx="9.4" cy="8.9" rx="9.4" ry="8.9" transform="translate(150.3 52.4)"/><ellipse class="d" cx="15.7" cy="3.7" rx="15.7" ry="3.7" transform="translate(144.2 132.6)"/><path class="e" d="M160.2,123.1"/></g></svg>