<svg xmlns="http://www.w3.org/2000/svg" viewBox="88.959 1443 123.423 40"><defs><style>.a{fill:#fcea10;}.b{opacity:0.25;}.c{fill:none;stroke:#dedc00;stroke-linecap:round;stroke-linejoin:round;stroke-miterlimit:10;stroke-width:1.417px;}.d{fill:#fff;font-size:17px;font-family:Ubuntu-Bold, Ubuntu;font-weight:700;}.e{font-family:Ubuntu-Light, Ubuntu;font-weight:300;}</style></defs><g transform="translate(0 1430)"><g transform="translate(-29.741 13)"><g transform="translate(118.699)"><path class="a" d="M120.271,18.886l2.114.371c-1.2-3.429-2.829-9.743-.314-13.657,1.486-2.343,4.343-3.514,8.486-3.514,3.886,0,6.571,1.143,8.057,3.371,2.571,3.886,1.114,10.314.029,13.8l2.171-.371c.057,0,.114-.029.171-.029,1.143-3.971,2.229-10.286-.6-14.543C138.5,1.457,135.214,0,130.585,0c-4.914,0-8.371,1.514-10.257,4.486-2.714,4.257-1.486,10.429-.257,14.371C120.128,18.857,120.214,18.886,120.271,18.886Z" transform="translate(-118.699)"/></g><path class="a" d="M137.068,75.129c1.229-.629,5.314-2.486,5.314-2.486a.683.683,0,0,0-.229-1.343.629.629,0,0,0-.229.029l-6.6,1.171a18.966,18.966,0,0,1-3.886.371h-.057A21.207,21.207,0,0,1,127.5,72.5l-6.6-1.171a.71.71,0,0,0-.229-.029.685.685,0,0,0-.229,1.343s4.086,1.857,5.314,2.486a3.262,3.262,0,0,1,1.543,1.686l3.371,7.829a.765.765,0,0,0,.714.457.738.738,0,0,0,.714-.457l3.371-7.829A4,4,0,0,1,137.068,75.129Z" transform="translate(-0.882 -50.929)"/><ellipse class="a" cx="2.686" cy="2.543" rx="2.686" ry="2.543" transform="translate(127.728 14.971)"/><ellipse class="b" cx="4.486" cy="1.057" rx="4.486" ry="1.057" transform="translate(125.985 37.886)"/><path class="c" d="M160.2,123.1" transform="translate(-29.643 -87.929)"/></g><text class="d" transform="translate(125.382 39)"><tspan x="0" y="0">Fit Me </tspan><tspan class="e" y="0">App</tspan></text></g></svg>