<svg id="fafc1911-3d1a-4239-83c5-312fbb8ffe3b" data-name="Livello 1" xmlns="http://www.w3.org/2000/svg" viewBox="0 0 330 152"><title>FMA_logo_app</title><path d="M122.6,88.1V59.3h19.3v5.4H129.1v6h11.4v5.4H129.1V88.1h-6.5Z" fill="#1f1c1d"/><path d="M152.3,59.9a3.4,3.4,0,0,1-1.1,2.7,3.9,3.9,0,0,1-5.2,0,3.8,3.8,0,0,1,0-5.4,3.9,3.9,0,0,1,5.2,0A3.4,3.4,0,0,1,152.3,59.9Zm-0.6,28.2h-6.2V66.2h6.2V88.1Z" fill="#1f1c1d"/><path d="M157,60.8l6.2-1v6.4h7.4v5.1h-7.4v7.7a6.1,6.1,0,0,0,.7,3.1,2.9,2.9,0,0,0,2.8,1.2l2.1-.2,1.9-.5,0.9,4.8-2.5.8a14.5,14.5,0,0,1-3.4.3,11.1,11.1,0,0,1-4.2-.7,6.6,6.6,0,0,1-2.7-1.9,7.1,7.1,0,0,1-1.4-3,17.5,17.5,0,0,1-.4-3.9V60.8Z" fill="#1f1c1d"/><path d="M192.8,59.3l1.7,3.4,2,4.4,2.1,4.8,2,4.6,2-4.6,2.1-4.8,2-4.4,1.7-3.4h5.9q0.4,2.9.8,6.4t0.6,7.4q0.3,3.8.5,7.7t0.4,7.3h-6.3q-0.1-4.2-.3-9.1t-0.6-10l-1.7,3.9-1.8,4.2-1.7,4-1.4,3.3h-4.5l-1.4-3.3-1.7-4-1.8-4.2L191.6,69q-0.4,5-.6,10t-0.3,9.1h-6.3q0.2-3.4.4-7.3t0.5-7.7q0.3-3.8.6-7.4t0.8-6.4h6.2Z" fill="#e52736"/><path d="M220.5,77.3a13.4,13.4,0,0,1,.9-5.1,10.9,10.9,0,0,1,2.3-3.6,9.7,9.7,0,0,1,3.3-2.2,10.5,10.5,0,0,1,3.9-.7,9.7,9.7,0,0,1,7.3,2.8q2.7,2.8,2.7,8.4,0,0.5,0,1.2v1.1h-14a4.1,4.1,0,0,0,1.8,3,7.2,7.2,0,0,0,4.2,1.1,17.9,17.9,0,0,0,3.3-.3,12.6,12.6,0,0,0,2.7-.8l0.8,5-1.3.5-1.8.4-2.2.3h-2.3a13.7,13.7,0,0,1-5.1-.9,10,10,0,0,1-3.6-2.4,9.5,9.5,0,0,1-2.1-3.6A14.2,14.2,0,0,1,220.5,77.3ZM235,74.9a6.4,6.4,0,0,0-.3-1.5,3.9,3.9,0,0,0-.7-1.3,3.8,3.8,0,0,0-1.2-1,3.9,3.9,0,0,0-1.8-.4,4.2,4.2,0,0,0-1.8.4,3.7,3.7,0,0,0-1.2.9,4.2,4.2,0,0,0-.8,1.4,8.9,8.9,0,0,0-.4,1.6H235Z" fill="#e52736"/><path d="M277.1,88.1L275.6,84l-1.3-3.8H260.2L258.8,84l-1.5,4.1h-2.9l3.1-8.4,2.9-7.3,2.8-6.7,2.9-6.4h2.5q1.5,3.2,2.9,6.4l2.8,6.7q1.4,3.5,2.9,7.3l3.2,8.4h-3.1Zm-9.9-25.5q-1.6,3.6-3,7.3t-3.1,8h12.3q-1.6-4.3-3.1-8Z" fill="#1f1c1d"/><path d="M286.5,95.7h-2.7V67.3l3.1-.8a24.8,24.8,0,0,1,4.7-.4,11.5,11.5,0,0,1,4.3.8,9.3,9.3,0,0,1,3.3,2.2,10.1,10.1,0,0,1,2.2,3.5,13.5,13.5,0,0,1,.8,4.7,15,15,0,0,1-.6,4.5,10,10,0,0,1-1.9,3.5,8.7,8.7,0,0,1-3.1,2.3,9.8,9.8,0,0,1-4.1.8,10.2,10.2,0,0,1-3.7-.6,9.6,9.6,0,0,1-2.3-1.1v8.9Zm0-11.5,0.9,0.6,1.3,0.6,1.6,0.5,1.8,0.2a7.3,7.3,0,0,0,3.3-.7,5.9,5.9,0,0,0,2.2-1.9,7.9,7.9,0,0,0,1.2-2.8,14.8,14.8,0,0,0,.4-3.4q0-4.2-2.1-6.5a7.3,7.3,0,0,0-5.6-2.3l-3.2.2-1.8.4v15Z" fill="#1f1c1d"/><path d="M310.2,95.7h-2.7V67.3l3.1-.8a24.8,24.8,0,0,1,4.7-.4,11.5,11.5,0,0,1,4.3.8,9.3,9.3,0,0,1,3.3,2.2,10.1,10.1,0,0,1,2.2,3.5,13.5,13.5,0,0,1,.8,4.7,15,15,0,0,1-.6,4.5,10,10,0,0,1-1.9,3.5,8.7,8.7,0,0,1-3.1,2.3,9.8,9.8,0,0,1-4.1.8,10.2,10.2,0,0,1-3.7-.6,9.6,9.6,0,0,1-2.3-1.1v8.9Zm0-11.5,0.9,0.6,1.3,0.6,1.6,0.5,1.8,0.2a7.3,7.3,0,0,0,3.3-.7,5.9,5.9,0,0,0,2.2-1.9,7.9,7.9,0,0,0,1.2-2.8,14.8,14.8,0,0,0,.4-3.4q0-4.2-2.1-6.5a7.3,7.3,0,0,0-5.6-2.3l-3.2.2-1.8.4v15Z" fill="#1f1c1d"/><ellipse cx="46.9" cy="144.8" rx="16.3" ry="3.8" fill="#1d1d1b" opacity="0.25"/><path d="M17.6,72.6C13.3,60.1,7.4,38,16.5,23.8,21.9,15.3,32.3,11,47.3,11s23.9,4.1,29.3,12.3c9.3,14.2,4.1,36.7.1,49.4l8.5-1.5c4.1-14.4,8-36.6-2.1-52.1C76.1,8.6,64.1,3.3,47.3,3.3S16.9,8.8,10,19.6c-9.8,15.4-5.4,37.2-1,51.4Z" fill="#1f1c1d"/><ellipse cx="46.8" cy="67" rx="9.7" ry="9.2" fill="#e52736"/><path d="M61.4,83a90.4,90.4,0,0,1-13.7,1.4H46.8A90.4,90.4,0,0,1,33,83l-22-3.9,2.3,6.8s12.3,5.4,16.4,7.4A2.8,2.8,0,0,1,31,94.5l16.2,33.7L63.4,94.5a2.8,2.8,0,0,1,1.3-1.3c4-1.9,16.4-7.4,16.4-7.4l2.3-6.8Z" fill="#e52736"/></svg>