<svg xmlns="http://www.w3.org/2000/svg" viewBox="1066 48 65 110.73"><defs><style>.a{fill:#fcea10;}.b{opacity:0.25;}.c{fill:none;stroke:#dedc00;stroke-linecap:round;stroke-linejoin:round;stroke-miterlimit:10;stroke-width:1.417px;}</style></defs><g transform="translate(947.301 48)"><g transform="translate(118.699)"><path class="a" d="M123.05,52.28l5.853,1.028c-3.322-9.491-7.83-26.971-.87-37.806,4.113-6.486,12.022-9.728,23.49-9.728,10.757,0,18.191,3.164,22.3,9.333,7.118,10.757,3.085,28.552.079,38.2l6.011-1.028c.158,0,.316-.079.475-.079,3.164-10.994,6.169-28.473-1.661-40.258C173.511,4.034,164.415,0,151.6,0,138,0,128.428,4.192,123.208,12.418,115.694,24.2,119.1,41.286,122.5,52.2,122.655,52.2,122.892,52.28,123.05,52.28Z" transform="translate(-118.699)"/></g><path class="a" d="M167.363,81.9c3.4-1.74,14.711-6.881,14.711-6.881a1.89,1.89,0,0,0-.633-3.717,1.742,1.742,0,0,0-.633.079l-18.27,3.243a52.505,52.505,0,0,1-10.757,1.028h-.158a58.707,58.707,0,0,1-10.757-1.028L122.6,71.379a1.966,1.966,0,0,0-.633-.079,1.9,1.9,0,0,0-.633,3.717s11.31,5.141,14.711,6.881c2.768,1.424,3.322,3.006,4.271,4.666l9.333,21.671a2.116,2.116,0,0,0,1.977,1.265,2.043,2.043,0,0,0,1.977-1.265l9.333-21.671C164.041,84.983,164.674,83.322,167.363,81.9Z" transform="translate(-0.258 -14.907)"/><ellipse class="a" cx="7.435" cy="7.039" rx="7.435" ry="7.039" transform="translate(143.693 41.445)"/><ellipse class="b" cx="12.418" cy="2.926" rx="12.418" ry="2.926" transform="translate(138.868 104.877)"/><path class="c" d="M160.2,123.1" transform="translate(-8.677 -25.737)"/></g></svg>