<svg xmlns="http://www.w3.org/2000/svg" viewBox="35.821 16.834 15.191 15.666"><defs><style>.a,.b{fill:none;stroke-width:3px;}.a{stroke:#efefef;}.b{stroke:#e52736;stroke-miterlimit:10;}</style></defs><g transform="translate(35 16)"><g transform="translate(2.321 2.334)"><path class="a" d="M7.592,1.5a6.2,6.2,0,0,1,6.092,6.311,6.2,6.2,0,0,1-6.092,6.311A6.2,6.2,0,0,1,1.5,7.811,6.2,6.2,0,0,1,7.592,1.5Z" transform="translate(-1.493 -1.5)"/><path class="b" d="M13.591,7.759a6.184,6.184,0,0,1-6.07,6.307A6.259,6.259,0,0,1,1.4,7.759,6.272,6.272,0,0,1,7.52,1.4" transform="translate(-1.4 -1.4)"/></g></g></svg>